<?xml version="1.0" encoding="utf-8"?>
<!-- Generator: Adobe Illustrator 24.1.2, SVG Export Plug-In . SVG Version: 6.00 Build 0)  -->
<svg version="1.1" id="Capa_1" xmlns="http://www.w3.org/2000/svg" xmlns:xlink="http://www.w3.org/1999/xlink" x="0px" y="0px"
	 viewBox="0 0 148.7 120" style="enable-background:new 0 0 148.7 120;" xml:space="preserve">
<style type="text/css">
	.st0{fill:#FCF7F0;}
</style>
<path class="st0" d="M141.3,96.9l-1.3-3.4l-3.7,0l2.8-2.2l-1-3.8l3.3,2.2l3.1-2.4l-1.1,3.8l3.3,2.2l-3.9,0.1L141.3,96.9z M138,105.6
	l3.8,0.6l-2.7-2.7l1.7-3.5l-3.4,1.8l-3.1-2.5l0.6,3.7l-3.2,1.7l3.9,0.6l0.6,3.9L138,105.6z M144.9,80.1l3.8-0.9l-3.6-1.5l0.3-3.9
	l-2.5,3.1l-3.6-1.5l2,3.3l-2.5,3l3.8-0.9l2,3.4L144.9,80.1z M142.6,67.8l2.6,3l-0.3-3.9l3.6-1.5l-3.8-0.8l-0.3-3.9l-2,3.3l-3.8-1
	l2.5,3l-2.1,3.4L142.6,67.8z M140.2,55.1l3.1,2.4l-1.1-3.8l3.2-2.2l-3.9-0.1l-1.1-3.8l-1.4,3.7l-3.8-0.2l3.1,2.4l-1.4,3.7
	L140.2,55.1z M135.2,42.6l3.5,1.7l-1.8-3.5l2.7-2.8l-3.8,0.7l-1.9-3.4l-0.5,3.8l-3.9,0.6l3.5,1.7l-0.6,4L135.2,42.6z M128.3,32.2
	l3.7,1.1l-2.4-3.1l2.3-3.3l-3.7,1.3l-2.4-3.1L126,29l-3.7,1.3l3.8,1.1l0.1,3.9L128.3,32.2z M119.8,22.7l3.6,0l-2.7-2.4l1-3.7
	l-3.2,2.1l-3-2.4l1,3.7l-3.2,2.1l3.8,0.2l1,3.9L119.8,22.7z M109.2,14.7l3.9-0.5l-3.4-1.9l0.7-3.8l-2.8,2.7L104,9.6l1.5,3.4
	l-2.6,2.4l3.9-0.5l1.7,3.6L109.2,14.7z M96.1,9.6l3.9-1.7l-3.8-1L96.1,3l-2.2,3.2l-3.8-0.9l2.2,3l-2,3.2l3.6-1.3l2.6,3.1L96.1,9.6z
	 M82.9,6.4l3.4-2l-4-0.4l-0.9-3.8L80,3.8l-3.9-0.3l2.6,2.3l-1.3,3.8l3.4-2l3,2.7L82.9,6.4z M69,5.8l2.9-2.6l-3.9,0.3L66.4,0
	l-0.7,3.8l-3.9,0.4l3.3,1.9l-0.8,3.8l2.9-2.5l3.4,2L69,5.8z M56.5,8.2l2.4-3.1l-3.8,1.1L52.9,3l0,4.1l-3.8,1l3.7,1.2l-0.1,3.9
	l2.4-3.1l3.8,1.3L56.5,8.2z M43.6,12.9l1.7-3.5l-3.6,1.8L39,8.4l0.7,3.9l-3.4,1.8l3.8,0.6l0.7,3.9l1.7-3.5l4,0.6L43.6,12.9z
	 M32.8,19.7l0.8-3.8l-3,2.5l-3.3-2l1.5,3.6L26,22.6l3.8-0.3l1.4,3.6l1-3.7l4-0.3L32.8,19.7z M23.4,28.5l0.3-3.9l-2.5,3l-3.6-1.5
	l2,3.3l-2.5,2.9l3.8-0.9l2,3.3l0.3-3.9l3.9-0.8L23.4,28.5z M15.5,38.5L15,34.7l-2,3.4l-3.8-0.7l2.6,2.8L10,43.6l3.5-1.6l2.6,2.9
	L15.7,41l3.6-1.6L15.5,38.5z M9.8,51l-1.3-3.7L7.3,51l-3.8,0l3.2,2.2L5.5,57l3.1-2.3l3.1,2.3l-1.1-3.7l3.2-2.3L9.8,51z M6.7,63.3
	l-2.1-3.1L4.2,64l-3.8,0.8L4,66.4l-0.4,3.9l2.6-2.9L9.7,69l-1.9-3.4l2.7-2.9L6.7,63.3z M5.8,76.2l-2.6-2.9l0.3,3.8L0,78.6l3.8,0.9
	l0.4,3.9l2-3.3L9.9,81l-2.5-3l2-3.4L5.8,76.2z M7.7,89l-2.9-2.5l1,3.8l-3.3,2.1l3.8,0.3l1,3.8l1.4-3.6l3.9,0.3l-3-2.5l1.6-3.7
	L7.7,89z M11.5,101.2L8,99.3l1.6,3.6l-2.8,2.6l3.9-0.5l1.7,3.5l0.7-3.8l3.9-0.5l-3.4-1.9l0.8-3.9L11.5,101.2z M105.3,81.2
	c0.3,0.5,2.4,3.2,2.5,4.5c-0.2,1.3,0.1,1.1,1,2.3c1.4,1.6,3.4,4.7,5.3,6.5c0.3,0.3,3.3,3.9,3.8,4.4c0,0-0.1-0.4-0.1-0.4
	c-0.2-0.3-3.4-4.8-4.8-7.5c-0.6-0.9-0.2-1.9-0.7-2.8c-2-2.9-5.2-5.9-6.7-7.1C105,80.6,105.3,81.2,105.3,81.2 M37.3,91.8
	c0.7-0.6,0.9-0.3,1.7-0.9c0.6-0.8,6.9-9.6,6.3-9.6c-0.1-0.5-2.4,2-4,3.2c-3.3,3.1-4.5,5.7-14.3,19.1C32.5,97.4,35.9,93.1,37.3,91.8
	 M60.3,73.7c-0.3-0.2-2,3.2-3.4,4.3c-1.8,1.1-1.7,1.5-2.8,3.2c-0.6,0.6-4.6,5.9-4.4,7.1c-0.1,0.7,1.1,0.5-0.6,2.3l-0.8,2.6
	c0,0-0.8,1.6-1.1,2.2c-0.3,0.9-0.2,1.7-0.8,3c-1.4,3.2-2.7,4-2.4,5.1c1.2-1.3,1-2.1,2.5-2.8c0.8-1.1,1.3-0.5,1.8-2.1
	c0.3-1,1.3-1.8,1.8-2.5c0.1-0.6,0.5-0.3,1.3-2.4c1.1-1.7,2-1.6,2.5-2.1c0.9-1.3,3.7-6.2,4.4-7.8c-0.2-1.3-0.1-2.7,0.2-4
	C58.7,76.7,61.1,74.2,60.3,73.7 M91.4,74.9c-0.1,0.1,0,1.1,0.1,1.4c0,0,0.3,0.7,0.8,1.6c0.2,0.4,0.8,0.8,1,1.2
	c0,0.1,1.4,2.1,1.9,4.1c0.5,0.1,1.3,2.4,1.3,2.4c1.1,3.1,5,7.6,5.1,7.7c1.8,0.6,1.7,0.5,1.8,0.6c0.7,0.1,2.4,1,3.9,3.2
	c1.1,1.1,2.4,3,4.4,5.4c0.6,0.5,2.4,3.9,3.2,4.2c0.8-0.4-3.8-7.4-5.9-12c-0.4-0.8-0.7-0.7-1-1.1c-1.1-1.2-1.3-2.5-1.9-3.2
	c-1.1-1.1-4.1-3.1-5.3-4.9c-1.2-1-0.9-0.9-1.5-1.6c0-0.7,0-2.2-0.3-2.5c-0.5-0.9-5.1-6-5.9-7.1c-1.8-1.8-3.8-4.1-4.2-4.1
	c0.1,0.5,0.4,0.6,0.5,1.1C89.9,72.8,91.4,74.3,91.4,74.9 M79.7,80.5c0.3,1.3,1.5,5.1,2,4.9c-0.1,0.3,2.4,0.3,2.7,1.2
	c0.5,0,1.3,3.8,2.4,5.8c0.8,1.7,4.2,10.1,4.6,11.9c1.2,2.1,1,3.1,2.2,4.4c-0.2,0.5,1.7,0.1,1.8,0.1c-0.1-0.1-1-2.1-1.5-4.3
	c-0.2-0.8-0.3-1.2-0.7-2c-0.1-1-0.6-1.1,0.5-1.6c0.3-0.9-0.6-3.8-0.8-3.9c-0.6-0.7,0.3,0.2-0.6-0.7c-0.7-1.1-3.7-8.2-3.2-8.9
	c-0.3-0.7,1-0.6,0.9-1.5c0.9-0.1-5.7-12-7-13.9c-0.7-1.3-0.1-0.3-1.8-3.3c-1.9-3.4-3.6-6.3-3.8-6.6c-1.8-2.2,2.1,7,1.3,7.4
	c0.4,1.4-2.6,1.7-0.9,4.1c0.3,0.7,0.2,0.4,0.5,1.3C78.7,75.4,79.6,80.5,79.7,80.5 M71.4,41.1c0.2,0.1-0.7-0.8-3,2
	c-1.2,1.8-1.2,1.5-1.7,3.4c0,0.5-0.1,0.6,0.7,0.7c0.9-0.1,1.9-2,1.9-2C71.6,41.3,71.4,41.1,71.4,41.1z M54.3,43.3
	c-1.3,1.8-1.6,2.8-1.7,3.3c0,0.3-0.2,0.7,0.6,0.8c0.9,0.2,2.1-1.8,2.1-1.8c1.8-2.6,2.5-4.4,2.5-4.4C57.8,41.3,56.7,40.5,54.3,43.3z
	 M91.6,40.7c-1.5-0.5-3.2,3.5-3.2,3.5c-1.8,4.1-0.8,4-0.8,4c1,0.3,2.2-1.7,2.2-1.7C93.1,41.8,91.6,40.7,91.6,40.7z M136.1,77
	c-0.5,10-8.1,27.3-8.1,27.3s-6.4-8.3-10.4-14c-1.9-1.9-4.8-6.9-7-9.8c-3.6-4.8-6.6-8.3-7.7-8.4c-1.9-0.4-1.9-0.6-2.9-1.3
	c-1.3-0.9-1.1,0.2-2.8-1.9c-8.9-7.4-8.3-8.7-9.8-9.5c-1.1,0.1-2.8-1.3-3.8-2c-2.3-1.8-4-3.9-5.7-5c-1.9-0.9-3.5,0.1-3.6-0.1
	c-2.7,1.3-8.4,6.5-16.7,13.2c-1,1.7-2.7,0.3-4.3,1.1c-1.6,0.8-32.4,37.7-32.4,37.7s-8-14.6-8-32.9c1.6-34.2,30.6-59.7,64.7-58.1
	C111.6,15,137.8,42.8,136.1,77z M45.3,44.2c0,0,8.5-0.7,9.2-6.2c0.3-1.2-0.8-7-10.4-7c-14.2,0.7-14.8,9.3-14.5,9.7
	c0.4,5.1,5,5.3,5.3,5.3c4.7-0.2,5.5-2.7,5.5-3.3c0-0.5-0.3-1.4-1.5-1.3c-0.5,0-0.9,0.4-1,1.2c0,0,0,0.3,0.1,0.8c0,0,0.2,1.7-2.7,2.1
	c0,0-4.2,0-3.3-4.6c0,0,1.5-9,12.1-9.5c7.3,0.1,7.4,5.1,7.4,5.5c-0.1,1.7-1,4.6-4,6c-0.7,0.4-1.2,0.3-1.9,0.5c0.4-0.7,1.3-6.7,3.4-8
	c0,0,0,0,0-0.1c0,0-2.4-0.3-5.2,4.9c-0.7,1-3.4,8.8-4.6,10c0,0-2.3,3.7-6.6,3.8c-3.3,0-3.2-1.6-3.4-1.9c-0.3-1.3,1.2-2,1.1-2.7
	c0.1-1.3-0.9-1.8-1.8-1.6c-0.8,0.2-1.9,1.2-1.7,3c1,4,6,3.9,6.1,3.9c7.7-0.8,9.8-5.2,9.8-5.2S44.5,47.2,45.3,44.2z M115.9,40.1
	l1.5-3.4h-1.9c0,0-0.7,1.6-1.6,3.4l-1.4,0l-0.3,0.8h1.3c-1.2,2.4-2.1,4.7-1.8,3.8c-1.4,2.8-3.1,2.5-3.1,2.5c-0.4-0.2,0-1.2,0-1.2
	s2.3-3.9,2.5-5c0.2-1.2-1.5-1.1-1.5-1.1c-1.4,0.4-3,1.6-3,1.6l0.4-1.3h-1.8l-1.8,3.4c-2.1,3.9-3.3,3.7-3.3,3.7c-0.3-0.1,0-1,0-1
	l2.7-6.1h-1.9l-2.3,5c-1.2,1.9-2.5,2.1-2.5,2.1c-0.4-0.2-0.1-0.8-0.1-0.8l2.6-6.4h-1.9c-0.9,2.5-2.8,2.2-2.8,2.2
	c0.3-2.3-1.8-2.7-2.2-2.7c-3.9,0.2-5.7,4.8-5.9,5.7c-0.5,1.1-1.8,2.3-2.1,2.2c-0.3,0.1-0.2-0.5-0.2-0.5s2.6-5.5,2.6-6
	c0-1.1-1-0.9-1-0.9c-1.9,0.2-3.2,1.3-3.2,1.3c0-1.3-1-1.4-1-1.4c-1.7,0.2-3.2,1.5-3.2,1.5c-0.4,0.2,0.5-1.3,0.5-1.3h-1.9l-2.3,4.9
	c-1.2,2.1-2.2,1.9-2.2,1.9c-0.6,0-0.4-0.6-0.4-0.6c0.2-1.1,2.5-6,2.5-6c-0.6-0.2-1.9-0.3-1.9-0.3c-2.3,0.1-5.2,2.4-5.2,2.4
	c-1.3,0.6-0.5-0.6-0.5-0.6c1.1-1.8,0.5-1.9,0.5-1.9c-0.3-0.3-1,0.2-1,0.2c-3.2,2.9-1.9,1.1-1.9,1.1l0.4-0.9v-0.1h-1.7L61,43.7
	c-0.3,1-3.8,5.2-3.6,2.7c0-0.2,1.9-4.5,2.4-5.9c-0.4-0.3-4-1.4-8.4,4.1c-1.9,3.6,0.3,4.3,0.3,4.3c1.4,0.3,3.5-1.8,3.5-1.8
	s-0.4,1.8,0.9,1.8c1.1,0.2,3.4-2.4,3.6-2.3c0.2-0.1-0.9,2-0.9,2h1.7c-0.4-0.1,2.2-4.2,2.2-4.2c0.1-0.4,1.3-2,1.5-1.8
	c-0.2,2.5,1.9,0.9,2,1.1c-3.8,5-0.4,5.2-0.4,5.2c1.6-0.2,3.2-1.7,3.2-1.7c-0.1,1.7,1.1,1.7,1.1,1.7c1.3,0.2,2.9-1.8,3.1-1.7
	c0.2,0-0.6,1.4-0.6,1.4h1.9l2-4.6c1.1-2.2,2.5-2.4,2.5-2.4c0.4,0.3,0.3,0.6,0.3,0.6l-2.9,6.5h2.2l2.3-5.1c1.4-2.5,2.4-2.1,2.4-2.1
	c0.3,0.3,0.1,0.5,0.1,0.5l-2.4,5.4c-0.4,1.6,1.1,1.6,1.1,1.6c1.4,0.4,3.2-1.9,3.2-1.9c0.4,2.2,2.2,2.1,2.2,2.1
	c3.5-0.5,5.3-4.2,5.3-4.2c0.4-0.8,0.7-1.9,0.7-1.9c0.6,0.2,1.7-0.3,1.7-0.3s-1.8,4.2-1.9,4.7c0,1.2,0.9,1.2,0.9,1.2
	c1.5,0.1,3.4-1.6,3.4-1.6c0,1.4,1,1.6,1,1.6c2,0,3.6-2.1,3.6-2.1l-1.1,2h1.9l2-4c1.6-3.1,3.2-3.2,3.2-3.2c1.4-0.3-1.3,3.7-2.1,6
	c-0.3,1.3,0.9,1.2,0.9,1.2c1.7-0.1,3.6-1.6,3.6-1.6c-0.3,2,1.9,2.5,1.9,2.5c2.3,0.4,4.4-3.2,4.4-3.2l-0.7-0.1
	c-1.7,2.7-3.3,2.5-3.3,2.5c-0.9-0.5-0.3-1.7-0.3-1.7l2.8-6.2l0,0h1.6l0.3-0.8L115.9,40.1z M131.8,118.5c1.1-1,1.6-2.3,1.6-3.8
	c0-1.4-0.5-2.7-1.5-3.7c-1-1-2.3-1.5-3.7-1.5c-1.4,0-2.6,0.5-3.6,1.4c-1.1,1-1.7,2.3-1.7,3.8c0,1.5,0.5,2.7,1.5,3.7
	c1,1,2.3,1.5,3.7,1.5C129.5,120,130.7,119.5,131.8,118.5 M125,111.7c0.8-0.9,1.9-1.3,3.1-1.3c1.2,0,2.2,0.4,3.1,1.3
	c0.8,0.8,1.3,1.9,1.3,3c0,1.2-0.4,2.2-1.3,3.1c-0.8,0.9-1.9,1.3-3,1.3c-1.2,0-2.2-0.4-3.1-1.3s-1.3-1.9-1.3-3.1
	C123.8,113.6,124.2,112.6,125,111.7 M127.3,117.7v-2.1h0.3l0.3,0c0.2,0,0.4,0.1,0.5,0.1c0.2,0.1,0.4,0.2,0.4,0.4
	c0.1,0.1,0.1,0.4,0.1,0.7s0.1,0.6,0.1,0.8h1.5l0-0.2c0-0.1,0-0.1,0-0.2c0-0.1,0-0.1,0-0.2v-0.5c0-0.6-0.2-1-0.5-1.3
	c-0.2-0.1-0.5-0.3-0.9-0.3c0.4,0,0.7-0.2,1-0.4c0.3-0.2,0.4-0.6,0.4-1.1c0-0.6-0.3-1.1-0.8-1.4c-0.3-0.2-0.7-0.3-1.1-0.3
	c-0.1,0-0.5,0-1.2,0c-0.7,0-1.3,0-1.6,0v5.8L127.3,117.7L127.3,117.7z M128.6,113c0.3,0.1,0.5,0.3,0.5,0.7c0,0.3-0.1,0.5-0.3,0.7
	c-0.2,0.1-0.5,0.2-0.8,0.2h-0.6v-1.7h0.4C128.1,112.9,128.4,112.9,128.6,113"/>
</svg>
