<?xml version="1.0" encoding="utf-8"?>
<!-- Generator: Adobe Illustrator 24.1.2, SVG Export Plug-In . SVG Version: 6.00 Build 0)  -->
<svg version="1.1" id="Capa_1" xmlns="http://www.w3.org/2000/svg" xmlns:xlink="http://www.w3.org/1999/xlink" x="0px" y="0px"
	 viewBox="0 0 279 120" style="enable-background:new 0 0 279 120;" xml:space="preserve">
<style type="text/css">
	.st0{fill:#FCF7F0;}
</style>
<g id="g10" transform="matrix(1.3333333,0,0,-1.3333333,-131.24306,468.77859)">
	<g id="g128" transform="matrix(0.66649535,0,0,0.66649535,32.827629,117.25488)">
		<path id="path38" class="st0" d="M122.5,301.5c-0.6,4.3-0.8,5.2-1.1,7.7c-1.5,0.5-5.3,1.4-7.8,1.4c-8.9,0-13.3-6.8-13.3-12.9
			c0-6.6,4.9-9.7,10.6-13c4.6-2.7,7-6.4,7.1-10.3c0.1-3.6-3.1-7.3-7.1-7.4c-5.1-0.1-7.5,4.1-9,7.9l-2.3-0.9c0.4-3.9,1.2-6.6,1.6-8.5
			c0.9-0.3,1.5-0.6,2.8-0.8c1.9-0.4,3-0.6,5.4-0.6c7.3,0,15.5,4.9,15.5,13.7c0,5.4-3.1,8-8.1,11.5c-5.7,3.7-9.9,6-10,10.7
			c-0.1,3.2,1.9,7.9,6,7.9c4.5,0,6.2-3.5,7.5-6.9L122.5,301.5z"/>
		<path id="path40" class="st0" d="M168.8,272.2v2.1c-2.2,0.4-3.5,0.1-5.9,3.2c-3.3,4.5-7.4,9.9-11.1,15.6c2.8,3.4,5.3,7,7.8,10.3
			c3,3.1,4.6,3.6,8.1,4.1v2.2h-13.4v-2.3l1.2-0.1c2.5-0.4,2.1-0.8,0.8-3.2c-1.9-2.8-4.1-6.2-7.1-9.8c-1.6-1.7-2.4-2.4-3.4-2.9v10.1
			c0,5,0.3,5.4,4.1,5.8v2.3h-14.9v-2.3c4-0.4,4.4-0.8,4.4-5.8v-25.4c0-5-0.5-4.5-4.2-5.4v-2.3l15.1,1.7v2.2
			c-4.2,0.1-4.5-0.6-4.5,5.4v11.2c0.8,0.1,1.2-0.5,2.4-2.1c4-6.1,7.9-11.6,10.7-15.6L168.8,272.2z"/>
		<path id="path42" class="st0" d="M207.5,309.8h-12.2v-2.3c4.1-0.5,3.9-0.7,2.9-3c-1.3-3.2-3.6-8.2-5.1-11.3
			c-2.1,3.9-3.9,7.8-5.8,11.7c-0.9,1.9-1.1,2.2,2.4,2.7v2.3h-14.2v-2.3c3.5-0.4,4-1.1,6-4.7c3-5.8,4.3-8.7,5.8-11.7
			c0.6-1.3,0.9-1.7,0.9-3v-6.3c0-4.6,0.4-5.5-4.9-5.9v-2.3l16.3,1v2.3c-5.1-0.2-4.9,0.4-4.9,5v7c0,1.5,0.3,2.1,1,3.5
			c2.5,4.9,3.7,7.1,5.8,11.3c1.9,3.1,2.8,3.4,6.1,3.8L207.5,309.8L207.5,309.8z"/>
		<path id="path44" class="st0" d="M216.8,309.8v-2.3c3.9-0.4,4.2-0.3,4.2-4.8v-20.3c0-3.9-0.6-4.1-4.6-4.6v-2.2l13.6,0.5
			c6.3,0.2,11.3,1.6,14.9,4.5c3.8,2.9,6.3,7.9,6.3,13.6c0,5.3-1.9,8.9-4.5,11.4c-3.2,3-8,4.4-14.7,4.4L216.8,309.8L216.8,309.8z
			 M227.5,304.1c0,1.7,0.2,2,0.6,2.4c0.4,0.4,1.6,0.7,3.6,0.6c4-0.2,5.2-1,7.1-2.3c3.1-2.4,4.9-5.9,4.9-11.9
			c0-9.1-5.4-14.3-11.8-14.4c-3.8-0.1-4.5,1.3-4.5,4.4L227.5,304.1z"/>
		<path id="path46" class="st0" d="M289.7,275.7v2.2c-3.3,0.4-3.8,1-5.5,5.4c-3.4,9.1-6.5,17.7-9.9,27.3l-2.7-0.7l-10.6-26.8
			c-1.8-4.3-2.2-4.1-5.5-4.6v-2.1l11.7-0.2v2.2c-3.8,0.5-3.9,0.8-3,3.6c0.6,2.1,1.3,3.7,1.9,5.6h9.6c0.9-2.5,1.6-4.7,2.2-6.5
			c0.8-2.2,0.3-2.4-2.6-2.9v-2.1L289.7,275.7z M274.8,290.6h-7.5l3.9,10.7L274.8,290.6z"/>
		<path id="path48" class="st0" d="M333.1,309.8h-12.8v-2.3c3.7-0.2,5-1,5-3.5c0.1-1.5,0.4-4,0.4-8.7v-10.7l-19.6,25.2H297v-2.2
			c2.3-0.2,3.5-0.6,4.5-1.9c0.9-1.2,0.9-2,0.9-5.6v-10.7c0-4.8-0.1-7.1-0.4-8.9c-0.2-2.4-1.3-3-4.3-3.1v-2.1l12.8-0.6v2.2
			c-4.2,0.5-4.7,0.9-4.9,4.5c-0.1,1.6-0.3,3.8-0.3,8.6v10.9l20.8-27.3l2.6-0.2l0,22.3c0,4.7,0.1,7.1,0.4,8.7c0.3,2.4,1.3,3,4.1,3.1
			L333.1,309.8z"/>
		<path id="path50" class="st0" d="M371,279.6c-2.2-4.2-4.7-7.1-9.2-7.1c-7,0-12.5,8.4-12.6,18.5c0,5.8,2.8,16.7,11.4,16.8
			c4.4,0.1,8-1.9,9.5-7.7l2.3,0.4c-0.3,3.1-0.7,5.6-1.2,8.5c-1.4,0.3-5,1.4-9.3,1.4c-11.6,0-20-7.9-20-20.1
			c0-9.7,7.2-20.7,20.3-20.7c3.6,0,6.7,0.4,8.1,0.7c1.2,2.6,2,5.3,2.9,8.2L371,279.6z"/>
		<path id="path52" class="st0" d="M409,272.9c-1.1-2.8-1.4-2.9-2.4-4.3c-1.3-1.7-3.6-1.2-6.9-0.8c-2.5,0.3-3.9,0.5-5.3,1.4
			c-1.2,0.8-1,4.1-1,7.2V287l4.9-0.3c4.5-0.3,5.4-0.2,5.9-4.3l2.3-0.1l0.2,10.6l-2.4,0.2c-0.5-3.9-1.4-3.6-5.9-3.3l-5,0.3v15
			c0,2.1-0.5,2,2.2,2h3.2c3.4,0,5.5,0,6.4-1.3c0.9-1.2,1.2-1.9,1.7-4.4l2.4,0.3c-0.2,3.8-0.5,6.8-0.6,8.1h-26v-2.3
			c4.4-0.4,4.1-0.4,4.1-6.2v-25.1c0-5.8,0.9-6.7-4.8-6.3v-2.2l27.3-4.1c0.5,1.9,1.5,5.9,1.9,8.5L409,272.9z"/>
		<path id="path96" class="st0" d="M257.1,269.9c-52.3,0-89.2-3.5-136.7-10.3c-3.9-0.5-8.1-1.4-11.5-2c2.3,0.3,6.5,1.1,9,1.4
			c53.1,6.8,86.1,8.9,139.2,8.9c52.4-0.5,83.9-2,135.5-8.9c2.4-0.3,6.5-1,8.8-1.4c-3.4,0.6-7.4,1.4-11.2,2
			C343.9,266.3,308.1,269.6,257.1,269.9L257.1,269.9z"/>
	</g>
</g>
</svg>
