<?xml version="1.0" encoding="utf-8"?>
<!-- Generator: Adobe Illustrator 24.1.2, SVG Export Plug-In . SVG Version: 6.00 Build 0)  -->
<svg version="1.1" id="Capa_1" xmlns="http://www.w3.org/2000/svg" xmlns:xlink="http://www.w3.org/1999/xlink" x="0px" y="0px"
	 viewBox="0 0 275.6 120" style="enable-background:new 0 0 275.6 120;" xml:space="preserve">
<style type="text/css">
	.st0{fill-rule:evenodd;clip-rule:evenodd;fill:#FCF7F0;}
</style>
<g>
	<path class="st0" d="M271.3,74.7c-0.9,0-1.7-0.3-2.5-1c-0.6-0.7-0.9-1.5-0.9-2.5c0-0.9,0.3-1.7,0.9-2.5c0.8-0.6,1.5-0.9,2.5-0.9
		s1.7,0.3,2.5,0.9c0.6,0.7,0.9,1.5,0.9,2.5c0,0.9-0.3,1.7-0.9,2.5C273,74.4,272.2,74.7,271.3,74.7L271.3,74.7z M271.3,75.6
		c-1.2,0-2.3-0.5-3-1.2c-1-0.8-1.4-1.9-1.4-3.1s0.4-2.3,1.4-3.1c0.7-0.9,1.8-1.4,3-1.4s2.3,0.5,3.1,1.4c0.7,0.8,1.2,1.9,1.2,3.1
		s-0.5,2.3-1.2,3.1C273.6,75.1,272.5,75.6,271.3,75.6L271.3,75.6z"/>
	<path class="st0" d="M273.1,70c-0.2-0.7-0.5-1.1-1.1-1.1h-2.3v4.6h0.8v-1.8h1.4l0.3,0.7c0,0.8,0.3,1.2,1.1,1.2V73
		c-0.2-0.2-0.3-0.5-0.3-1c0-0.4-0.2-0.7-0.5-0.9C273,71.1,273.3,70.8,273.1,70L273.1,70z M270.5,70.8v-1.2h0.9
		c0.5,0,0.8,0.2,0.8,0.6c0,0.5-0.2,0.6-0.6,0.6H270.5L270.5,70.8z"/>
	<path class="st0" d="M0,39.4h265.8v41.2H0V39.4L0,39.4z M57.7,40.8h206.7v19.8H57.7V40.8L57.7,40.8z M1.4,62h263v17.2H1.4V62
		L1.4,62z M1.4,40.8h54.7v19.8H1.4V40.8L1.4,40.8z M9.5,51.2c0.1,0,0.1,0,0.2,0c0.1,0,0.1,0,0.3,0c1,0,1.7-0.3,2.2-0.8
		s0.7-1.4,0.7-2.6c0-1-0.2-1.7-0.6-2.2c-0.4-0.4-1.1-0.7-2-0.7c-0.1,0-0.2,0-0.3,0s-0.2,0-0.4,0c0,0.1,0,0.2,0,0.3s0,0.4,0,0.7
		L9.5,51.2L9.5,51.2z M6.7,55.4v-8.7c0-0.7,0-1.1-0.1-1.3s-0.3-0.3-0.5-0.3H5.6c-0.3,0-0.4-0.2-0.4-0.4s0-0.3,0.1-0.3
		c0,0,0.1-0.1,0.3-0.1c0,0,0.1,0,0.3,0c0.8,0,1.6,0.1,2.4,0.1c0.5,0,1.2,0,2.1,0s1.4,0,1.8,0c1.5,0,2.5,0.3,3.1,0.8
		c0.6,0.5,0.8,1.4,0.8,2.8c0,1.6-0.4,2.7-1.2,3.4s-2.2,1-4.2,1c-0.2,0-0.4,0-0.6,0c-0.1,0-0.2,0-0.4,0v3.2c0,0.7,0.1,1.1,0.1,1.3
		c0.1,0.2,0.3,0.2,0.5,0.3H11c0.2,0,0.4,0.2,0.4,0.4s0,0.3-0.1,0.3c0,0-0.1,0.1-0.3,0.1c0,0-0.1,0-0.3,0c-0.8,0-1.7-0.1-2.6-0.1
		c-0.8,0-1.6,0-2.4,0.1c-0.1,0-0.2,0-0.3,0c-0.2,0-0.3,0-0.3-0.1c0,0-0.1-0.2-0.1-0.3c0-0.2,0.1-0.4,0.3-0.4c0,0,0,0,0.1,0h0.5
		c0.3,0,0.5-0.1,0.5-0.3c0.1-0.2,0.1-0.5,0.1-1.1v-0.4H6.7z M24,52.4h-0.5c-0.2,0-0.3,0-0.3-0.1c0,0-0.1-0.2-0.1-0.3
		c0-0.2,0-0.3,0.1-0.3s0.2-0.1,0.3-0.1c0,0,0.1,0,0.2,0c0.9,0,1.9,0.1,2.9,0.1c0.8,0,1.6,0,2.4-0.1c0.1,0,0.2,0,0.2,0
		c0.2,0,0.3,0,0.3,0.1c0,0,0.1,0.2,0.1,0.3c0,0.3-0.1,0.4-0.3,0.4c0,0,0,0-0.1,0h-0.3c-0.3,0-0.5,0.2-0.6,0.4s-0.2,0.7-0.2,1.4v0.1
		c0,0.3,0,0.5,0,0.8c0,0.5,0,1,0.1,1.5c0,0.1,0,0.2,0,0.2c0,0.1,0,0.2-0.1,0.3s-0.2,0.1-0.3,0.1l-0.4,0.1c-0.1,0-0.7,0.1-1.8,0.4
		c-1.1,0.3-2.1,0.4-3.1,0.4c-2.3,0-3.9-0.6-5-1.7c-1-1.1-1.6-2.9-1.6-5.2c0-2.5,0.6-4.3,1.7-5.5c1.1-1.1,2.9-1.7,5.4-1.7
		c0.8,0,1.6,0,2.3,0.1c0.7,0.1,1.4,0.2,2.1,0.4c0.1,0,0.2,0.1,0.2,0.1c0,0.1,0.1,0.2,0.1,0.3v2.7c0,0.1,0,0.2-0.1,0.2
		s-0.1,0.1-0.3,0.1H27c-0.3,0-0.5-0.2-0.5-0.7c0-0.1,0-0.2-0.1-0.3c-0.1-0.7-0.4-1.3-0.9-1.6s-1.2-0.5-2.2-0.5
		c-1.5,0-2.5,0.5-3.2,1.4c-0.6,0.9-1,2.5-1,4.7s0.3,3.9,0.9,4.8c0.6,1,1.6,1.5,3,1.5c0.9,0,1.5-0.1,1.8-0.4c0.4-0.3,0.6-0.7,0.6-1.3
		v-1.6c0-0.6-0.1-1-0.2-1.2C25,52.5,24.7,52.4,24,52.4L24,52.4z M30.4,53.8c-0.1,0-0.1,0-0.2,0v-0.1v-1.8c0-0.1,0-0.1,0-0.2h0.1h4.3
		c0.1,0,0.1,0,0.2,0c0,0,0,0.1,0,0.2v1.8c0,0.1,0,0.1,0,0.1h-0.1H30.4L30.4,53.8z M37.9,47.1l-1.6,1.1c-0.4,0.3-0.7,0.5-1,0.6
		C35,48.9,34.9,49,34.8,49c-0.1,0-0.1,0-0.2-0.1c0,0-0.1-0.1-0.1-0.2v-0.9c0-0.2,0.2-0.3,0.7-0.5s1-0.4,1.4-0.6
		c0.4-0.2,0.8-0.5,1.3-0.8c0.4-0.3,0.8-0.5,0.9-0.5h1.4c0.1,0,0.2,0,0.2,0.1c0,0,0,0.1,0,0.3V55c0,0.8,0.1,1.3,0.2,1.5
		c0.1,0.2,0.4,0.3,0.9,0.3H42h0.1c0.2,0,0.3,0.2,0.3,0.4s0,0.3-0.1,0.3s-0.2,0.1-0.3,0.1c0,0-0.1,0-0.3,0c-0.9,0-1.8-0.1-2.8-0.1
		s-2.1,0-3.1,0.1c-0.2,0-0.3,0-0.3,0c-0.2,0-0.3,0-0.4-0.1C35,57.4,35,57.3,35,57.2c0-0.2,0.1-0.4,0.4-0.4c0.1,0,0.1,0,0.2,0h0.5
		c0.6,0,1-0.2,1.1-0.4c0.2-0.2,0.3-0.7,0.3-1.3v-8H37.9z M48.5,51c0.8,0.2,1.5,0.6,1.9,1.1S51,53.2,51,54c0,1.3-0.4,2.2-1.1,2.9
		c-0.8,0.7-1.9,1-3.3,1c-1.3,0-2.3-0.2-3-0.7s-1-1.2-1-2.1c0-0.4,0.1-0.6,0.3-0.8s0.5-0.2,0.9-0.2c0.5,0,0.8,0.1,0.9,0.2
		c0.2,0.1,0.2,0.3,0.2,0.7c0,0.9,0.2,1.5,0.4,1.8s0.6,0.4,1.2,0.4c0.6,0,1-0.2,1.2-0.6c0.2-0.4,0.4-1.1,0.4-2c0-1.1-0.2-1.9-0.5-2.3
		c-0.3-0.4-0.9-0.6-1.7-0.6c-0.2,0-0.3,0-0.5,0s-0.3,0-0.3,0c-0.1,0-0.1,0-0.2-0.1c0,0-0.1-0.1-0.1-0.2V51c0-0.1,0-0.2,0.1-0.2
		c0,0,0.1-0.1,0.2-0.1c0,0,0,0,0.1,0c0.2,0,0.4,0,0.5,0c0.8,0,1.4-0.2,1.7-0.5c0.3-0.4,0.5-1,0.5-1.9c0-0.8-0.1-1.4-0.4-1.7
		c-0.2-0.4-0.6-0.5-1.1-0.5s-0.8,0.1-1,0.4c-0.2,0.3-0.4,0.8-0.5,1.5c0,0.3-0.1,0.6-0.3,0.7c-0.1,0.1-0.4,0.2-0.8,0.2
		c-0.4,0-0.6-0.1-0.8-0.2c-0.2-0.1-0.3-0.4-0.3-0.7c0-0.8,0.3-1.5,1-1.9s1.6-0.7,2.8-0.7c1.4,0,2.4,0.2,3.1,0.7c0.7,0.5,1,1.2,1,2.2
		c0,0.7-0.2,1.3-0.5,1.8C49.8,50.4,49.3,50.8,48.5,51L48.5,51z M62.7,50.6L62.7,50.6c0.1,0,0.2,0,0.3,0c0.4,0,0.8-0.1,1-0.3
		c0.2-0.2,0.3-0.5,0.3-1c0-0.4-0.1-0.7-0.3-0.8c-0.2-0.2-0.6-0.3-1-0.3h-0.2L62.7,50.6L62.7,50.6z M60.5,55.9v-9.5h2.2
		c0.8,0,1.4,0,1.8,0.1s0.7,0.2,1,0.3c0.3,0.2,0.6,0.5,0.8,0.9c0.2,0.4,0.3,0.9,0.3,1.5c0,1-0.3,1.7-0.8,2.2s-1.2,0.7-2.2,0.7h-0.8
		v3.6h-2.3V55.9z M69,52.4h1.3l-0.6-4.1L69,52.4L69,52.4z M66.3,55.9l2.1-9.5H71l2,9.5h-2.2l-0.3-1.8h-1.7l-0.3,1.8H66.3L66.3,55.9z
		 M76.1,50.4L76.1,50.4c0.2,0,0.2,0,0.2,0c0.5,0,0.8-0.1,1-0.3s0.3-0.5,0.3-0.9s-0.1-0.7-0.3-0.9c-0.2-0.2-0.5-0.3-1-0.3h-0.1
		c-0.1,0-0.1,0-0.1,0V50.4L76.1,50.4z M73.9,55.9v-9.5h2.5c0.8,0,1.4,0,1.8,0.1s0.7,0.2,0.9,0.4c0.3,0.2,0.5,0.5,0.6,0.8
		s0.2,0.7,0.2,1.2s-0.1,1-0.3,1.4c-0.2,0.4-0.5,0.7-0.9,0.9c0.7,0.3,1,1,1.1,2.2l0,0c0,0.1,0,0.3,0,0.5c0,1.1,0.2,1.7,0.5,2h-2.6
		c-0.1-0.2-0.1-0.4-0.1-0.6c0-0.2,0-0.4,0-0.7c0-0.2,0-0.3,0-0.6c0-0.2,0-0.4,0-0.4c0-0.6-0.1-1-0.2-1.2c-0.2-0.2-0.4-0.3-0.8-0.3
		h-0.5v3.8L73.9,55.9L73.9,55.9z M81.3,55.9v-9.5h5.1v1.8h-3v1.7h2.7V52h-2.7v2h3v1.9H81.3L81.3,55.9z M87.8,55.9v-9.5h2.3l1.8,5.8
		c-0.1-1-0.1-1.8-0.2-2.5c0-0.7-0.1-1.3-0.1-1.8v-1.5h2v9.5h-2.3l-1.9-6c0.1,0.8,0.1,1.5,0.2,2.3c0,0.7,0.1,1.4,0.1,2.1v1.6
		L87.8,55.9L87.8,55.9z M96.4,55.9v-7.6h-1.8v-1.8h5.9v1.8h-1.9v7.6H96.4L96.4,55.9z M101.1,52.7h2V53c0,0.5,0.1,0.9,0.2,1.1
		c0.1,0.2,0.3,0.3,0.6,0.3c0.2,0,0.4-0.1,0.6-0.2c0.1-0.2,0.2-0.4,0.2-0.7c0-0.5-0.3-0.9-1-1.3c-0.1-0.1-0.2-0.1-0.2-0.2
		c0,0-0.1,0-0.1-0.1c-0.9-0.6-1.4-1.1-1.7-1.4c-0.2-0.2-0.3-0.5-0.4-0.8s-0.1-0.6-0.1-0.9c0-0.8,0.2-1.5,0.7-1.9
		c0.5-0.5,1.1-0.7,2-0.7s1.6,0.2,2.1,0.7s0.7,1.1,0.7,2c0,0,0,0.1,0,0.2c0,0.1,0,0.1,0,0.2h-2v-0.1c0-0.4-0.1-0.7-0.2-0.9
		s-0.3-0.3-0.6-0.3c-0.2,0-0.4,0.1-0.5,0.2c-0.1,0.1-0.2,0.3-0.2,0.6c0,0.4,0.4,0.8,1.1,1.3c0.1,0.1,0.2,0.2,0.3,0.2
		c0.1,0,0.1,0.1,0.2,0.2c0.8,0.5,1.3,0.9,1.5,1.2c0.1,0.2,0.2,0.5,0.3,0.7c0.1,0.3,0.1,0.6,0.1,0.9c0,0.9-0.2,1.7-0.7,2.2
		s-1.2,0.8-2.1,0.8c-1,0-1.7-0.2-2.2-0.7s-0.7-1.2-0.7-2.2c0-0.1,0-0.1,0-0.2C101.1,53,101.1,52.9,101.1,52.7L101.1,52.7z
		 M111.1,52.7h2V53c0,0.5,0.1,0.9,0.2,1.1c0.1,0.2,0.3,0.3,0.6,0.3c0.2,0,0.4-0.1,0.6-0.2c0.1-0.2,0.2-0.4,0.2-0.7
		c0-0.5-0.3-0.9-1-1.3c-0.1-0.1-0.2-0.1-0.2-0.2c0,0-0.1,0-0.1-0.1c-0.9-0.6-1.4-1.1-1.7-1.4c-0.2-0.2-0.3-0.5-0.4-0.8
		s-0.1-0.6-0.1-0.9c0-0.8,0.2-1.5,0.7-1.9c0.5-0.5,1.1-0.7,2-0.7s1.6,0.2,2.1,0.7s0.7,1.1,0.7,2c0,0,0,0.1,0,0.2c0,0.1,0,0.1,0,0.2
		h-2v-0.1c0-0.4-0.1-0.7-0.2-0.9s-0.3-0.3-0.6-0.3c-0.2,0-0.4,0.1-0.5,0.2c-0.1,0.1-0.2,0.3-0.2,0.6c0,0.4,0.4,0.8,1.1,1.3
		c0.1,0.1,0.2,0.2,0.3,0.2c0.1,0,0.1,0.1,0.2,0.2c0.8,0.5,1.3,0.9,1.5,1.2c0.1,0.2,0.2,0.5,0.3,0.7c0.1,0.3,0.1,0.6,0.1,0.9
		c0,0.9-0.2,1.7-0.7,2.2s-1.2,0.8-2.1,0.8c-1,0-1.7-0.2-2.2-0.7s-0.7-1.2-0.7-2.2c0-0.1,0-0.1,0-0.2C111.1,53,111.1,52.9,111.1,52.7
		L111.1,52.7z M119.1,55.9v-7.6h-1.8v-1.8h5.9v1.8h-1.9v7.6H119.1L119.1,55.9z M126.3,50.4L126.3,50.4c0.2,0,0.2,0,0.2,0
		c0.5,0,0.8-0.1,1-0.3s0.3-0.5,0.3-0.9s-0.1-0.7-0.3-0.9c-0.2-0.2-0.5-0.3-1-0.3h-0.1c-0.1,0-0.1,0-0.1,0V50.4L126.3,50.4z
		 M124.1,55.9v-9.5h2.5c0.8,0,1.4,0,1.8,0.1s0.7,0.2,0.9,0.4c0.3,0.2,0.5,0.5,0.6,0.8s0.2,0.7,0.2,1.2s-0.1,1-0.3,1.4
		s-0.5,0.7-0.9,0.9c0.7,0.3,1,1,1.1,2.2l0,0c0,0.1,0,0.3,0,0.5c0,1.1,0.2,1.7,0.5,2h-2.6c-0.1-0.2-0.1-0.4-0.1-0.6
		c0-0.2,0-0.4,0-0.7c0-0.2,0-0.3,0-0.6c0-0.2,0-0.4,0-0.4c0-0.6-0.1-1-0.2-1.2c-0.2-0.2-0.4-0.3-0.8-0.3h-0.5v3.8L124.1,55.9
		L124.1,55.9z M135.4,52.1v-1.7c0-1-0.1-1.7-0.2-1.9c-0.1-0.3-0.4-0.4-0.7-0.4s-0.6,0.1-0.7,0.4c-0.1,0.3-0.2,0.9-0.2,1.9v1.7
		c0,1,0.1,1.7,0.2,1.9c0.1,0.3,0.4,0.4,0.7,0.4s0.6-0.1,0.7-0.4C135.3,53.7,135.4,53.1,135.4,52.1L135.4,52.1z M131.3,51.2
		c0-1.1,0-2,0.1-2.5s0.2-0.9,0.4-1.2c0.3-0.4,0.6-0.7,1.1-0.9c0.4-0.2,1-0.3,1.6-0.3s1.1,0.1,1.6,0.3c0.4,0.2,0.8,0.5,1.1,0.9
		c0.2,0.3,0.3,0.7,0.4,1.2c0.1,0.5,0.1,1.4,0.1,2.5s0,2-0.1,2.5s-0.2,0.9-0.4,1.2c-0.3,0.4-0.6,0.7-1.1,0.9c-0.4,0.2-1,0.3-1.6,0.3
		s-1.1-0.1-1.6-0.3c-0.4-0.2-0.8-0.5-1.1-0.9c-0.2-0.3-0.3-0.7-0.4-1.2C131.3,53.2,131.3,52.3,131.3,51.2L131.3,51.2z M139,55.9
		v-9.5h2.3l1.8,5.8c-0.1-1-0.1-1.8-0.2-2.5c0-0.7-0.1-1.3-0.1-1.8v-1.5h2v9.5h-2.3l-1.9-6c0.1,0.8,0.1,1.5,0.2,2.3
		c0,0.7,0.1,1.4,0.1,2.1v1.6L139,55.9L139,55.9z M152.2,50.8V56h-1.5l-0.1-0.6c-0.2,0.3-0.5,0.4-0.7,0.6c-0.3,0.1-0.6,0.2-0.9,0.2
		c-0.4,0-0.7-0.1-1.1-0.2c-0.3-0.1-0.6-0.3-0.8-0.6c-0.3-0.3-0.5-0.8-0.6-1.3c-0.1-0.6-0.2-1.5-0.2-2.8c0-1,0-1.7,0.1-2.3
		s0.2-1,0.4-1.3c0.3-0.4,0.6-0.7,1-0.9s0.9-0.3,1.5-0.3c0.9,0,1.6,0.3,2.1,0.8s0.7,1.3,0.7,2.3c0,0,0,0.1,0,0.2c0,0.1,0,0.1,0,0.2
		H150v-0.1c0-0.5-0.1-0.9-0.2-1.2c-0.1-0.2-0.3-0.4-0.6-0.4s-0.5,0.1-0.6,0.4c-0.1,0.3-0.2,1-0.2,2v0.9V52c0,1.1,0.1,1.7,0.2,2
		c0.1,0.3,0.3,0.4,0.6,0.4s0.5-0.1,0.7-0.4c0.1-0.2,0.2-0.6,0.2-1.2c0-0.1,0-0.2,0-0.3s0-0.1,0-0.2h-0.9v-1.7h3V50.8z M158.6,55.9
		h-4.9v-9.5h2.2V54h2.7V55.9L158.6,55.9z M159.8,55.9v-4l-2.2-5.5h2.4l0.9,3l0.9-3h2.4l-2.2,5.5v4H159.8L159.8,55.9z M172.2,52.3
		h2.2c0,0.1,0,0.1,0,0.2c0,0.1,0,0.2,0,0.3c0,1.2-0.3,2-0.8,2.6s-1.3,0.8-2.3,0.8c-0.6,0-1.1-0.1-1.6-0.3c-0.4-0.2-0.8-0.5-1.1-0.9
		c-0.2-0.3-0.3-0.7-0.4-1.2c-0.1-0.5-0.1-1.4-0.1-2.5s0-2,0.1-2.5s0.2-0.9,0.4-1.2c0.3-0.4,0.6-0.7,1.1-0.9c0.4-0.2,1-0.3,1.6-0.3
		c1,0,1.8,0.3,2.3,0.9c0.5,0.6,0.8,1.4,0.8,2.6V50h-2.2c0-0.6-0.1-1.1-0.2-1.4c-0.1-0.3-0.4-0.4-0.7-0.4c-0.4,0-0.6,0.2-0.7,0.5
		c-0.1,0.3-0.2,1.2-0.2,2.5v0.2c0,1.5,0.1,2.4,0.2,2.7c0.1,0.3,0.4,0.5,0.7,0.5s0.6-0.1,0.7-0.4c0.1-0.2,0.2-0.7,0.2-1.3V52.3
		L172.2,52.3z M177.9,52.4h1.3l-0.6-4.1L177.9,52.4L177.9,52.4z M175.2,55.9l2.1-9.5h2.6l2,9.5h-2.2l-0.3-1.8h-1.7l-0.3,1.8H175.2
		L175.2,55.9z M182.5,46.5h2.2v5.9c0,0.9,0.1,1.5,0.2,1.7c0.1,0.2,0.3,0.3,0.6,0.3s0.5-0.1,0.6-0.3s0.2-0.8,0.2-1.7v-5.9h2.2v6
		c0,0.7,0,1.2-0.1,1.5s-0.2,0.6-0.3,0.9c-0.2,0.4-0.6,0.7-1,0.9s-1,0.3-1.7,0.3c-0.6,0-1.1-0.1-1.5-0.3s-0.7-0.5-0.9-0.9
		c-0.2-0.3-0.3-0.7-0.4-1.1c-0.1-0.5-0.1-1.2-0.1-2.3V46.5L182.5,46.5z M191.2,55.9v-7.6h-1.8v-1.8h5.9v1.8h-1.9v7.6H191.2
		L191.2,55.9z M196.2,55.9v-9.5h2.2v9.5H196.2L196.2,55.9z M203.8,52.1v-1.7c0-1-0.1-1.7-0.2-1.9c-0.1-0.3-0.4-0.4-0.7-0.4
		s-0.6,0.1-0.7,0.4c-0.1,0.3-0.2,0.9-0.2,1.9v1.7c0,1,0.1,1.7,0.2,1.9c0.1,0.3,0.4,0.4,0.7,0.4s0.6-0.1,0.7-0.4
		C203.7,53.7,203.8,53.1,203.8,52.1L203.8,52.1z M199.7,51.2c0-1.1,0-2,0.1-2.5s0.2-0.9,0.4-1.2c0.3-0.4,0.6-0.7,1.1-0.9
		c0.4-0.2,1-0.3,1.6-0.3s1.1,0.1,1.6,0.3c0.4,0.2,0.8,0.5,1.1,0.9c0.2,0.3,0.3,0.7,0.4,1.2c0.1,0.5,0.1,1.4,0.1,2.5s0,2-0.1,2.5
		s-0.2,0.9-0.4,1.2c-0.3,0.4-0.6,0.7-1.1,0.9c-0.4,0.2-1,0.3-1.6,0.3s-1.1-0.1-1.6-0.3c-0.4-0.2-0.8-0.5-1.1-0.9
		c-0.2-0.3-0.3-0.7-0.4-1.2C199.8,53.2,199.7,52.3,199.7,51.2L199.7,51.2z M207.4,55.9v-9.5h2.3l1.8,5.8c-0.1-1-0.1-1.8-0.2-2.5
		c0-0.7-0.1-1.3-0.1-1.8v-1.5h2v9.5H211l-1.9-6c0.1,0.8,0.1,1.5,0.2,2.3c0,0.7,0.1,1.4,0.1,2.1v1.6L207.4,55.9L207.4,55.9z
		 M214.9,55.9v-9.5h5.1v1.8h-2.9v1.7h2.7V52h-2.7v2h2.9v1.9H214.9L214.9,55.9z M223.6,48.2v6h0.1c0,0,0.1,0,0.2,0
		c0.2,0,0.4,0,0.6-0.1c0.2-0.1,0.3-0.2,0.4-0.3c0.1-0.1,0.1-0.3,0.2-0.7c0-0.3,0-1,0-1.9v-0.4c0-0.8,0-1.3,0-1.6s-0.1-0.5-0.2-0.6
		c-0.1-0.1-0.2-0.2-0.4-0.3s-0.4-0.1-0.6-0.1c-0.1,0-0.1,0-0.2,0C223.7,48.2,223.6,48.2,223.6,48.2L223.6,48.2z M221.4,55.9v-9.5
		h2.4c0.9,0,1.6,0.1,2,0.2c0.4,0.2,0.8,0.4,1,0.8c0.2,0.3,0.3,0.7,0.4,1.1c0.1,0.5,0.1,1.3,0.1,2.6s0,2.1-0.1,2.6s-0.2,0.8-0.4,1.1
		c-0.3,0.4-0.6,0.6-1,0.8s-1.1,0.2-2,0.2h-2.4V55.9z"/>
	<path class="st0" d="M235.9,50.5c0-1.4,1.2-2.5,3.5-3.6c2.5-0.9,5.4-1.4,8.6-1.4c3.4,0,6.3,0.5,8.7,1.4c2.3,1.1,3.6,2.2,3.6,3.6
		c0,1.4-1.3,2.6-3.6,3.5c-2.5,1.1-5.4,1.5-8.7,1.5s-6.2-0.5-8.6-1.5C237.2,53.1,235.9,51.9,235.9,50.5L235.9,50.5z M235.1,50.5
		c0-1.7,1.3-3.1,3.7-4.2c2.6-1.1,5.7-1.7,9.2-1.7c3.7,0,6.8,0.6,9.2,1.7c2.6,1.1,3.8,2.5,3.8,4.2s-1.2,3-3.8,4.3
		c-2.5,1.1-5.5,1.7-9.2,1.7c-3.6,0-6.6-0.6-9.2-1.7C236.4,53.5,235.1,52.1,235.1,50.5L235.1,50.5z"/>
	<path class="st0" d="M238.4,50.5c0-1.7,0.9-3.1,2.9-4.2c1.8-1.1,4.2-1.7,6.8-1.7c2.8,0,5.1,0.6,6.9,1.7c2,1.1,2.9,2.5,2.9,4.2
		s-0.9,3-2.9,4.3c-1.9,1.1-4.2,1.7-6.9,1.7c-2.6,0-5-0.6-6.8-1.7C239.3,53.5,238.4,52.1,238.4,50.5L238.4,50.5z M239.2,50.5
		c0-1.4,0.9-2.5,2.6-3.6c1.7-0.9,3.8-1.4,6.3-1.4s4.6,0.5,6.4,1.4c1.7,1.1,2.5,2.2,2.5,3.6c0,1.4-0.7,2.6-2.5,3.5
		c-1.9,1.1-4,1.5-6.4,1.5c-2.5,0-4.6-0.5-6.3-1.5C240.1,53.1,239.2,51.9,239.2,50.5L239.2,50.5z"/>
	<polygon class="st0" points="253.9,50.9 260.4,50.9 260.4,50.2 253.9,50.2 	"/>
	<polygon class="st0" points="235.9,50.9 242.4,50.9 242.4,50.2 235.9,50.2 	"/>
	<path class="st0" d="M247.4,50.5c0-0.5,0.2-0.6,0.6-0.6c0.4,0,0.7,0.2,0.7,0.6c0,0.4-0.3,0.7-0.7,0.7S247.4,50.9,247.4,50.5
		L247.4,50.5z"/>
	<path class="st0" d="M251.4,48.6c0,0.7-0.4,1.2-1.4,1.2c-0.7,0-1.2-0.5-1.2-1.2s0.5-1.2,1.2-1.2C251,47.4,251.4,47.9,251.4,48.6
		L251.4,48.6z M248.1,44.6c1.7,0,3,0.6,4.2,1.7c1.2,1.2,1.8,2.6,1.8,4.2c0,1.7-0.6,3-1.8,4.3c-1.1,1.1-2.5,1.7-4.2,1.7
		s-3.1-0.6-4.2-1.7c-1.1-1.2-1.7-2.6-1.7-4.3s0.6-3.1,1.7-4.2C245.2,45.3,246.5,44.6,248.1,44.6L248.1,44.6z M249.2,46.6
		c-0.6-0.6-1.2-0.6-2,0l1,0.9L249.2,46.6L249.2,46.6z M248.1,45.5c1.4,0,2.6,0.5,3.5,1.4c1.1,1.1,1.5,2.2,1.5,3.6
		c0,1.4-0.5,2.6-1.5,3.5c-0.9,1.1-2.1,1.5-3.5,1.5s-2.5-0.5-3.6-1.5c-0.9-0.9-1.4-2.1-1.4-3.5s0.5-2.5,1.4-3.6
		C245.6,46,246.7,45.5,248.1,45.5L248.1,45.5z M247.4,48.6c0,0.7-0.4,1.2-1.4,1.2c-0.7,0-1.2-0.5-1.2-1.2s0.5-1.2,1.2-1.2
		C247,47.4,247.4,47.9,247.4,48.6L247.4,48.6z M247.4,52.6c0,0.7-0.4,1.2-1.2,1.2c-0.9,0-1.4-0.5-1.4-1.2c0-0.9,0.5-1.4,1.4-1.4
		C247,51.2,247.4,51.7,247.4,52.6L247.4,52.6z M245.2,50.5l-0.9,1.1c-0.6-0.6-0.6-1.2,0-2L245.2,50.5L245.2,50.5z M248.1,53.5l-1,1
		c0.6,0.4,1.3,0.4,1.9,0L248.1,53.5L248.1,53.5z M250.1,53.8c-0.9,0-1.4-0.5-1.4-1.4c0-0.7,0.5-1.2,1.4-1.2c0.8,0,1.2,0.5,1.2,1.2
		C251.3,53.4,250.9,53.8,250.1,53.8L250.1,53.8z M251.1,50.5l1,1.1c0.6-0.6,0.6-1.2,0-2L251.1,50.5L251.1,50.5z"/>
	<path class="st0" d="M5,71.7h1.7v0.2c0,0.4,0.1,0.7,0.2,0.9C7,73,7.2,73.1,7.4,73.1s0.3-0.1,0.5-0.2c0-0.1,0.1-0.3,0.1-0.6
		c0-0.4-0.3-0.8-0.8-1.1c-0.1,0-0.2-0.1-0.2-0.1s0,0-0.1-0.1c-0.7-0.5-1.2-0.9-1.4-1.1c-0.1-0.2-0.2-0.4-0.3-0.6
		c-0.1-0.2-0.1-0.5-0.1-0.8c0-0.7,0.2-1.2,0.6-1.6s1-0.6,1.7-0.6c0.8,0,1.3,0.2,1.8,0.6c0.4,0.4,0.6,0.9,0.6,1.7v0.1
		c0,0.1,0,0.1,0,0.1H8v-0.1c0-0.3-0.1-0.6-0.2-0.8c-0.1-0.2-0.3-0.3-0.5-0.3S7,67.7,6.9,67.8s-0.2,0.3-0.2,0.5
		c0,0.3,0.3,0.7,0.9,1.1c0.1,0.1,0.2,0.1,0.2,0.2c0.1,0,0.1,0.1,0.2,0.1c0.6,0.4,1.1,0.8,1.2,1c0.1,0.2,0.2,0.4,0.3,0.6
		s0.1,0.5,0.1,0.8c0,0.8-0.2,1.4-0.6,1.8c-0.4,0.4-1,0.6-1.8,0.6s-1.4-0.2-1.8-0.6s-0.6-1-0.6-1.8c0,0,0-0.1,0-0.2
		C5,71.9,5,71.8,5,71.7L5,71.7z M12.2,71.4c0,0.8,0,1.4,0.1,1.6s0.2,0.3,0.4,0.3s0.3-0.1,0.4-0.3c0.1-0.2,0.1-0.7,0.1-1.6
		s0-1.4-0.1-1.6s-0.2-0.3-0.4-0.3s-0.3,0.1-0.4,0.3C12.2,70,12.2,70.6,12.2,71.4L12.2,71.4z M10.5,71.4c0-1.2,0.2-2,0.5-2.4
		c0.3-0.5,0.9-0.7,1.7-0.7s1.4,0.2,1.7,0.7s0.5,1.3,0.5,2.4c0,1.2-0.2,2-0.5,2.4c-0.3,0.5-0.9,0.7-1.7,0.7s-1.4-0.2-1.7-0.7
		C10.7,73.4,10.5,72.6,10.5,71.4L10.5,71.4z M15.9,74.4v-6h1.5v0.7c0.2-0.3,0.4-0.5,0.6-0.6s0.5-0.2,0.8-0.2s0.5,0.1,0.7,0.2
		s0.3,0.3,0.5,0.6c0.2-0.3,0.4-0.5,0.6-0.6s0.5-0.2,0.8-0.2c0.4,0,0.8,0.2,1,0.5s0.3,0.8,0.3,1.5v4.2H21v-3.8c0-0.4,0-0.7-0.1-0.8
		c-0.1-0.1-0.2-0.2-0.3-0.2c-0.2,0-0.3,0.1-0.4,0.3c-0.1,0.2-0.2,0.4-0.2,0.8v3.7h-1.6v-3.8c0-0.4,0-0.7-0.1-0.8
		c-0.1-0.1-0.2-0.2-0.3-0.2c-0.2,0-0.3,0.1-0.4,0.3c-0.1,0.2-0.2,0.4-0.2,0.8v3.7L15.9,74.4L15.9,74.4z M26.3,72.3h1.6v0.2
		c0,0.7-0.2,1.2-0.5,1.6c-0.4,0.4-0.9,0.5-1.6,0.5c-0.4,0-0.7-0.1-1-0.2s-0.5-0.2-0.7-0.4c-0.2-0.2-0.3-0.5-0.4-0.8
		s-0.1-0.9-0.1-1.7c0-0.8,0-1.4,0.1-1.8c0.1-0.3,0.2-0.6,0.4-0.8c0.2-0.2,0.4-0.4,0.7-0.5c0.3-0.1,0.6-0.2,1-0.2s0.7,0.1,1,0.2
		s0.5,0.3,0.7,0.5s0.3,0.4,0.3,0.7c0.1,0.3,0.1,0.7,0.1,1.3v0.7h-2.7c0,0,0,0,0,0.1c0,0.2,0,0.4,0,0.5c0,0.4,0,0.7,0.1,0.9
		c0.1,0.2,0.2,0.2,0.5,0.2c0.2,0,0.3-0.1,0.4-0.2s0.1-0.3,0.1-0.6C26.3,72.5,26.3,72.4,26.3,72.3L26.3,72.3L26.3,72.3z M25.2,70.6
		h1.1l0,0c0-0.1,0-0.3,0-0.3c0-0.3,0-0.5-0.1-0.6s-0.2-0.2-0.4-0.2c-0.2,0-0.3,0.1-0.4,0.2s-0.1,0.4-0.1,0.7c0,0.1,0,0.1,0,0.2
		C25.2,70.5,25.2,70.5,25.2,70.6L25.2,70.6z M31.7,74.4v-6h1.5v0.7c0.2-0.3,0.4-0.5,0.6-0.6c0.2-0.1,0.5-0.2,0.8-0.2
		s0.5,0.1,0.7,0.2s0.3,0.3,0.5,0.6c0.2-0.3,0.4-0.5,0.6-0.6c0.2-0.1,0.5-0.2,0.8-0.2c0.4,0,0.8,0.2,1,0.5s0.3,0.8,0.3,1.5v4.2h-1.6
		v-3.8c0-0.4,0-0.7-0.1-0.8c-0.1-0.1-0.2-0.2-0.3-0.2c-0.2,0-0.3,0.1-0.4,0.3C36,70.2,36,70.4,36,70.8v3.7h-1.6v-3.8
		c0-0.4,0-0.7-0.1-0.8c-0.1-0.1-0.2-0.2-0.3-0.2c-0.2,0-0.3,0.1-0.4,0.3c-0.1,0.2-0.2,0.4-0.2,0.8v3.7L31.7,74.4L31.7,74.4z
		 M42.1,71.5c-0.4,0.1-0.7,0.3-0.9,0.4c-0.2,0.2-0.3,0.4-0.3,0.7c0,0.2,0,0.3,0.1,0.5c0.1,0.1,0.2,0.2,0.4,0.2s0.4-0.1,0.5-0.2
		c0.1-0.2,0.2-0.4,0.2-0.8V71.5L42.1,71.5z M42.3,74.4l-0.1-0.5c-0.2,0.2-0.4,0.4-0.7,0.5c-0.2,0.1-0.5,0.2-0.8,0.2
		c-0.5,0-0.8-0.2-1.1-0.5s-0.4-0.7-0.4-1.2c0-0.4,0.1-0.8,0.3-1.1c0.2-0.3,0.6-0.5,1.1-0.8c0.1,0,0.3-0.1,0.5-0.2
		c0.6-0.2,0.9-0.5,0.9-0.8c0-0.2,0-0.3-0.1-0.4s-0.2-0.1-0.4-0.1s-0.4,0.1-0.4,0.2C41,69.8,41,69.9,41,70.2l0,0h-1.7
		c0-0.7,0.2-1.2,0.6-1.5c0.4-0.3,0.9-0.5,1.7-0.5c0.3,0,0.7,0,0.9,0.1c0.3,0.1,0.5,0.2,0.7,0.3c0.2,0.2,0.4,0.3,0.5,0.6
		c0.1,0.2,0.1,0.6,0.1,1.2v0.2v2.1c0,0.5,0,0.8,0,1.1c0,0.2,0.1,0.4,0.2,0.6L42.3,74.4L42.3,74.4z M47.6,74.3
		c-0.2,0-0.4,0.1-0.5,0.1c-0.2,0-0.3,0-0.4,0c-0.3,0-0.6-0.1-0.8-0.2s-0.4-0.3-0.5-0.5c-0.1-0.1-0.1-0.3-0.2-0.5c0-0.2,0-0.5,0-1
		v-0.7v-2h-0.6v-1.2h0.6v-1.6h1.7v1.6h0.8v1.2h-0.8v2.4c0,0.5,0,0.8,0.1,1c0.1,0.1,0.2,0.2,0.4,0.2c0,0,0.1,0,0.2,0c0,0,0,0,0.1,0
		L47.6,74.3L47.6,74.3z M51,72.3h1.6v0.2c0,0.7-0.2,1.2-0.5,1.6c-0.4,0.4-0.9,0.5-1.6,0.5c-0.4,0-0.7-0.1-1-0.2S49,74.2,48.8,74
		c-0.2-0.2-0.3-0.5-0.4-0.8c-0.1-0.3-0.1-0.9-0.1-1.7c0-0.8,0-1.4,0.1-1.8c0.1-0.3,0.2-0.6,0.4-0.8c0.2-0.2,0.4-0.4,0.7-0.5
		s0.6-0.2,1-0.2s0.7,0.1,1,0.2s0.5,0.3,0.7,0.5s0.3,0.4,0.3,0.7c0.1,0.3,0.1,0.7,0.1,1.3v0.7h-2.7c0,0,0,0,0,0.1c0,0.2,0,0.4,0,0.5
		c0,0.4,0,0.7,0.1,0.9c0.1,0.2,0.2,0.2,0.5,0.2c0.2,0,0.3-0.1,0.4-0.2C51,73,51,72.8,51,72.5C51.1,72.5,51.1,72.4,51,72.3L51,72.3
		L51,72.3z M50,70.6h1.1l0,0c0-0.1,0-0.3,0-0.3c0-0.3,0-0.5-0.1-0.6s-0.2-0.2-0.4-0.2s-0.3,0.1-0.4,0.2c-0.2,0-0.2,0.2-0.2,0.6
		C50,70.4,50,70.4,50,70.6C50,70.5,50,70.5,50,70.6L50,70.6z M53.6,74.4v-6h1.5v0.8c0.2-0.3,0.4-0.5,0.6-0.7
		c0.2-0.2,0.5-0.2,0.7-0.3v1.9c-0.1,0-0.2,0-0.3,0s-0.2,0-0.2,0c-0.3,0-0.5,0.1-0.6,0.3c-0.1,0.2-0.2,0.6-0.2,1.1v2.9L53.6,74.4
		L53.6,74.4z M57.3,67.8v-1.4H59v1.4H57.3L57.3,67.8z M57.3,74.4v-6H59v6H57.3L57.3,74.4z M62.7,71.5c-0.4,0.1-0.7,0.3-0.9,0.4
		c-0.2,0.2-0.3,0.4-0.3,0.7c0,0.2,0,0.3,0.1,0.5c0.1,0.1,0.2,0.2,0.4,0.2s0.4-0.1,0.5-0.2c0.1-0.2,0.2-0.4,0.2-0.8V71.5L62.7,71.5z
		 M62.9,74.4l-0.1-0.5c-0.2,0.2-0.4,0.4-0.7,0.5c-0.2,0.1-0.5,0.2-0.8,0.2c-0.5,0-0.8-0.2-1.1-0.5s-0.4-0.7-0.4-1.2
		c0-0.4,0.1-0.8,0.3-1.1c0.2-0.3,0.6-0.5,1.1-0.8c0.1,0,0.3-0.1,0.5-0.2c0.6-0.2,0.9-0.5,0.9-0.8c0-0.2,0-0.3-0.1-0.4
		s-0.2-0.1-0.4-0.1s-0.4,0.1-0.5,0.2s-0.1,0.3-0.1,0.6l0,0H60c0-0.7,0.2-1.2,0.6-1.5c0.4-0.3,0.9-0.5,1.7-0.5c0.3,0,0.7,0,0.9,0.1
		c0.3,0.1,0.5,0.2,0.7,0.3c0.2,0.2,0.4,0.3,0.5,0.6c0.1,0.2,0.1,0.6,0.1,1.2v0.2v2.1c0,0.5,0,0.8,0,1.1c0,0.2,0.1,0.4,0.2,0.6
		L62.9,74.4L62.9,74.4z M67.2,74.4h-1.6v-7.9h1.6V74.4L67.2,74.4z M71.2,74.4v-6h1.5v0.7c0.2-0.3,0.4-0.5,0.6-0.6s0.5-0.2,0.8-0.2
		s0.5,0.1,0.7,0.2s0.4,0.3,0.5,0.6c0.2-0.3,0.4-0.5,0.6-0.6s0.5-0.2,0.8-0.2c0.4,0,0.8,0.2,1,0.5s0.3,0.8,0.3,1.5v4.2h-1.6v-3.8
		c0-0.4,0-0.7-0.1-0.8c-0.1-0.1-0.2-0.2-0.3-0.2c-0.2,0-0.3,0.1-0.4,0.3c-0.1,0.2-0.2,0.4-0.2,0.8v3.7h-1.6v-3.8
		c0-0.4,0-0.7-0.1-0.8c-0.1-0.1-0.2-0.2-0.3-0.2c-0.2,0-0.3,0.1-0.4,0.3c-0.1,0.2-0.2,0.4-0.2,0.8v3.7L71.2,74.4L71.2,74.4z
		 M81.6,71.5c-0.4,0.1-0.7,0.3-0.9,0.4c-0.2,0.2-0.3,0.4-0.3,0.7c0,0.2,0,0.3,0.1,0.5c0.1,0.1,0.2,0.2,0.4,0.2
		c0.2,0,0.4-0.1,0.5-0.2c0.1-0.2,0.2-0.4,0.2-0.8L81.6,71.5L81.6,71.5z M81.8,74.4l-0.1-0.5c-0.2,0.2-0.4,0.4-0.7,0.5
		c-0.2,0.1-0.5,0.2-0.8,0.2c-0.5,0-0.8-0.2-1.1-0.5c-0.3-0.3-0.4-0.7-0.4-1.2c0-0.4,0.1-0.8,0.3-1.1c0.2-0.3,0.6-0.5,1.1-0.8
		c0.1,0,0.3-0.1,0.5-0.2c0.6-0.2,0.9-0.5,0.9-0.8c0-0.2,0-0.3-0.1-0.4s-0.2-0.1-0.4-0.1c-0.2,0-0.4,0.1-0.5,0.2s-0.1,0.3-0.1,0.6
		l0,0h-1.7c0-0.7,0.2-1.2,0.6-1.5s0.9-0.5,1.7-0.5c0.3,0,0.7,0,0.9,0.1c0.3,0.1,0.5,0.2,0.7,0.3c0.2,0.2,0.4,0.3,0.5,0.6
		c0.1,0.2,0.1,0.6,0.1,1.2v0.2v2.1c0,0.5,0,0.8,0,1.1c0,0.2,0.1,0.4,0.2,0.6L81.8,74.4L81.8,74.4z M83.9,68.4h1.6l0.6,3.8l0.6-3.8
		h1.6l-1.2,5.5c-0.2,1.1-0.5,1.7-0.8,2s-0.7,0.5-1.3,0.5c-0.1,0-0.2,0-0.3,0c-0.1,0-0.2,0-0.4,0v-1.2l0,0c0.1,0,0.2,0,0.3,0
		c0.2,0,0.3,0,0.4-0.1s0.1-0.2,0.1-0.3c0-0.1,0-0.3-0.1-0.6c0-0.1,0-0.2-0.1-0.3L83.9,68.4L83.9,68.4z M94,69.7
		c-0.2,0-0.3,0.1-0.4,0.3c-0.1,0.2-0.1,0.5-0.1,1c0,1,0,1.6,0.1,1.8c0.1,0.2,0.2,0.3,0.5,0.3c0.2,0,0.3-0.1,0.4-0.3
		c0.1-0.2,0.1-0.6,0.1-1.2v-0.2c0-0.8,0-1.4-0.1-1.6C94.4,69.8,94.2,69.7,94,69.7L94,69.7z M91.9,66.4h1.7V69
		c0.2-0.2,0.3-0.4,0.5-0.5s0.4-0.2,0.7-0.2c0.6,0,1,0.2,1.2,0.6s0.3,1.3,0.3,2.7c0,0.6,0,1.1-0.1,1.4c0,0.3-0.1,0.6-0.2,0.7
		c-0.1,0.3-0.3,0.5-0.5,0.6s-0.5,0.2-0.8,0.2s-0.5-0.1-0.8-0.2c-0.2-0.1-0.4-0.3-0.6-0.6v0.7h-1.5v-8H91.9z M99.9,72.3h1.6v0.2
		c0,0.7-0.2,1.2-0.5,1.6c-0.4,0.4-0.9,0.5-1.6,0.5c-0.4,0-0.7-0.1-1-0.2s-0.5-0.2-0.7-0.4c-0.2-0.2-0.3-0.5-0.4-0.8
		s-0.1-0.9-0.1-1.7c0-0.8,0-1.4,0.1-1.8c0.1-0.3,0.2-0.6,0.4-0.8c0.2-0.2,0.4-0.4,0.7-0.5c0.3-0.1,0.6-0.2,1-0.2s0.7,0.1,1,0.2
		s0.5,0.3,0.7,0.5s0.3,0.4,0.3,0.7c0.1,0.3,0.1,0.7,0.1,1.3v0.7h-2.7c0,0,0,0,0,0.1c0,0.2,0,0.4,0,0.5c0,0.4,0,0.7,0.1,0.9
		c0.1,0.2,0.2,0.2,0.5,0.2c0.2,0,0.3-0.1,0.4-0.2s0.1-0.3,0.1-0.6C99.9,72.5,99.9,72.4,99.9,72.3L99.9,72.3L99.9,72.3z M98.8,70.6
		h1.1l0,0c0-0.1,0-0.3,0-0.3c0-0.3,0-0.5-0.1-0.6s-0.2-0.2-0.4-0.2c-0.2,0-0.3,0.1-0.4,0.2s-0.1,0.4-0.1,0.7
		C98.9,70.5,98.9,70.5,98.8,70.6C98.8,70.5,98.8,70.5,98.8,70.6L98.8,70.6z M105.3,67.8v-1.4h1.7v1.4H105.3L105.3,67.8z M105.3,74.4
		v-6h1.7v6H105.3L105.3,74.4z M108.1,74.4v-6h1.6v0.7c0.2-0.3,0.4-0.5,0.6-0.6s0.5-0.2,0.8-0.2c0.5,0,0.8,0.2,1,0.5s0.3,0.8,0.3,1.5
		v4.2h-1.7v-3.7c0-0.5,0-0.8-0.1-0.9s-0.2-0.2-0.3-0.2c-0.2,0-0.3,0.1-0.4,0.3c-0.1,0.2-0.2,0.4-0.2,0.8v3.7h-1.6V74.4z M116.2,71.5
		c-0.4,0.1-0.7,0.3-0.9,0.4c-0.2,0.2-0.3,0.4-0.3,0.7c0,0.2,0,0.3,0.1,0.5c0.1,0.1,0.2,0.2,0.4,0.2c0.2,0,0.4-0.1,0.5-0.2
		c0.1-0.2,0.2-0.4,0.2-0.8L116.2,71.5L116.2,71.5z M116.4,74.4l-0.1-0.5c-0.2,0.2-0.4,0.4-0.7,0.5c-0.2,0.1-0.5,0.2-0.8,0.2
		c-0.5,0-0.8-0.2-1.1-0.5c-0.3-0.3-0.4-0.7-0.4-1.2c0-0.4,0.1-0.8,0.3-1.1c0.2-0.3,0.6-0.5,1.1-0.8c0.1,0,0.3-0.1,0.5-0.2
		c0.6-0.2,0.9-0.5,0.9-0.8c0-0.2,0-0.3-0.1-0.4s-0.2-0.1-0.4-0.1c-0.2,0-0.4,0.1-0.5,0.2S115,70,115,70.3l0,0h-1.7
		c0-0.7,0.2-1.2,0.6-1.5s0.9-0.5,1.7-0.5c0.3,0,0.6,0,0.9,0.1s0.5,0.2,0.7,0.3c0.2,0.2,0.4,0.3,0.5,0.6c0.1,0.2,0.1,0.6,0.1,1.2v0.2
		v2.1c0,0.5,0,0.8,0,1.1c0,0.2,0.1,0.4,0.2,0.6L116.4,74.4L116.4,74.4z M121.3,73.1c0.2,0,0.4-0.1,0.4-0.4c0.1-0.2,0.1-0.8,0.1-1.7
		c0-0.5,0-0.9-0.1-1.1s-0.2-0.3-0.4-0.3c-0.2,0-0.4,0.1-0.5,0.3c-0.1,0.2-0.1,0.8-0.1,1.8c0,0.5,0,0.9,0.1,1
		C120.9,73,121.1,73.1,121.3,73.1L121.3,73.1z M119.1,76.4v-8h1.5v0.7c0.2-0.3,0.3-0.5,0.6-0.6c0.2-0.1,0.5-0.2,0.8-0.2
		c0.2,0,0.4,0,0.6,0.1s0.3,0.2,0.5,0.4c0.1,0.2,0.3,0.4,0.3,0.7c0.1,0.3,0.1,0.9,0.1,1.7c0,1.4-0.1,2.2-0.3,2.7
		c-0.2,0.4-0.6,0.6-1.2,0.6c-0.3,0-0.5-0.1-0.7-0.2s-0.4-0.3-0.5-0.5v2.5h-1.7V76.4z M126.7,73.1c0.2,0,0.4-0.1,0.4-0.4
		c0.1-0.2,0.1-0.8,0.1-1.7c0-0.5,0-0.9-0.1-1.1s-0.2-0.3-0.4-0.3c-0.2,0-0.4,0.1-0.5,0.3c-0.1,0.2-0.1,0.8-0.1,1.8
		c0,0.5,0,0.9,0.1,1C126.3,73,126.5,73.1,126.7,73.1L126.7,73.1z M124.5,76.4v-8h1.5v0.7c0.2-0.3,0.3-0.5,0.6-0.6
		c0.2-0.1,0.5-0.2,0.8-0.2c0.2,0,0.4,0,0.6,0.1s0.4,0.2,0.5,0.4c0.1,0.2,0.3,0.4,0.3,0.7c0.1,0.3,0.1,0.9,0.1,1.7
		c0,1.4-0.1,2.2-0.3,2.7c-0.2,0.4-0.6,0.6-1.2,0.6c-0.3,0-0.5-0.1-0.7-0.2s-0.4-0.3-0.5-0.5v2.5h-1.7V76.4z M129.8,74.4v-6h1.5v0.8
		c0.2-0.3,0.4-0.5,0.6-0.7c0.2-0.2,0.5-0.2,0.7-0.3v1.9c-0.1,0-0.2,0-0.3,0s-0.2,0-0.2,0c-0.3,0-0.5,0.1-0.6,0.3
		c-0.1,0.2-0.2,0.6-0.2,1.1v2.9L129.8,74.4L129.8,74.4z M135,71.4c0,0.8,0,1.4,0.1,1.6s0.2,0.3,0.4,0.3s0.3-0.1,0.4-0.3
		c0.1-0.2,0.1-0.7,0.1-1.6s0-1.4-0.1-1.6s-0.2-0.3-0.4-0.3s-0.3,0.1-0.4,0.3C135.1,70,135,70.6,135,71.4L135,71.4z M133.3,71.4
		c0-1.2,0.2-2,0.5-2.4c0.3-0.5,0.9-0.7,1.7-0.7s1.4,0.2,1.7,0.7s0.5,1.3,0.5,2.4c0,1.2-0.2,2-0.5,2.4c-0.3,0.5-0.9,0.7-1.7,0.7
		s-1.4-0.2-1.7-0.7C133.5,73.4,133.3,72.6,133.3,71.4L133.3,71.4z M140.9,73.1c0.2,0,0.4-0.1,0.4-0.4c0.1-0.2,0.1-0.8,0.1-1.7
		c0-0.5,0-0.9-0.1-1.1s-0.2-0.3-0.4-0.3s-0.4,0.1-0.5,0.3c-0.1,0.2-0.1,0.8-0.1,1.8c0,0.5,0,0.9,0.1,1
		C140.6,73,140.7,73.1,140.9,73.1L140.9,73.1z M138.8,76.4v-8h1.5v0.7c0.2-0.3,0.3-0.5,0.6-0.6c0.2-0.1,0.5-0.2,0.8-0.2
		c0.2,0,0.4,0,0.6,0.1c0.2,0.1,0.4,0.2,0.5,0.4c0.1,0.2,0.3,0.4,0.3,0.7c0.1,0.3,0.1,0.9,0.1,1.7c0,1.4-0.1,2.2-0.3,2.7
		c-0.2,0.4-0.6,0.6-1.2,0.6c-0.3,0-0.5-0.1-0.7-0.2s-0.4-0.3-0.5-0.5v2.5h-1.7V76.4z M144.1,74.4v-6h1.5v0.8
		c0.2-0.3,0.4-0.5,0.6-0.7c0.2-0.2,0.5-0.2,0.7-0.3v1.9c-0.1,0-0.2,0-0.3,0s-0.2,0-0.2,0c-0.3,0-0.5,0.1-0.6,0.3
		c-0.1,0.2-0.2,0.6-0.2,1.1v2.9L144.1,74.4L144.1,74.4z M147.8,67.8v-1.4h1.7v1.4H147.8L147.8,67.8z M147.8,74.4v-6h1.7v6H147.8
		L147.8,74.4z M153.2,71.5c-0.4,0.1-0.7,0.3-0.9,0.4c-0.2,0.2-0.3,0.4-0.3,0.7c0,0.2,0,0.3,0.1,0.5c0.1,0.1,0.2,0.2,0.4,0.2
		s0.4-0.1,0.5-0.2c0.1-0.2,0.2-0.4,0.2-0.8V71.5L153.2,71.5z M153.4,74.4l-0.1-0.5c-0.2,0.2-0.4,0.4-0.7,0.5
		c-0.2,0.1-0.5,0.2-0.8,0.2c-0.5,0-0.8-0.2-1.1-0.5s-0.4-0.7-0.4-1.2c0-0.4,0.1-0.8,0.3-1.1c0.2-0.3,0.6-0.5,1.1-0.8
		c0.1,0,0.3-0.1,0.5-0.2c0.6-0.2,0.9-0.5,0.9-0.8c0-0.2,0-0.3-0.1-0.4s-0.2-0.1-0.4-0.1s-0.4,0.1-0.5,0.2S152,70,152,70.3l0,0h-1.7
		c0-0.7,0.2-1.2,0.6-1.5c0.4-0.3,0.9-0.5,1.7-0.5c0.3,0,0.6,0,0.9,0.1c0.3,0.1,0.5,0.2,0.7,0.3c0.2,0.2,0.4,0.3,0.5,0.6
		c0.1,0.2,0.1,0.6,0.1,1.2v0.2v2.1c0,0.5,0,0.8,0.1,1.1c0,0.2,0.1,0.4,0.2,0.6L153.4,74.4L153.4,74.4z M158.7,74.3
		c-0.2,0-0.4,0.1-0.5,0.1s-0.3,0-0.4,0c-0.3,0-0.6-0.1-0.8-0.2s-0.4-0.3-0.5-0.5c-0.1-0.1-0.1-0.3-0.2-0.5c0-0.2,0-0.5,0-1v-0.7v-2
		h-0.6v-1.2h0.6v-1.6h1.7v1.6h0.8v1.2H158v2.4c0,0.5,0,0.8,0.1,1c0.1,0.1,0.2,0.2,0.4,0.2c0,0,0.1,0,0.2,0c0,0,0,0,0.1,0v1.2H158.7z
		 M162.2,72.3h1.6v0.2c0,0.7-0.2,1.2-0.5,1.6c-0.4,0.4-0.9,0.5-1.6,0.5c-0.4,0-0.7-0.1-1-0.2s-0.5-0.2-0.7-0.4
		c-0.2-0.2-0.3-0.5-0.4-0.8c-0.1-0.3-0.1-0.9-0.1-1.7c0-0.8,0-1.4,0.1-1.8c0.1-0.3,0.2-0.6,0.4-0.8c0.2-0.2,0.4-0.4,0.7-0.5
		s0.6-0.2,1-0.2s0.7,0.1,1,0.2s0.5,0.3,0.7,0.5s0.3,0.4,0.3,0.7c0.1,0.3,0.1,0.7,0.1,1.3v0.7h-2.7c0,0,0,0,0,0.1c0,0.2,0,0.4,0,0.5
		c0,0.4,0,0.7,0.1,0.9c0.1,0.2,0.2,0.2,0.5,0.2c0.2,0,0.3-0.1,0.4-0.2c0.1-0.1,0.1-0.3,0.1-0.6C162.2,72.5,162.2,72.4,162.2,72.3
		L162.2,72.3L162.2,72.3z M161.1,70.6h1.1l0,0c0-0.1,0-0.3,0-0.3c0-0.3,0-0.5-0.1-0.6s-0.2-0.2-0.4-0.2s-0.3,0.1-0.4,0.2
		c-0.1,0.1-0.1,0.4-0.1,0.7c0,0.1,0,0.1,0,0.2C161.1,70.5,161.1,70.5,161.1,70.6L161.1,70.6z"/>
	<path class="st0" d="M167.9,74.4v-4.7h-0.7v-1.3h0.7c0,0,0-0.1,0-0.2s0-0.1,0-0.1c0-0.6,0.1-1.1,0.4-1.3c0.3-0.3,0.7-0.4,1.4-0.4
		c0.1,0,0.2,0,0.3,0s0.2,0,0.3,0v1.2c0,0,0,0-0.1,0h-0.1c-0.2,0-0.3,0-0.4,0.1c-0.1,0.1-0.1,0.2-0.1,0.4c0,0.1,0,0.1,0,0.1v0.1h0.7
		v1.3h-0.7v4.7h-1.7V74.4z M172.6,71.4c0,0.8,0,1.4,0.1,1.6s0.2,0.3,0.4,0.3s0.3-0.1,0.4-0.3c0.1-0.2,0.1-0.7,0.1-1.6s0-1.4-0.1-1.6
		s-0.2-0.3-0.4-0.3s-0.3,0.1-0.4,0.3C172.6,70,172.6,70.6,172.6,71.4L172.6,71.4z M170.9,71.4c0-1.2,0.2-2,0.5-2.4
		c0.3-0.5,0.9-0.7,1.7-0.7s1.4,0.2,1.7,0.7s0.5,1.3,0.5,2.4c0,1.2-0.2,2-0.5,2.4c-0.3,0.5-0.9,0.7-1.7,0.7s-1.4-0.2-1.7-0.7
		C171.1,73.4,170.9,72.6,170.9,71.4L170.9,71.4z M176.3,74.4v-6h1.5v0.8c0.2-0.3,0.4-0.5,0.6-0.7c0.2-0.2,0.5-0.2,0.7-0.3v1.9
		c-0.1,0-0.2,0-0.3,0s-0.2,0-0.2,0c-0.3,0-0.5,0.1-0.6,0.3c-0.1,0.2-0.2,0.6-0.2,1.1v2.9L176.3,74.4L176.3,74.4z M185.3,72h1.6v0.1
		v0.1c0,0.8-0.2,1.3-0.5,1.7c-0.4,0.4-0.9,0.6-1.6,0.6c-0.8,0-1.4-0.2-1.7-0.7s-0.5-1.3-0.5-2.4c0-1.2,0.2-2,0.5-2.4
		c0.3-0.5,0.9-0.7,1.7-0.7c0.7,0,1.3,0.2,1.6,0.6s0.5,1,0.5,1.7v0.1h-1.6v-0.2c0-0.4,0-0.6-0.1-0.8c-0.1-0.2-0.2-0.2-0.4-0.2
		s-0.4,0.1-0.4,0.3c-0.1,0.2-0.1,0.7-0.1,1.6c0,0.8,0,1.3,0.1,1.6c0.1,0.2,0.2,0.3,0.4,0.3s0.3-0.1,0.4-0.2c0.1-0.2,0.1-0.4,0.1-0.8
		v-0.1C185.3,72.1,185.3,72.1,185.3,72L185.3,72z M187.9,74.4v-7.9h1.7V69c0.1-0.3,0.3-0.4,0.5-0.6c0.2-0.1,0.5-0.2,0.8-0.2
		c0.5,0,0.8,0.2,1,0.5s0.3,0.8,0.3,1.5v4.2h-1.6v-3.7c0-0.5,0-0.8-0.1-0.9s-0.2-0.2-0.3-0.2c-0.2,0-0.3,0.1-0.4,0.3
		c-0.1,0.2-0.2,0.4-0.2,0.8v3.7L187.9,74.4L187.9,74.4z M193.3,67.8v-1.4h1.6v1.4H193.3L193.3,67.8z M193.3,74.4v-6h1.6v6H193.3
		L193.3,74.4z M197.7,74.4H196v-7.9h1.7V74.4L197.7,74.4z M201,69.7c-0.2,0-0.4,0.1-0.4,0.3c-0.1,0.2-0.1,0.7-0.1,1.4
		c0,0.8,0,1.3,0.1,1.4c0.1,0.2,0.2,0.3,0.4,0.3s0.4-0.1,0.5-0.3c0.1-0.2,0.1-0.8,0.1-1.8c0-0.5,0-0.9-0.1-1
		C201.3,69.8,201.2,69.7,201,69.7L201,69.7z M203.1,66.4v7.9h-1.5v-0.7c-0.2,0.3-0.4,0.5-0.6,0.6c-0.2,0.1-0.5,0.2-0.8,0.2
		c-0.2,0-0.4,0-0.6-0.1c-0.2-0.1-0.4-0.2-0.5-0.4c-0.1-0.2-0.3-0.4-0.3-0.7c-0.1-0.3-0.1-0.9-0.1-1.7c0-1.3,0.1-2.2,0.3-2.7
		c0.2-0.4,0.6-0.6,1.2-0.6c0.2,0,0.5,0.1,0.7,0.2s0.4,0.3,0.5,0.5v-2.5L203.1,66.4L203.1,66.4z M204.2,74.4v-6h1.5v0.8
		c0.2-0.3,0.4-0.5,0.6-0.7c0.2-0.2,0.5-0.2,0.7-0.3v1.9c-0.1,0-0.2,0-0.3,0s-0.2,0-0.2,0c-0.3,0-0.5,0.1-0.6,0.3
		c-0.1,0.2-0.2,0.6-0.2,1.1v2.9L204.2,74.4L204.2,74.4z M210.6,72.3h1.6v0.2c0,0.7-0.2,1.2-0.5,1.6c-0.4,0.4-0.9,0.5-1.6,0.5
		c-0.4,0-0.7-0.1-1-0.2s-0.5-0.2-0.7-0.4c-0.2-0.2-0.3-0.5-0.4-0.8c-0.1-0.3-0.1-0.9-0.1-1.7c0-0.8,0-1.4,0.1-1.8
		c0.1-0.3,0.2-0.6,0.4-0.8c0.2-0.2,0.4-0.4,0.7-0.5s0.6-0.2,1-0.2s0.7,0.1,1,0.2s0.5,0.3,0.7,0.5s0.3,0.4,0.3,0.7
		c0.1,0.3,0.1,0.7,0.1,1.3v0.7h-2.7c0,0,0,0,0,0.1c0,0.2,0,0.4,0,0.5c0,0.4,0,0.7,0.1,0.9c0.1,0.2,0.2,0.2,0.5,0.2
		c0.2,0,0.3-0.1,0.4-0.2c0.1-0.1,0.1-0.3,0.1-0.6C210.6,72.5,210.6,72.4,210.6,72.3L210.6,72.3L210.6,72.3z M209.5,70.6h1.1l0,0
		c0-0.1,0-0.3,0-0.3c0-0.3,0-0.5-0.1-0.6s-0.2-0.2-0.4-0.2s-0.3,0.1-0.4,0.2c-0.1,0.1-0.1,0.4-0.1,0.7c0,0.1,0,0.1,0,0.2
		C209.5,70.5,209.5,70.5,209.5,70.6L209.5,70.6z M213.2,74.4v-6h1.6v0.7c0.2-0.3,0.4-0.5,0.6-0.6c0.2-0.1,0.5-0.2,0.8-0.2
		c0.5,0,0.8,0.2,1,0.5s0.3,0.8,0.3,1.5v4.2h-1.7v-3.7c0-0.5,0-0.8-0.1-0.9s-0.2-0.2-0.3-0.2c-0.2,0-0.3,0.1-0.4,0.3
		c-0.1,0.2-0.2,0.4-0.2,0.8v3.7h-1.6V74.4z M225.7,68.4v6h-1.6v-0.7c-0.2,0.3-0.4,0.5-0.6,0.6c-0.2,0.1-0.5,0.2-0.8,0.2
		c-0.5,0-0.8-0.2-1-0.5s-0.3-0.8-0.3-1.5v-4.2h1.7V72c0,0.5,0,0.8,0.1,0.9s0.2,0.2,0.3,0.2c0.2,0,0.3-0.1,0.4-0.3
		c0.1-0.2,0.2-0.4,0.2-0.8v-3.7h1.6V68.4z M226.9,74.4v-6h1.6v0.7c0.2-0.3,0.4-0.5,0.6-0.6c0.2-0.1,0.5-0.2,0.8-0.2
		c0.5,0,0.8,0.2,1,0.5s0.3,0.8,0.3,1.5v4.2h-1.6v-3.7c0-0.5,0-0.8-0.1-0.9s-0.2-0.2-0.3-0.2c-0.2,0-0.3,0.1-0.4,0.3
		c-0.1,0.2-0.2,0.4-0.2,0.8v3.7h-1.7V74.4z M234.5,69.7c-0.2,0-0.4,0.1-0.4,0.3c-0.1,0.2-0.1,0.7-0.1,1.4c0,0.8,0,1.3,0.1,1.4
		c0.1,0.2,0.2,0.3,0.4,0.3s0.4-0.1,0.5-0.3c0-0.2,0-0.8,0-1.8c0-0.5,0-0.9-0.1-1C234.8,69.8,234.7,69.7,234.5,69.7L234.5,69.7z
		 M236.6,66.4v7.9h-1.5v-0.7c-0.2,0.3-0.4,0.5-0.6,0.6c-0.2,0.1-0.5,0.2-0.8,0.2c-0.2,0-0.4,0-0.6-0.1c-0.2-0.1-0.4-0.2-0.5-0.4
		c-0.1-0.2-0.3-0.4-0.3-0.7c-0.1-0.3-0.1-0.9-0.1-1.7c0-1.3,0.1-2.2,0.3-2.7c0.2-0.4,0.6-0.6,1.2-0.6c0.3,0,0.5,0.1,0.7,0.2
		s0.4,0.3,0.5,0.5v-2.5L236.6,66.4L236.6,66.4z M240.4,72.3h1.6v0.2c0,0.7-0.2,1.2-0.5,1.6c-0.4,0.4-0.9,0.5-1.6,0.5
		c-0.4,0-0.7-0.1-1-0.2s-0.5-0.2-0.7-0.4c-0.2-0.2-0.3-0.5-0.4-0.8c-0.1-0.3-0.1-0.9-0.1-1.7c0-0.8,0-1.4,0.1-1.8
		c0.1-0.3,0.2-0.6,0.4-0.8c0.2-0.2,0.4-0.4,0.7-0.5s0.6-0.2,1-0.2s0.7,0.1,1,0.2s0.5,0.3,0.7,0.5s0.3,0.4,0.3,0.7
		c0.1,0.3,0.1,0.7,0.1,1.3v0.7h-2.7c0,0,0,0,0,0.1c0,0.2,0,0.4,0,0.5c0,0.4,0,0.7,0.1,0.9c0.1,0.2,0.2,0.2,0.5,0.2
		c0.2,0,0.3-0.1,0.4-0.2c0.1-0.1,0.1-0.3,0.1-0.6C240.4,72.5,240.4,72.4,240.4,72.3L240.4,72.3L240.4,72.3z M239.3,70.6h1.1l0,0
		c0-0.1,0-0.3,0-0.3c0-0.3,0-0.5-0.1-0.6s-0.2-0.2-0.4-0.2s-0.3,0.1-0.4,0.2c-0.1,0.1-0.1,0.4-0.1,0.7c0,0.1,0,0.1,0,0.2
		C239.3,70.5,239.3,70.5,239.3,70.6L239.3,70.6z M243,74.4v-6h1.5v0.8c0.2-0.3,0.4-0.5,0.6-0.7c0.2-0.2,0.5-0.2,0.7-0.3v1.9
		c-0.1,0-0.2,0-0.3,0s-0.2,0-0.2,0c-0.3,0-0.5,0.1-0.6,0.3c-0.1,0.2-0.2,0.6-0.2,1.1v2.9L243,74.4L243,74.4z M251.2,74.4v-5.5h-1.6
		v-1.2h0.1c0.6,0,1-0.1,1.4-0.3c0.3-0.2,0.6-0.5,0.7-1h1.2v8H251.2L251.2,74.4z M255,71.7h1.6c0,0.5,0.1,0.9,0.2,1.1
		s0.3,0.3,0.5,0.3s0.4-0.1,0.5-0.3c0.1-0.2,0.2-0.5,0.2-0.9s-0.1-0.7-0.3-0.9c-0.2-0.2-0.5-0.3-1-0.3c-0.1,0-0.1,0-0.2,0h-0.1v-1.2
		h0.2c0.4,0,0.7-0.1,0.9-0.3c0.2-0.2,0.3-0.5,0.3-0.8s0-0.5-0.1-0.6s-0.2-0.2-0.4-0.2c-0.2,0-0.4,0.1-0.4,0.2
		c-0.1,0.2-0.1,0.5-0.2,0.9h-1.6v-0.1c0-0.7,0.2-1.3,0.6-1.8c0.4-0.4,1-0.6,1.7-0.6s1.2,0.2,1.6,0.6s0.6,0.9,0.6,1.4
		c0,0.4-0.1,0.7-0.3,1c-0.2,0.3-0.5,0.5-0.8,0.7c0.4,0.2,0.8,0.4,1,0.7c0.2,0.3,0.3,0.7,0.3,1.2c0,0.8-0.2,1.4-0.6,1.8
		s-1,0.6-1.8,0.6c-0.7,0-1.3-0.2-1.7-0.7c-0.4-0.4-0.6-1.1-0.6-1.9v-0.1C255,71.8,255,71.8,255,71.7L255,71.7z"/>
</g>
</svg>
