<?xml version="1.0" encoding="utf-8"?>
<!-- Generator: Adobe Illustrator 24.1.2, SVG Export Plug-In . SVG Version: 6.00 Build 0)  -->
<svg version="1.1" id="Capa_1" xmlns="http://www.w3.org/2000/svg" xmlns:xlink="http://www.w3.org/1999/xlink" x="0px" y="0px"
	 viewBox="0 0 275.6 120" style="enable-background:new 0 0 275.6 120;" xml:space="preserve">
<style type="text/css">
	.st0{fill:#FCF7F0;}
</style>
<path class="st0" d="M2.3,87.6c0.3,0,0.7,0,1,0c0.3,0,0.7-0.1,1.1-0.1c0.4,0,0.8-0.1,1.3-0.1c0.5,0,1,0,1.6,0c2.1,0,3.8,0.5,4.9,1.6
	c1.1,1.1,1.7,2.6,1.7,4.6c0,1.2-0.2,2.2-0.6,3.2c-0.4,1-0.9,1.8-1.7,2.5c-0.7,0.7-1.6,1.3-2.6,1.6c-1,0.4-2.2,0.6-3.4,0.6
	c-0.6,0-1.3,0-1.9-0.1s-1.3-0.1-2-0.1c-0.1,0-0.3,0-0.4,0c-0.2,0-0.3,0-0.5,0.1l-0.1-0.1c0.2-0.2,0.3-0.3,0.4-0.4s0.2-0.4,0.2-0.6
	s0.1-0.7,0.1-1.2s0-1.2,0-2.1V93c0-0.9,0-1.7,0-2.3s0-1.1,0-1.4s0-0.6-0.1-0.8s-0.1-0.3-0.1-0.3c0-0.1-0.2-0.2-0.3-0.2
	S0.4,87.9,0,87.8l0,0v-0.2l0.1,0c0.1,0,0.3,0,0.5,0s0.4,0,0.6,0c0.2,0,0.4,0,0.6,0C2,87.6,2.2,87.6,2.3,87.6z M2.6,94.6
	c0,1.5,0,2.8,0,3.7c0,0.9,0,1.6,0.1,2.1c0.5,0.1,1,0.2,1.6,0.2s1.3,0.1,1.9,0.1c0.9,0,1.8-0.1,2.6-0.4c0.8-0.3,1.4-0.7,2-1.2
	s1-1.2,1.3-1.9c0.3-0.8,0.5-1.7,0.5-2.7c0-1.1-0.1-2.1-0.5-2.9c-0.3-0.8-0.7-1.5-1.3-2s-1.3-0.9-2.1-1.1c-0.8-0.2-1.8-0.3-2.9-0.3
	c-0.4,0-0.9,0-1.4,0c-0.5,0-1,0.1-1.5,0.1c0,0.2-0.1,0.5-0.1,0.8c0,0.3-0.1,0.7-0.1,1.1s0,0.9,0,1.5c0,0.6,0,1.3,0,2.1L2.6,94.6z"/>
<path class="st0" d="M21.7,89.3c0.9,0,1.6,0.1,2.3,0.4s1.3,0.6,1.8,1.1c0.5,0.5,0.8,1,1.1,1.7s0.4,1.4,0.4,2.3
	c0,0.7-0.1,1.3-0.2,1.9s-0.4,1.2-0.6,1.7c-0.3,0.5-0.6,1-1,1.4s-0.9,0.8-1.4,1c-0.5,0.3-1.1,0.5-1.7,0.7s-1.2,0.3-1.9,0.3
	c-0.9,0-1.6-0.1-2.4-0.4s-1.3-0.7-1.8-1.2c-0.5-0.5-0.9-1.1-1.1-1.8c-0.3-0.7-0.4-1.5-0.4-2.4c0-1.4,0.3-2.5,0.9-3.5
	c0.6-0.9,1.4-1.7,2.4-2.2C19.2,89.6,20.4,89.3,21.7,89.3z M20.9,89.9c-0.8,0-1.5,0.1-2.1,0.4c-0.6,0.3-1.1,0.6-1.6,1.1s-0.8,1-1,1.7
	c-0.2,0.7-0.4,1.4-0.4,2.3c0,0.9,0.1,1.8,0.4,2.5s0.7,1.3,1.2,1.8c0.5,0.5,1.1,0.8,1.7,1.1c0.6,0.3,1.3,0.4,2,0.4
	c0.8,0,1.4-0.1,2-0.4c0.6-0.3,1.1-0.7,1.6-1.2s0.8-1.1,1-1.8s0.4-1.5,0.4-2.4c0-0.7-0.1-1.4-0.3-2.1c-0.2-0.7-0.5-1.2-1-1.7
	s-1-0.9-1.6-1.2C22.6,90,21.8,89.9,20.9,89.9z"/>
<path class="st0" d="M36.3,94.4c0-0.3,0-0.6,0-1c0-0.4,0-0.7,0-1.1c0-0.4,0-0.7,0-1c0-0.3,0-0.5,0-0.7c0-0.2-0.1-0.3-0.2-0.5
	c-0.1-0.1-0.4-0.2-0.8-0.2l0,0v-0.2l0,0c0.2,0,0.5,0,0.7,0c0.3,0,0.5,0,0.7,0c0.2,0,0.4,0,0.6,0c0.2,0,0.4,0,0.7,0l0,0v0.2l0,0
	c-0.4,0-0.7,0.2-0.8,0.4c-0.1,0.1-0.1,0.4-0.2,0.7s0,0.7,0,1.2v3c0,0.5,0,1,0,1.6s0,1.1,0,1.7s0,1.1,0,1.7s0,1,0,1.5l-0.2,0.1
	c-0.5-0.7-1.1-1.4-1.7-2.3c-0.6-0.8-1.3-1.7-1.9-2.6s-1.4-1.8-2-2.7s-1.4-1.8-2-2.6v5.1c0,0.3,0,0.6,0,1s0,0.8,0,1.1
	c0,0.4,0,0.7,0,1s0,0.5,0,0.7c0,0.2,0.1,0.4,0.2,0.5c0.1,0.1,0.4,0.2,0.8,0.2l0,0v0.2l0,0c-0.2,0-0.4,0-0.6,0c-0.3,0-0.5,0-0.7,0
	c-0.2,0-0.4,0-0.6,0c-0.2,0-0.4,0-0.6,0l0,0v-0.2l0,0c0.2,0,0.4-0.1,0.5-0.1c0.1-0.1,0.2-0.1,0.3-0.3c0.1-0.2,0.1-0.4,0.2-0.7
	s0-0.7,0-1.2v-3.1c0-0.5,0-0.9,0-1.3s0-0.8,0-1.1s0-0.7,0-1.1c0-0.4,0-0.8,0-1.2c0-0.1,0-0.3-0.1-0.4c-0.1-0.1-0.1-0.2-0.2-0.3
	c-0.1-0.1-0.2-0.2-0.3-0.3C27.7,90,27.5,90,27.3,90l0,0v-0.2l0,0c0.3,0,0.5,0,0.7,0c0.2,0,0.4,0,0.5,0c0.1,0,0.2,0,0.3,0
	s0.1,0,0.2,0c0.6,0.8,1.2,1.7,1.8,2.4c0.6,0.8,1.1,1.6,1.7,2.3c0.6,0.8,1.2,1.6,1.8,2.4s1.3,1.6,2,2.5L36.3,94.4L36.3,94.4z"/>
<path class="st0" d="M110.6,94.4c0-0.3,0-0.6,0-1c0-0.4,0-0.7,0-1.1c0-0.4,0-0.7,0-1c0-0.3,0-0.5-0.1-0.7c0-0.2-0.1-0.3-0.2-0.5
	c-0.1-0.1-0.4-0.2-0.8-0.2l0,0v-0.2l0,0c0.2,0,0.4,0,0.7,0c0.3,0,0.5,0,0.7,0c0.2,0,0.4,0,0.6,0c0.2,0,0.4,0,0.7,0l0,0v0.2l0,0
	c-0.4,0-0.7,0.2-0.8,0.4c-0.1,0.1-0.1,0.4-0.2,0.7s0,0.7,0,1.2v3c0,0.5,0,1,0,1.6s0,1.1,0,1.7s0,1.1,0,1.7s0,1,0,1.5l-0.2,0.1
	c-0.5-0.7-1.1-1.4-1.7-2.3s-1.3-1.7-1.9-2.6c-0.7-0.9-1.3-1.8-2-2.7s-1.4-1.8-2-2.6v5.1c0,0.3,0,0.6,0,1c0,0.4,0,0.8,0,1.1
	c0,0.4,0,0.7,0,1c0,0.3,0,0.5,0.1,0.7c0,0.2,0.1,0.4,0.2,0.5c0.1,0.1,0.4,0.2,0.8,0.2l0,0v0.2l0,0c-0.2,0-0.4,0-0.7,0
	c-0.3,0-0.5,0-0.7,0c-0.2,0-0.4,0-0.6,0c-0.2,0-0.4,0-0.7,0l0,0v-0.2l0,0c0.2,0,0.4-0.1,0.5-0.1c0.1-0.1,0.2-0.1,0.3-0.3
	c0.1-0.2,0.1-0.4,0.2-0.7c0-0.3,0-0.7,0-1.2v-3.1c0-0.5,0-0.9,0-1.3s0-0.8,0-1.1s0-0.7,0-1.1c0-0.4,0-0.8,0-1.2
	c0-0.1-0.1-0.3-0.1-0.4c-0.1-0.1-0.1-0.2-0.2-0.3c-0.1-0.1-0.2-0.2-0.3-0.3c-0.1-0.1-0.3-0.1-0.5-0.1l0,0v-0.2l0,0
	c0.3,0,0.5,0,0.7,0c0.2,0,0.4,0,0.6,0c0.1,0,0.2,0,0.3,0s0.2,0,0.2,0c0.6,0.8,1.2,1.7,1.8,2.4s1.1,1.6,1.7,2.3
	c0.6,0.8,1.2,1.6,1.8,2.4c0.6,0.8,1.3,1.6,2,2.5L110.6,94.4L110.6,94.4z"/>
<path class="st0" d="M49.1,97.7c0-0.4-0.1-0.8-0.2-1.2s-0.3-0.6-0.6-0.8c-0.3-0.2-0.6-0.4-0.9-0.6s-0.8-0.3-1.2-0.4l-0.6-0.1
	c-0.4-0.1-0.8-0.2-1.2-0.4c-0.4-0.2-0.8-0.4-1.1-0.6c-0.3-0.3-0.6-0.6-0.8-1c-0.2-0.4-0.3-0.9-0.3-1.4c0-0.6,0.1-1.2,0.4-1.7
	c0.3-0.5,0.6-0.9,1.1-1.3s1-0.6,1.5-0.8c0.6-0.2,1.2-0.3,1.8-0.3c0.8,0,1.4,0.1,1.8,0.3c0.4,0.2,0.7,0.4,0.8,0.6
	c-0.1,0.2-0.2,0.5-0.3,0.9c-0.1,0.3-0.2,0.7-0.2,1.1l-0.3,0.1l-0.1,0c0-0.3,0-0.7,0-0.9s-0.2-0.5-0.4-0.8s-0.5-0.4-0.8-0.5
	s-0.8-0.2-1.3-0.2c-0.4,0-0.7,0.1-1.1,0.2c-0.3,0.1-0.7,0.3-0.9,0.5c-0.3,0.2-0.5,0.5-0.7,0.9s-0.3,0.8-0.3,1.3
	c0,0.4,0.1,0.8,0.2,1.1c0.2,0.3,0.4,0.6,0.6,0.8c0.3,0.2,0.6,0.4,1,0.6c0.4,0.2,0.7,0.3,1.1,0.4l0.6,0.1c1.1,0.3,1.9,0.6,2.5,1.1
	s0.8,1.2,0.8,2.1c0,0.8-0.2,1.4-0.5,2s-0.7,1.1-1.2,1.5c-0.5,0.4-1.1,0.8-1.8,1s-1.4,0.3-2.1,0.3c-0.4,0-0.8,0-1.2-0.1
	c-0.3-0.1-0.6-0.2-0.9-0.3c-0.3-0.1-0.4-0.2-0.6-0.3c-0.1-0.1-0.2-0.2-0.2-0.2c0.1-0.2,0.2-0.4,0.3-0.8c0.1-0.4,0.2-0.9,0.3-1.4
	l0.4,0c0,0.4,0,0.8,0.1,1.1s0.2,0.6,0.4,0.8c0.2,0.2,0.5,0.4,0.8,0.5c0.3,0.1,0.8,0.2,1.3,0.2c0.4,0,0.8-0.1,1.3-0.1
	s0.8-0.3,1.2-0.5s0.6-0.6,0.8-1C49,98.8,49.1,98.3,49.1,97.7z"/>
<path class="st0" d="M54.5,95.4c0,1,0,1.8,0,2.5s0,1.2,0,1.6s0,0.7,0.1,0.9c0,0.2,0.1,0.3,0.1,0.4c0,0.1,0.1,0.2,0.3,0.2
	c0.1,0,0.4,0.1,0.7,0.1l0,0v0.2l0,0c-0.2,0-0.5,0-0.8,0c-0.3,0-0.6,0-0.9,0c-0.2,0-0.4,0-0.7,0c-0.3,0-0.6,0-0.9,0l0,0v-0.2l0,0
	c0.3,0,0.5-0.1,0.6-0.1c0.1,0,0.2-0.1,0.3-0.2c0-0.1,0.1-0.3,0.1-0.5c0-0.2,0-0.6,0.1-1s0-1,0-1.7s0-1.5,0-2.5v-0.8
	c0-0.8,0-1.4,0-1.9s0-0.9,0-1.2s0-0.5-0.1-0.7c0-0.1-0.1-0.2-0.1-0.3c-0.1-0.1-0.2-0.2-0.3-0.2c-0.1,0-0.3-0.1-0.6-0.1l0,0v-0.2l0,0
	c0.2,0,0.5,0,0.8,0c0.3,0,0.6,0,0.9,0c0.2,0,0.5,0,0.7,0c0.3,0,0.6,0,0.9,0l0,0v0.2l0,0c-0.3,0-0.5,0.1-0.6,0.1
	c-0.1,0-0.2,0.1-0.3,0.3c0,0.1-0.1,0.2-0.1,0.3c0,0.1,0,0.3,0,0.6c0,0.3,0,0.7,0,1.3c0,0.6,0,1.3,0,2.3L54.5,95.4L54.5,95.4z"/>
<path class="st0" d="M57.4,89.7c0.2,0,0.5,0,0.7,0c0.2,0,0.4,0,0.6,0c0.3,0,0.5,0,0.6-0.1l0.1,0.1c0.4,0.8,0.7,1.7,1.1,2.5
	c0.4,0.9,0.8,1.7,1.2,2.6c0.4,0.8,0.8,1.7,1.2,2.5c0.4,0.8,0.8,1.6,1.2,2.3c0.3-0.5,0.6-1.2,1-2s0.8-1.6,1.2-2.5s0.8-1.8,1.3-2.7
	s0.8-1.8,1.2-2.7c0.2,0,0.3,0,0.4,0c0.1,0,0.2,0,0.3,0c0.2,0,0.5,0,0.8,0c0.3,0,0.5,0,0.7,0l0.1,0v0.2l-0.1,0
	c-0.3,0-0.5,0.1-0.6,0.1c-0.1,0-0.2,0.1-0.3,0.3C70,90.4,70,90.4,70,90.5c0,0.1,0,0.2,0,0.3s0,0.3,0,0.6c0,0.3,0,0.7,0,1.1
	c0,0.4,0,0.9,0.1,1.4c0,0.5,0,1.1,0.1,1.6c0,0.6,0,1.1,0.1,1.6c0,0.5,0.1,1,0.1,1.5c0,0.4,0.1,0.8,0.1,1.2c0,0.3,0.1,0.6,0.1,0.7
	c0,0.2,0.1,0.3,0.3,0.3c0.1,0.1,0.4,0.1,0.7,0.1l0.1,0v0.2l-0.1,0c-0.2,0-0.5,0-0.8,0c-0.3,0-0.6,0-0.8,0c-0.2,0-0.4,0-0.7,0
	c-0.3,0-0.5,0-0.7,0l-0.1,0v-0.2l0.1,0c0.5,0,0.7-0.1,0.8-0.2c0.1-0.1,0.1-0.2,0.1-0.3c0-0.1,0-0.2,0-0.3c0-0.1,0-0.4,0-0.9
	c0-0.5,0-1.1,0-1.7s0-1.3-0.1-2.1c0-0.7,0-1.4-0.1-2.1c0-0.7,0-1.2-0.1-1.7c0-0.5,0-0.8,0-0.9h0c-0.4,0.9-0.9,1.8-1.3,2.7
	c-0.4,0.8-0.8,1.7-1.2,2.6s-0.8,1.8-1.3,2.6s-0.8,1.8-1.3,2.8h-0.1c-0.3-0.7-0.6-1.4-1-2.2c-0.4-0.8-0.8-1.6-1.2-2.5
	s-0.9-1.8-1.3-2.7c-0.5-0.9-0.9-1.8-1.4-2.7c0,0.5-0.1,1-0.1,1.6c0,0.6-0.1,1.2-0.1,1.8c0,0.6-0.1,1.2-0.1,1.8
	c0,0.6-0.1,1.2-0.1,1.7s0,0.9-0.1,1.3c0,0.4,0,0.6,0,0.8c0,0.1,0,0.2,0,0.3s0.1,0.2,0.1,0.3c0.1,0.1,0.2,0.2,0.3,0.2
	s0.3,0.1,0.6,0.1l0,0v0.2l0,0c0,0-0.1,0-0.3,0c-0.1,0-0.3,0-0.4,0c-0.2,0-0.3,0-0.5,0c-0.2,0-0.3,0-0.4,0c-0.2,0-0.4,0-0.7,0
	c-0.2,0-0.5,0-0.7,0l0,0v-0.2l0,0c0.3,0,0.5-0.1,0.6-0.1c0.1,0,0.2-0.1,0.3-0.2c0.1-0.2,0.2-0.4,0.2-0.6c0.1-0.3,0.1-0.7,0.2-1.2
	c0-0.5,0.1-1,0.1-1.6s0.1-1.2,0.2-1.8c0.1-0.6,0.1-1.2,0.2-1.8s0.1-1.2,0.1-1.7c0-0.3,0-0.5,0-0.7c0-0.2,0-0.3,0-0.4
	c0-0.3,0-0.4-0.2-0.5c-0.1-0.1-0.2-0.2-0.3-0.3S57.7,90,57.4,90l0,0L57.4,89.7L57.4,89.7z"/>
<path class="st0" d="M244.3,89.5c0.2,0,0.4,0,0.7,0c0.2,0,0.4,0,0.6,0c0.3,0,0.5,0,0.6-0.1l0.1,0.1c0.4,0.8,0.7,1.7,1.1,2.5
	c0.4,0.9,0.8,1.7,1.2,2.6c0.4,0.8,0.8,1.7,1.2,2.5s0.8,1.6,1.2,2.3c0.3-0.5,0.6-1.2,1-2s0.8-1.6,1.2-2.5c0.4-0.9,0.9-1.8,1.3-2.7
	c0.4-0.9,0.8-1.8,1.2-2.7c0.1,0,0.3,0,0.4,0c0.1,0,0.2,0,0.3,0c0.2,0,0.5,0,0.8,0c0.3,0,0.4,0,0.6,0l0,0v0.2l0,0
	c-0.3,0-0.3,0.1-0.4,0.1c-0.1,0-0.2,0.1-0.4,0.3c-0.1,0.1-0.1,0.2-0.1,0.3c0,0.1,0,0.2,0,0.3c0,0.1,0,0.3,0,0.6c0,0.3,0,0.7,0,1.1
	c0,0.4,0,0.9,0,1.4s0,1.1,0,1.6c0,0.6,0,1.1,0.1,1.6c0,0.5,0,1,0.1,1.5s0,0.8,0.1,1.2c0,0.3,0,0.6,0.1,0.7c0,0.2,0.1,0.3,0.3,0.3
	c0.1,0.1,0.4,0.1,0.7,0.1l0,0v0.2l0,0c-0.2,0-0.5,0-0.8,0c-0.3,0-0.6,0-0.8,0c-0.2,0-0.4,0-0.7,0c-0.3,0-0.5,0-0.7,0l-0.1,0V101
	l0.1,0c0.5,0,0.7-0.1,0.8-0.2c0.1-0.1,0.1-0.2,0.1-0.3s0-0.2,0-0.3c0-0.1,0-0.4,0-0.9c0-0.5,0-1.1,0-1.7s0-1.3-0.1-2.1
	c0-0.7,0-1.4-0.1-2.1c0-0.7,0-1.2-0.1-1.7s0-0.8,0-0.9h0c-0.4,0.9-0.9,1.8-1.3,2.7c-0.4,0.8-0.8,1.7-1.2,2.6
	c-0.4,0.9-0.8,1.8-1.3,2.6s-0.9,1.8-1.3,2.8h-0.1c-0.3-0.7-0.6-1.4-1-2.2c-0.4-0.8-0.8-1.6-1.2-2.5c-0.4-0.9-0.9-1.8-1.3-2.7
	s-0.9-1.8-1.4-2.7c0,0.5-0.1,1-0.1,1.6c0,0.6-0.1,1.2-0.1,1.8s-0.1,1.2-0.1,1.8c0,0.6-0.1,1.2-0.1,1.7s-0.1,0.9-0.1,1.3
	c0,0.4,0,0.6,0,0.8c0,0.1,0,0.2,0,0.3s0.1,0.2,0.1,0.3c0.1,0.1,0.2,0.2,0.4,0.2c0.1,0,0.3,0.1,0.6,0.1l0.1,0v0.2l-0.1,0
	c-0.1,0-0.1,0-0.3,0c-0.1,0-0.3,0-0.4,0c-0.1,0-0.3,0-0.5,0s-0.3,0-0.4,0c-0.2,0-0.4,0-0.7,0c-0.2,0-0.5,0-0.7,0l-0.1,0V101l0.1,0
	c0.3,0,0.5-0.1,0.6-0.1s0.2-0.1,0.3-0.2c0.1-0.2,0.1-0.4,0.2-0.6c0.1-0.3,0.1-0.7,0.1-1.2c0-0.5,0.1-1,0.1-1.6s0.1-1.2,0.2-1.8
	c0.1-0.6,0.1-1.2,0.2-1.8s0.1-1.2,0.1-1.7c0-0.3,0-0.5,0.1-0.7c0-0.2,0-0.3,0-0.4c0-0.3-0.1-0.4-0.1-0.5c-0.1-0.1-0.2-0.2-0.3-0.3
	s-0.3-0.1-0.6-0.1l-0.1,0L244.3,89.5L244.3,89.5z"/>
<path class="st0" d="M86.2,98.3c0-0.4-0.1-0.7-0.2-1c-0.1-0.3-0.3-0.5-0.5-0.7c-0.2-0.2-0.5-0.3-0.8-0.5c-0.3-0.1-0.6-0.2-1-0.3
	l-0.5-0.1c-0.3-0.1-0.7-0.2-1-0.3c-0.3-0.1-0.6-0.3-0.9-0.5c-0.3-0.2-0.5-0.5-0.7-0.8c-0.2-0.3-0.3-0.7-0.3-1.2c0-0.5,0.1-1,0.3-1.4
	s0.5-0.8,0.9-1.1c0.4-0.3,0.8-0.5,1.3-0.7c0.5-0.2,1-0.3,1.5-0.3c0.7,0,1.2,0.1,1.5,0.3s0.6,0.4,0.7,0.5c-0.1,0.2-0.2,0.5-0.3,0.8
	c-0.1,0.3-0.1,0.6-0.2,0.9L86,91.9l-0.1,0c0.1-0.3,0.1-0.5,0-0.8s-0.2-0.5-0.3-0.6c-0.2-0.2-0.4-0.3-0.7-0.4
	c-0.3-0.1-0.7-0.2-1.1-0.2c-0.3,0-0.6,0.1-0.9,0.2c-0.3,0.1-0.6,0.2-0.8,0.4s-0.4,0.4-0.6,0.8s-0.2,0.7-0.2,1.1
	c0,0.3,0.1,0.6,0.2,0.9c0.1,0.3,0.3,0.5,0.5,0.7s0.5,0.4,0.8,0.5s0.6,0.2,1,0.3l0.5,0.1c0.9,0.2,1.6,0.5,2.1,0.9s0.7,1,0.7,1.8
	c0,0.6-0.1,1.2-0.4,1.7c-0.3,0.5-0.6,0.9-1,1.3c-0.4,0.4-0.9,0.6-1.5,0.8c-0.6,0.2-1.2,0.3-1.8,0.3c-0.4,0-0.7,0-1-0.1
	c-0.3-0.1-0.5-0.2-0.8-0.3c-0.2-0.1-0.4-0.2-0.5-0.3c-0.1-0.1-0.2-0.2-0.2-0.2c0.1-0.1,0.2-0.4,0.3-0.7c0.1-0.4,0.2-0.8,0.2-1.2
	l0.3,0c0,0.3,0,0.6,0.1,0.9c0.1,0.3,0.2,0.5,0.3,0.7c0.2,0.2,0.4,0.3,0.7,0.4c0.3,0.1,0.7,0.1,1.1,0.1c0.4,0,0.7,0,1.1-0.1
	s0.7-0.2,1-0.4s0.5-0.5,0.7-0.8C86.1,99.3,86.2,98.8,86.2,98.3z"/>
<path class="st0" d="M95.3,89.3c0.9,0,1.6,0.1,2.3,0.4s1.3,0.6,1.8,1.1c0.5,0.5,0.8,1,1.1,1.7s0.4,1.4,0.4,2.3
	c0,0.7-0.1,1.3-0.2,1.9s-0.4,1.2-0.7,1.7s-0.6,1-1,1.4c-0.4,0.4-0.8,0.8-1.3,1c-0.5,0.3-1.1,0.5-1.7,0.7c-0.6,0.2-1.2,0.3-1.9,0.3
	c-0.9,0-1.7-0.1-2.3-0.4s-1.3-0.7-1.8-1.2c-0.5-0.5-0.9-1.1-1.1-1.8c-0.3-0.7-0.4-1.5-0.4-2.4c0-1.4,0.3-2.5,0.9-3.5
	c0.6-0.9,1.4-1.7,2.4-2.2C92.8,89.6,94,89.3,95.3,89.3z M94.5,89.9c-0.8,0-1.5,0.1-2.1,0.4c-0.6,0.3-1.2,0.6-1.6,1.1
	c-0.4,0.5-0.8,1-1,1.7c-0.2,0.7-0.3,1.4-0.3,2.3c0,0.9,0.2,1.8,0.4,2.5s0.7,1.3,1.2,1.8c0.5,0.5,1.1,0.8,1.7,1.1
	c0.6,0.3,1.3,0.4,2,0.4c0.8,0,1.4-0.1,2-0.4c0.6-0.3,1.1-0.7,1.6-1.2c0.4-0.5,0.8-1.1,1-1.8s0.4-1.5,0.4-2.4c0-0.7-0.1-1.4-0.3-2.1
	s-0.5-1.2-0.9-1.7s-1-0.9-1.6-1.2C96.2,90,95.4,89.9,94.5,89.9z"/>
<path class="st0" d="M111.8,102.9l10-16.5h1l-10,16.5H111.8L111.8,102.9z"/>
<path class="st0" d="M125.2,92.7c0-0.9,0-1.6,0-2.2c0-0.6,0-1-0.1-1.4c0-0.3-0.1-0.6-0.1-0.8c0-0.2-0.1-0.3-0.1-0.3
	c-0.1-0.1-0.2-0.2-0.3-0.2c-0.2-0.1-0.4-0.1-0.8-0.1l-0.1,0v-0.2l0.1,0c0.3,0,0.6,0,0.9,0c0.4,0,0.7,0,1,0c0.2,0,0.5,0,0.8,0
	c0.3,0,0.7,0,1,0l0.1,0v0.2l-0.1,0c-0.3,0-0.6,0.1-0.7,0.1c-0.1,0.1-0.3,0.2-0.3,0.3c0,0.1-0.1,0.2-0.1,0.3c0,0.1,0,0.3-0.1,0.7
	c0,0.3,0,0.8,0,1.5s0,1.6,0,2.7v0.7c0,0.4,0,0.8,0,1.3s0,0.9,0,1.4c0,0.4,0,0.9,0,1.3s0,0.7,0,1c0,0.8-0.1,1.4-0.3,2
	c-0.2,0.6-0.4,0.9-0.8,1.4c-0.3,0.4-0.8,0.7-1.3,0.8c-0.7,0.2-1.6,0-1.9-0.6c-0.1-0.2-0.1-0.4-0.1-0.4l0.1-0.1c0,0,0.3,0.6,1.4,0.5
	c0.5,0,0.8-0.3,1-0.7s0.4-0.9,0.5-1.5c0.1-0.6,0.1-1.3,0.1-2L125.2,92.7L125.2,92.7L125.2,92.7z"/>
<path class="st0" d="M131,98c0,0.5,0,0.9,0,1.3c0,0.4,0.1,0.7,0.1,0.9c0.2,0.1,0.7,0.1,1.4,0.1c0.9,0,1.6,0,2.2-0.1
	c0.6,0,0.9-0.1,1.1-0.2c0.1-0.1,0.2-0.2,0.3-0.4s0.1-0.4,0.1-0.8h0.1l0.2,0.1c0,0.3,0,0.7-0.1,1.1c-0.1,0.4-0.1,0.7-0.1,0.8
	c-0.1,0.1-0.3,0.1-0.5,0.1c-0.3,0-0.6,0-0.9,0c-0.3,0-0.6,0-0.9,0c-0.3,0-0.6,0-1,0c-0.3,0-0.7,0-1.1,0c-0.3,0-0.6,0-1,0
	c-0.4,0-0.8,0-1.3,0.1l-0.1-0.1c0.1-0.1,0.2-0.4,0.2-0.7c0.1-0.3,0.1-0.8,0.1-1.2s0.1-1,0.1-1.6c0-0.6,0-1.1,0-1.7v-1.4
	c0-1.2,0-2.1,0-2.7c0-0.7-0.1-1.1-0.2-1.5c-0.1-0.1-0.1-0.2-0.3-0.2c-0.1,0-0.4-0.1-0.6-0.1l-0.1,0v-0.2l0.1,0c0.2,0,0.5,0,0.8,0
	c0.3,0,0.6,0,0.9,0c0.2,0,0.5,0,0.8,0s0.8,0,1.2,0c0.4,0,0.9,0,1.4,0s0.9,0,1.4,0c0.1,0,0.2,0.1,0.2,0.2v0.8c0,0.1,0,0.2,0,0.3
	c0,0.1,0,0.3,0,0.6l-0.2,0.1l-0.1,0c-0.1-0.3-0.1-0.5-0.2-0.7c-0.1-0.2-0.2-0.3-0.3-0.4c-0.1-0.1-0.3-0.2-0.6-0.2c-0.2,0-0.6,0-1,0
	c-0.5,0-0.9,0-1.3,0c-0.3,0-0.6,0-0.9,0.1c0,0.1,0,0.1-0.1,0.2c0,0.1,0,0.3,0,0.6s0,0.7,0,1.3c0,0.6,0,1.3,0,2.3c0.6,0,1.3,0,1.9,0
	c0.6,0,1.4,0,2.3-0.1v0.1c-0.1,0.2-0.3,0.4-0.3,0.6c-0.7,0-1.4,0-2,0c-0.6,0-1.2,0-1.8,0L131,98L131,98z"/>
<path class="st0" d="M156.1,100.9c-0.2,0.1-0.2,0.1-0.3,0.1c-0.1,0-0.3,0.1-0.4,0.1c-0.1,0-0.2,0-0.3,0c-0.2,0-0.3,0-0.4-0.1
	c-0.1,0-0.2-0.1-0.4-0.2s-0.2-0.2-0.4-0.3c-0.1-0.2-0.3-0.3-0.4-0.6c-0.4-0.5-0.7-1-1.1-1.5c-0.4-0.5-0.7-0.9-1-1.4
	c-0.3-0.4-0.6-0.9-0.9-1.3s-0.5-0.8-0.8-1.1l0-0.2c0.2,0,0.5,0.1,0.6,0.1c0.1,0,0.3-0.1,0.5-0.2l0,0.2c0.2,0.3,0.4,0.6,0.7,1
	s0.6,0.8,0.9,1.2c0.3,0.4,0.6,0.8,0.9,1.2s0.6,0.8,0.9,1.2c0.2,0.3,0.4,0.5,0.6,0.7c0.2,0.2,0.3,0.3,0.5,0.4s0.3,0.2,0.4,0.2
	c0.1,0,0.2,0.1,0.4,0.1L156.1,100.9z"/>
<path class="st0" d="M73.8,95.2l0.1-0.3c0.3,0.1,0.8,0.1,1.1,0c0.2,0,0.7-0.1,0.8-0.2c0.5-0.2,0.9-0.5,1.2-0.9s0.5-0.9,0.5-1.4
	c0-0.7-0.2-1.3-0.6-1.6c-0.4-0.3-1-0.5-1.8-0.5h-1C74,90.8,74,91.4,74,92.2c0,0.7,0,1.5,0,2.4v4.2c0,0.2,0,0.4,0,0.7s0,0.4,0,0.6
	c0,0.2,0,0.4,0.1,0.5c0,0.2,0.1,0.3,0.1,0.3c0.1,0.1,0.1,0.2,0.3,0.2c0.1,0,0.4,0.1,0.7,0.1l0.1,0v0.2l-0.1,0c-0.2,0-0.5,0-0.8,0
	c-0.3,0-0.6,0-0.9,0c-0.2,0-0.4,0-0.7,0c-0.3,0-0.6,0-0.9,0l-0.1,0v-0.2l0.1,0c0.3,0,0.5-0.1,0.6-0.1c0.1,0,0.2-0.1,0.3-0.2
	c0-0.1,0.1-0.3,0.1-0.5c0-0.2,0-0.6,0.1-1s0-1,0-1.7s0-1.5,0-2.5v-0.8c0-0.8,0-1.4,0-1.9c0-0.5,0-0.9-0.1-1.2c0-0.3-0.1-0.5-0.1-0.7
	c0-0.1-0.1-0.2-0.1-0.3c-0.1-0.1-0.1-0.2-0.3-0.2c-0.1,0-0.3-0.1-0.6-0.1l-0.1,0v-0.2l0.1,0c0.2,0,0.5,0,0.8,0c0.3,0,0.6,0,0.9,0
	c0.1,0,0.3,0,0.5,0c0.2,0,0.5,0,0.8,0c0.3,0,0.5,0,0.8-0.1c0.3,0,0.5,0,0.7,0c0.4,0,0.8,0.1,1.2,0.2c0.3,0.1,0.6,0.3,0.8,0.5
	c0.2,0.2,0.3,0.4,0.4,0.7c0.1,0.3,0.1,0.6,0.1,0.9c0,0.7-0.3,1.3-0.8,1.8c-0.5,0.5-1.2,1-2.1,1.3C74.8,95.4,73.8,95.2,73.8,95.2z"/>
<path class="st0" d="M149.1,94.9l0.1-0.3c0.3,0.1,0.9,0.1,1.1,0c0.2,0,0.6-0.1,0.8-0.2c0.5-0.2,0.9-0.5,1.2-0.8
	c0.3-0.4,0.5-0.8,0.5-1.4c0-0.7-0.2-1.2-0.6-1.5c-0.4-0.3-1-0.5-1.9-0.5h-1c-0.1,0.5-0.1,1.1-0.1,1.8s0,1.5,0,2.4v4.1
	c0,0.2,0,0.4,0,0.7s0,0.4,0,0.6c0,0.2,0,0.4,0.1,0.5c0,0.2,0.1,0.3,0.1,0.3c0.1,0.1,0.1,0.2,0.3,0.2c0.1,0,0.4,0.1,0.6,0.1l0.1,0
	v0.2l-0.1,0c-0.2,0-0.5,0-0.8,0c-0.3,0-0.6,0-0.9,0c-0.2,0-0.4,0-0.7,0c-0.3,0-0.6,0-0.9,0l-0.1,0v-0.2l0.1,0c0.3,0,0.5-0.1,0.6-0.1
	c0.1,0,0.2-0.1,0.3-0.2c0-0.1,0.1-0.3,0.1-0.5c0-0.2,0-0.5,0.1-1c0-0.4,0-1,0-1.6c0-0.7,0-1.5,0-2.4v-0.8c0-0.8,0-1.4,0-1.9
	c0-0.5,0-0.9-0.1-1.2s-0.1-0.5-0.1-0.7c0-0.1-0.1-0.2-0.1-0.3c-0.1-0.1-0.1-0.2-0.3-0.2c-0.1,0-0.4-0.1-0.6-0.1l-0.1,0v-0.2l0.1,0
	c0.2,0,0.5,0,0.8,0c0.3,0,0.6,0,0.9,0c0.1,0,0.3,0,0.5,0c0.2,0,0.5,0,0.8,0c0.3,0,0.5,0,0.8-0.1c0.3,0,0.5,0,0.7,0
	c0.4,0,0.8,0.1,1.2,0.2s0.6,0.3,0.8,0.5c0.2,0.2,0.4,0.4,0.4,0.7c0.1,0.3,0.1,0.6,0.1,0.8c0,0.7-0.3,1.3-0.8,1.8
	c-0.5,0.5-1.2,1-2.1,1.2C150.1,95.1,149.1,94.9,149.1,94.9z"/>
<path class="st0" d="M146.3,100.9c-0.2,0.1-0.2,0.1-0.3,0.1c-0.1,0-0.3,0.1-0.4,0.1c-0.1,0-0.2,0-0.3,0c-0.2,0-0.3,0-0.4-0.1
	s-0.2-0.1-0.4-0.2s-0.2-0.2-0.4-0.3c-0.1-0.2-0.3-0.3-0.4-0.6c-0.4-0.5-0.7-1-1.1-1.5c-0.4-0.5-0.7-0.9-1-1.4
	c-0.3-0.4-0.6-0.9-0.9-1.3s-0.5-0.8-0.8-1.1l0-0.2c0.2,0,0.5,0.1,0.6,0.1c0.1,0,0.3-0.1,0.5-0.2l0,0.2c0.2,0.3,0.4,0.6,0.7,1
	s0.6,0.8,0.9,1.2c0.3,0.4,0.6,0.8,0.9,1.2s0.6,0.8,0.9,1.2c0.2,0.3,0.4,0.5,0.6,0.7c0.2,0.2,0.3,0.3,0.5,0.4s0.3,0.2,0.4,0.2
	c0.1,0,0.2,0.1,0.4,0.1L146.3,100.9z"/>
<path class="st0" d="M139.3,94.9l0.1-0.3c0.3,0.1,0.9,0.1,1.1,0c0.2,0,0.6-0.1,0.8-0.2c0.5-0.2,0.9-0.5,1.2-0.8
	c0.3-0.4,0.5-0.8,0.5-1.4c0-0.7-0.2-1.2-0.6-1.5c-0.4-0.3-1-0.5-1.9-0.5h-1c-0.1,0.5-0.1,1.1-0.1,1.8s0,1.5,0,2.4v4.1
	c0,0.2,0,0.4,0,0.7s0,0.4,0,0.6c0,0.2,0,0.4,0.1,0.5c0,0.2,0.1,0.3,0.1,0.3c0.1,0.1,0.1,0.2,0.3,0.2c0.1,0,0.4,0.1,0.6,0.1l0.1,0
	v0.2l-0.1,0c-0.2,0-0.5,0-0.8,0c-0.3,0-0.6,0-0.9,0c-0.2,0-0.4,0-0.7,0c-0.3,0-0.6,0-0.9,0l-0.1,0v-0.2l0.1,0c0.3,0,0.5-0.1,0.6-0.1
	c0.1,0,0.2-0.1,0.3-0.2c0-0.1,0.1-0.3,0.1-0.5c0-0.2,0-0.5,0.1-1c0-0.4,0-1,0-1.6c0-0.7,0-1.5,0-2.4v-0.8c0-0.8,0-1.4,0-1.9
	c0-0.5,0-0.9-0.1-1.2s-0.1-0.5-0.1-0.7c0-0.1-0.1-0.2-0.1-0.3c-0.1-0.1-0.1-0.2-0.3-0.2c-0.1,0-0.4-0.1-0.6-0.1l-0.1,0v-0.2l0.1,0
	c0.2,0,0.5,0,0.8,0c0.3,0,0.6,0,0.9,0c0.1,0,0.3,0,0.5,0c0.2,0,0.5,0,0.8,0c0.3,0,0.5,0,0.8-0.1c0.3,0,0.5,0,0.7,0
	c0.4,0,0.8,0.1,1.2,0.2s0.6,0.3,0.8,0.5c0.2,0.2,0.4,0.4,0.4,0.7c0.1,0.3,0.1,0.6,0.1,0.8c0,0.7-0.3,1.3-0.8,1.8
	c-0.5,0.5-1.2,1-2.1,1.2C140.3,95.1,139.3,94.9,139.3,94.9z"/>
<path class="st0" d="M186.6,100.9c-0.2,0.1-0.2,0.1-0.3,0.1c-0.1,0-0.3,0.1-0.4,0.1c-0.1,0-0.2,0-0.3,0c-0.2,0-0.3,0-0.4-0.1
	c-0.1,0-0.2-0.1-0.4-0.2c-0.1-0.1-0.2-0.2-0.4-0.3c-0.1-0.2-0.3-0.3-0.4-0.6c-0.4-0.5-0.7-1-1.1-1.5c-0.4-0.5-0.7-0.9-1-1.4
	c-0.3-0.4-0.6-0.9-0.9-1.3s-0.5-0.8-0.8-1.1l0-0.2c0.2,0,0.5,0.1,0.6,0.1c0.1,0,0.3-0.1,0.5-0.2l0,0.2c0.2,0.3,0.4,0.6,0.7,1
	s0.6,0.8,0.9,1.2c0.3,0.4,0.6,0.8,0.9,1.2s0.6,0.8,0.9,1.2c0.2,0.3,0.4,0.5,0.6,0.7c0.2,0.2,0.3,0.3,0.5,0.4s0.3,0.2,0.4,0.2
	c0.1,0,0.2,0.1,0.4,0.1L186.6,100.9z"/>
<path class="st0" d="M179.6,94.9l0.1-0.3c0.3,0.1,0.9,0.1,1.1,0c0.2,0,0.6-0.1,0.8-0.2c0.5-0.2,0.9-0.5,1.2-0.8
	c0.3-0.4,0.5-0.8,0.5-1.4c0-0.7-0.2-1.2-0.6-1.5c-0.4-0.3-1-0.5-1.9-0.5h-1c-0.1,0.5-0.1,1.1-0.1,1.8s0,1.5,0,2.4v4.1
	c0,0.2,0,0.4,0,0.7s0,0.4,0,0.6c0,0.2,0,0.4,0.1,0.5c0,0.2,0.1,0.3,0.1,0.3c0.1,0.1,0.1,0.2,0.3,0.2c0.1,0,0.4,0.1,0.6,0.1l0.1,0
	v0.2l-0.1,0c-0.2,0-0.5,0-0.8,0c-0.3,0-0.6,0-0.9,0c-0.2,0-0.4,0-0.7,0c-0.3,0-0.6,0-0.9,0l-0.1,0v-0.2l0.1,0c0.3,0,0.5-0.1,0.6-0.1
	c0.1,0,0.2-0.1,0.3-0.2c0-0.1,0.1-0.3,0.1-0.5c0-0.2,0-0.5,0.1-1c0-0.4,0-1,0-1.6c0-0.7,0-1.5,0-2.4v-0.8c0-0.8,0-1.4,0-1.9
	c0-0.5,0-0.9-0.1-1.2s-0.1-0.5-0.1-0.7c0-0.1-0.1-0.2-0.1-0.3c-0.1-0.1-0.1-0.2-0.3-0.2c-0.1,0-0.4-0.1-0.6-0.1l-0.1,0v-0.2l0.1,0
	c0.2,0,0.5,0,0.8,0c0.3,0,0.6,0,0.9,0c0.1,0,0.3,0,0.5,0c0.2,0,0.5,0,0.8,0c0.3,0,0.5,0,0.8-0.1c0.3,0,0.5,0,0.7,0
	c0.4,0,0.8,0.1,1.2,0.2s0.6,0.3,0.8,0.5c0.2,0.2,0.4,0.4,0.4,0.7c0.1,0.3,0.1,0.6,0.1,0.8c0,0.7-0.3,1.3-0.8,1.8
	c-0.5,0.5-1.2,1-2.1,1.2C180.6,95.1,179.6,94.9,179.6,94.9z"/>
<path class="st0" d="M275.6,100.9c-0.2,0.1-0.2,0.1-0.3,0.1c-0.1,0-0.3,0.1-0.4,0.1c-0.1,0-0.2,0-0.3,0c-0.2,0-0.3,0-0.4-0.1
	s-0.2-0.1-0.4-0.2s-0.2-0.2-0.4-0.3s-0.3-0.3-0.4-0.6c-0.4-0.5-0.7-1-1.1-1.5c-0.4-0.5-0.7-0.9-1-1.4c-0.3-0.4-0.6-0.9-0.9-1.3
	s-0.5-0.8-0.8-1.1l0-0.2c0.2,0,0.5,0.1,0.6,0.1c0.1,0,0.3-0.1,0.5-0.2l0,0.2c0.2,0.3,0.4,0.6,0.7,1c0.3,0.4,0.6,0.8,0.9,1.2
	c0.3,0.4,0.6,0.8,0.9,1.2s0.6,0.8,0.9,1.2c0.2,0.3,0.4,0.5,0.6,0.7c0.2,0.2,0.3,0.3,0.5,0.4c0.1,0.1,0.3,0.2,0.4,0.2
	c0.1,0,0.2,0.1,0.4,0.1L275.6,100.9z"/>
<path class="st0" d="M268.6,94.9l0.1-0.3c0.3,0.1,0.9,0.1,1.1,0c0.2,0,0.6-0.1,0.8-0.2c0.5-0.2,0.9-0.5,1.2-0.8
	c0.3-0.4,0.5-0.8,0.5-1.4c0-0.7-0.2-1.2-0.6-1.5c-0.4-0.3-1-0.5-1.9-0.5h-1c-0.1,0.5-0.1,1.1-0.1,1.8s0,1.5,0,2.4v4.1
	c0,0.2,0,0.4,0,0.7s0,0.4,0,0.6c0,0.2,0,0.4,0.1,0.5c0,0.2,0.1,0.3,0.1,0.3c0,0.1,0.1,0.2,0.3,0.2c0.1,0,0.4,0.1,0.6,0.1l0,0v0.2
	l0,0c-0.2,0-0.5,0-0.8,0c-0.3,0-0.6,0-0.9,0c-0.2,0-0.4,0-0.7,0c-0.3,0-0.6,0-0.9,0l0,0v-0.2l0,0c0.3,0,0.5-0.1,0.6-0.1
	c0.1,0,0.2-0.1,0.3-0.2c0-0.1,0.1-0.3,0.1-0.5c0-0.2,0-0.5,0.1-1c0-0.4,0-1,0-1.6c0-0.7,0-1.5,0-2.4v-0.8c0-0.8,0-1.4,0-1.9
	c0-0.5,0-0.9,0-1.2s0-0.5-0.1-0.7c0-0.1-0.1-0.2-0.1-0.3c0-0.1-0.1-0.2-0.3-0.2c-0.1,0-0.4-0.1-0.6-0.1l0,0v-0.2l0,0
	c0.2,0,0.5,0,0.8,0c0.3,0,0.6,0,0.9,0c0.1,0,0.3,0,0.5,0c0.2,0,0.5,0,0.8,0c0.3,0,0.5,0,0.8-0.1c0.3,0,0.5,0,0.7,0
	c0.5,0,0.8,0.1,1.2,0.2s0.6,0.3,0.8,0.5c0.2,0.2,0.4,0.4,0.5,0.7c0.1,0.3,0.1,0.6,0.1,0.8c0,0.7-0.3,1.3-0.8,1.8
	c-0.5,0.5-1.2,1-2.1,1.2C269.6,95.1,268.6,94.9,268.6,94.9z"/>
<path class="st0" d="M157.7,92.7c-0.4-0.5-0.7-1-0.9-1.3s-0.5-0.6-0.7-0.8c-0.2-0.2-0.4-0.3-0.6-0.4c-0.2-0.1-0.4-0.1-0.6-0.1
	c-0.2,0-0.9,0.3-1.8,0.9l0-0.2c0.4-0.6,1.3-1.3,1.9-1.5c0.6-0.2,1-0.2,1.5,0c0.5,0.2,0.7,0.4,0.9,0.7c0.2,0.3,0.3,0.3,0.5,0.7
	l2.9,4.2c0.4-0.5,0.8-1,1.2-1.5c0.4-0.5,0.8-1,1.1-1.5c0.4-0.5,0.7-0.9,1-1.4s0.6-0.6,0.9-1c0.1,0,0.3,0,0.4,0c0.1,0,0.3,0,0.4,0
	c0.1,0,0.2,0,0.4,0s0.3,0,0.4,0l0.1,0.1c-0.4,0.2-0.7,0.4-1,0.7c-0.3,0.3-0.6,0.6-1,1c-0.2,0.2-0.4,0.5-0.7,0.9
	c-0.3,0.4-0.7,0.9-1,1.4c-0.3,0.4-0.6,0.8-1,1.3c-0.3,0.4-0.6,0.8-0.8,1.1V97v1.4c0,0.4,0,0.8,0,1.3c0,0.4,0.1,0.7,0.2,0.9
	c0.1,0.1,0.1,0.2,0.3,0.2c0.1,0,0.4,0.1,0.7,0.1l0.1,0v0.2l-0.1,0c-0.3,0-0.6,0-0.9,0c-0.4,0-0.7,0-1,0c-0.3,0-0.5,0-0.8,0
	c-0.3,0-0.6,0-1,0l-0.1,0v-0.2l0.1,0c0.3,0,0.6-0.1,0.7-0.1c0.1,0,0.3-0.1,0.4-0.2c0-0.1,0.1-0.2,0.1-0.3s0.1-0.3,0.1-0.6
	c0-0.3,0-0.6,0.1-1c0-0.4,0-0.9,0-1.6v-0.9c-0.2-0.3-0.4-0.6-0.6-0.9s-0.4-0.6-0.6-0.9c-0.2-0.3-0.4-0.6-0.6-0.8
	C158,93.2,157.8,92.9,157.7,92.7z"/>
<path class="st0" d="M168.9,101c-0.3,0-0.5,0-0.8,0c-0.3,0-0.5,0-0.6,0.1l-0.1-0.1c0.2-0.2,0.3-0.3,0.4-0.4c0.1-0.1,0.2-0.3,0.2-0.6
	c0.1-0.3,0.1-0.7,0.1-1.2s0-1.2,0-2v-3.8c0-0.9,0-1.6,0-2.2c0-0.6,0-1.1-0.1-1.4s0-0.6-0.1-0.8c0-0.2-0.1-0.3-0.1-0.3
	c-0.1-0.1-0.2-0.2-0.3-0.2s-0.4-0.1-0.8-0.1l-0.1,0v-0.2l0.1,0c0.3,0,0.6,0,0.9,0c0.4,0,0.7,0,1,0c0.1,0,0.3,0,0.6,0
	c0.3,0,0.6,0,0.9-0.1c0.3,0,0.6,0,0.9-0.1c0.3,0,0.6,0,0.8,0c0.5,0,1,0.1,1.4,0.2s0.7,0.3,0.9,0.6c0.2,0.3,0.4,0.5,0.5,0.9
	s0.2,0.7,0.2,1c0,0.8-0.2,1.4-0.7,1.9c-0.4,0.5-1.1,0.9-1.9,1.3c0.4,0,0.9,0.1,1.3,0.3c0.4,0.2,0.8,0.4,1.1,0.6s0.6,0.6,0.8,1
	c0.2,0.4,0.3,0.8,0.3,1.3c0,0.8-0.1,1.5-0.5,2c-0.3,0.6-0.8,1.1-1.5,1.5c-0.5,0.3-1.1,0.6-1.6,0.8s-1.2,0.3-1.9,0.3
	c-0.2,0-0.5,0-0.7,0C169.3,101,169.1,101,168.9,101z M170.3,94.1c-0.2,0-0.4,0-0.5,0c-0.1,0-0.3,0-0.5,0.1l-0.1-0.1l0.8-0.7
	c0.3,0,1.4-0.1,1.7-0.2c0.3-0.1,0.6-0.2,0.9-0.4c0.3-0.2,0.5-0.5,0.7-0.8s0.3-0.8,0.3-1.3c0-0.8-0.3-1.5-0.8-1.9
	c-0.5-0.4-1.2-0.6-2.2-0.6c-0.2,0-0.4,0-0.6,0c-0.2,0-0.4,0-0.6,0.1c0,0.2-0.1,0.4-0.1,0.7s0,0.6-0.1,1c0,0.4,0,0.8,0,1.4
	c0,0.5,0,1.1,0,1.8v1.4c0,1.4,0,2.6,0,3.5c0,0.9,0,1.6,0.1,2.1c0.2,0.1,0.4,0.2,0.7,0.2c0.3,0.1,0.6,0.1,0.9,0.1
	c0.5,0,1-0.1,1.4-0.1s0.8-0.3,1.2-0.5c0.3-0.2,0.6-0.6,0.8-0.9c0.2-0.4,0.3-0.9,0.3-1.5c0-0.6-0.1-1.1-0.3-1.5s-0.5-0.7-0.8-1
	c-0.3-0.3-0.7-0.4-1.1-0.5C171.9,94.1,170.7,94.1,170.3,94.1z"/>
<path class="st0" d="M195.1,100.5c0.1,0.1,0.2,0.2,0.3,0.2c0.1,0,0.4,0.1,0.6,0.1l0,0v0.2l0,0c-0.2,0-0.4,0-0.7,0
	c-0.3,0-0.5,0-0.7,0c-0.1,0-0.4,0-0.5,0c-0.1,0-0.2,0-0.3,0c0-0.1,0-0.3,0-0.5c0-0.2,0-0.5,0-0.7c0-0.1,0-0.3,0-0.4
	c0-0.1,0-0.3,0-0.4c-0.7,0.8-1.4,1.4-2.1,1.7s-1.4,0.5-2,0.5c-0.3,0-0.6-0.1-1-0.1c-0.4-0.1-0.7-0.3-0.9-0.5
	c-0.3-0.2-0.5-0.5-0.7-0.9c-0.2-0.4-0.4-0.9-0.4-1.5c0-0.4,0-0.7,0-1s0-0.6,0-0.8c0-0.2,0-0.4,0-0.7c0-0.2,0-0.4,0-0.6v-0.9
	c0-0.8,0-1.4,0-1.9c0-0.5,0-0.9,0-1.2c0-0.3,0-0.5,0-0.7s-0.1-0.2-0.1-0.3c-0.1-0.1-0.1-0.2-0.2-0.2s-0.2-0.1-0.4-0.1l0,0v-0.2l0,0
	c0.2,0,0.4,0,0.7,0c0.3,0,0.5,0,0.7,0c0.2,0,0.4,0,0.6,0c0.2,0,0.5,0,0.7,0l0,0v0.2l0,0c-0.3,0-0.4,0.1-0.5,0.1
	c-0.1,0-0.2,0.1-0.3,0.2c0,0.1-0.1,0.2-0.1,0.3s0,0.4,0,0.7s0,0.7,0,1.2c0,0.5,0,1.2,0,1.9v1.8c0,0.5,0,1,0.1,1.4
	c0,0.4,0.1,0.7,0.2,1s0.2,0.5,0.3,0.8c0.1,0.2,0.3,0.4,0.5,0.6c0.3,0.2,0.5,0.3,0.8,0.4s0.6,0.2,0.9,0.2c0.4,0,0.8-0.1,1.2-0.2
	c0.4-0.2,0.8-0.3,1.1-0.6s0.6-0.6,0.8-0.9c0.2-0.4,0.4-0.8,0.4-1.2v-3.3c0-0.8,0-1.4,0-1.9c0-0.5,0-0.9,0-1.2c0-0.3,0-0.5-0.1-0.7
	s-0.1-0.2-0.1-0.3c0-0.1-0.1-0.2-0.2-0.2c-0.1,0-0.3-0.1-0.5-0.1l0,0v-0.2l0,0c0.2,0,0.4,0,0.7,0c0.3,0,0.5,0,0.7,0
	c0.2,0,0.5,0,0.8,0c0.2,0,0.5,0,0.7,0l0,0v0.2l0,0c-0.3,0-0.4,0.1-0.5,0.1c-0.1,0-0.2,0.1-0.3,0.2c0,0.1-0.1,0.2-0.1,0.3
	s0,0.4,0,0.7s0,0.7,0,1.2c0,0.5,0,1.2,0,1.9v3.1c0,0.8,0,1.5,0.1,2C194.9,100,195,100.3,195.1,100.5z"/>
<path class="st0" d="M205.5,90.4c-0.4-0.2-0.9-0.3-1.4-0.4s-1-0.1-1.6-0.1c-0.8,0-1.5,0.1-2.1,0.3c-0.6,0.2-1.1,0.6-1.6,1
	c-0.4,0.4-0.8,0.9-1,1.5c-0.2,0.6-0.4,1.3-0.4,2c0,0.8,0.1,1.7,0.4,2.4s0.7,1.3,1.2,1.9c0.5,0.5,1.1,0.9,1.8,1.2
	c0.7,0.3,1.4,0.4,2.3,0.4c0.8,0,1.5-0.1,2.1-0.3c0.6-0.2,1.2-0.5,1.7-0.8l0.1,0.1l-0.6,0.6c-0.5,0.3-1.1,0.6-1.8,0.8
	c-0.7,0.2-1.4,0.3-2.2,0.3c-0.9,0-1.7-0.1-2.5-0.4c-0.7-0.3-1.4-0.7-1.9-1.2s-0.9-1.1-1.3-1.8s-0.4-1.5-0.4-2.3
	c0-1.1,0.2-2.1,0.6-2.9c0.4-0.8,1-1.5,1.8-2.1c0.6-0.5,1.3-0.8,2.1-1c0.7-0.2,1.5-0.3,2.2-0.3c0.8,0,1.5,0.1,2.3,0.2
	c0.7,0.2,1.4,0.4,2,0.7c-0.1,0.2-0.2,0.5-0.3,0.8c-0.1,0.3-0.1,0.6-0.2,0.9l-0.3,0.1l-0.1,0c0-0.3,0-0.4-0.1-0.6s-0.1-0.3-0.2-0.4
	c-0.1-0.1-0.2-0.2-0.3-0.3C205.8,90.5,205.7,90.4,205.5,90.4z"/>
<path class="st0" d="M218.3,100.8v0.2l-0.1,0c-0.4,0-0.8,0-1.2,0s-0.7,0-0.9,0c-0.1-0.1-0.2-0.1-0.3-0.2c-0.1-0.1-0.2-0.1-0.3-0.2
	c-0.1-0.1-0.2-0.2-0.3-0.3c-0.1-0.1-0.3-0.3-0.4-0.4c-0.2-0.2-0.5-0.5-0.8-0.9c-0.3-0.4-0.7-0.8-1.1-1.2s-0.8-0.9-1.2-1.3
	c-0.4-0.4-0.8-0.9-1.2-1.3v3c0,0.4,0,0.8,0,1.3c0,0.4,0.1,0.7,0.2,0.9c0.1,0.1,0.1,0.2,0.3,0.2c0.2,0,0.4,0.1,0.7,0.1l0.1,0v0.2
	l-0.1,0c-0.3,0-0.6,0-0.9,0c-0.4,0-0.7,0-1,0c-0.2,0-0.5,0-0.8,0c-0.3,0-0.6,0-1,0l-0.1,0v-0.2l0.1,0c0.3,0,0.6-0.1,0.7-0.1
	c0.1,0,0.3-0.1,0.4-0.2c0-0.1,0.1-0.3,0.1-0.5c0-0.2,0.1-0.5,0.1-1s0-1,0.1-1.6c0-0.7,0-1.5,0-2.4v-0.8c0-0.8,0-1.4,0-1.9
	c0-0.5,0-0.9-0.1-1.2c0-0.3-0.1-0.5-0.1-0.7s-0.1-0.2-0.1-0.3c-0.1-0.1-0.2-0.2-0.3-0.2s-0.4-0.1-0.7-0.1l0-0.1v-0.2l0.1,0
	c0.2,0,0.5,0,0.9,0c0.4,0,0.7,0,1,0c0.2,0,0.5,0,0.8,0c0.3,0,0.6,0,1,0l0.1,0v0.2l-0.1,0c-0.3,0-0.6,0.1-0.7,0.1
	c-0.1,0-0.3,0.1-0.4,0.2c0,0.1-0.1,0.2-0.1,0.3c0,0.1,0,0.4-0.1,0.7c0,0.3,0,0.7,0,1.2c0,0.5,0,1.2,0,2v0.7c0.5-0.4,1-0.9,1.5-1.4
	c0.5-0.5,1-1,1.5-1.5c0.5-0.5,0.9-1,1.4-1.4s0.7-0.8,1-1.1c0.1,0,0.3,0,0.4,0c0.1,0,0.3,0,0.5,0c0.1,0,0.3,0,0.4,0
	c0.1,0,0.3,0,0.4,0l0.1,0.1c-0.2,0.1-0.4,0.1-0.6,0.2c-0.2,0.1-0.4,0.2-0.5,0.3s-0.4,0.3-0.6,0.4s-0.5,0.4-0.7,0.7
	c-0.2,0.2-0.4,0.4-0.7,0.7s-0.6,0.6-0.9,0.9c-0.3,0.3-0.7,0.7-1,1c-0.4,0.3-0.7,0.7-0.9,0.9c0.5,0.5,1.1,1.1,1.6,1.7
	c0.5,0.6,1.1,1.2,1.8,1.8c0.5,0.5,0.9,0.9,1.2,1.2c0.3,0.3,0.6,0.5,0.8,0.7c0.2,0.2,0.4,0.3,0.6,0.3S218,100.7,218.3,100.8
	L218.3,100.8z"/>
<path class="st0" d="M228.1,94.2c0-0.8,0-1.4,0-1.9c0-0.5,0-0.9-0.1-1.2s-0.1-0.5-0.1-0.7s-0.1-0.2-0.1-0.3
	c-0.1-0.1-0.1-0.2-0.3-0.2c-0.1,0-0.4-0.1-0.6-0.1l-0.1,0v-0.2l0.1,0c0.2,0,0.5,0,0.8,0c0.3,0,0.6,0,0.9,0c0.2,0,0.4,0,0.7,0
	c0.3,0,0.6,0,0.9,0l0,0v0.2l0,0c-0.3,0-0.5,0.1-0.6,0.1c-0.1,0-0.2,0.1-0.3,0.2c0,0.1-0.1,0.2-0.1,0.3c0,0.1,0,0.3,0,0.6
	c0,0.3,0,0.8,0,1.3c0,0.6,0,1.4,0,2.3v3.6c0,0.4,0,0.8,0,1.3c0,0.4,0.1,0.7,0.2,0.9c0.1,0.1,0.1,0.2,0.3,0.2c0.1,0,0.4,0.1,0.6,0.1
	l0.1,0v0.2l-0.1,0c-0.2,0-0.5,0-0.8,0c-0.3,0-0.6,0-0.9,0c-0.2,0-0.4,0-0.7,0c-0.3,0-0.6,0-0.9,0l-0.1,0v-0.2l0.1,0
	c0.3,0,0.5-0.1,0.6-0.1c0.1,0,0.2-0.1,0.3-0.2c0-0.1,0.1-0.2,0.1-0.4c0-0.2,0.1-0.5,0.1-0.8c0-0.4,0-0.9,0-1.5c0-0.6,0-1.4,0-2.4
	h-7.5v3.1c0,0.4,0,0.8,0,1.3c0,0.4,0.1,0.7,0.2,0.9c0.1,0.1,0.1,0.2,0.3,0.2c0.1,0,0.4,0.1,0.6,0.1l0.1,0v0.2l-0.1,0
	c-0.2,0-0.5,0-0.8,0c-0.3,0-0.6,0-0.9,0c-0.2,0-0.4,0-0.7,0c-0.3,0-0.6,0-0.9,0l-0.1,0v-0.2l0.1,0c0.3,0,0.5-0.1,0.6-0.1
	c0.1,0,0.2-0.1,0.3-0.2c0-0.1,0.1-0.3,0.1-0.5c0-0.2,0-0.5,0.1-1c0-0.4,0-1,0-1.6c0-0.7,0-1.5,0-2.4v-0.8c0-0.8,0-1.4,0-1.9
	c0-0.5,0-0.9-0.1-1.2s-0.1-0.5-0.1-0.7s-0.1-0.2-0.1-0.3c-0.1-0.1-0.1-0.2-0.3-0.2s-0.3-0.1-0.6-0.1l-0.1,0v-0.2l0.1,0
	c0.2,0,0.5,0,0.8,0c0.3,0,0.6,0,0.9,0c0.2,0,0.5,0,0.7,0c0.3,0,0.6,0,0.9,0l0.1,0v0.2l-0.1,0c-0.3,0-0.5,0.1-0.6,0.1
	c-0.1,0-0.2,0.1-0.3,0.2c0,0.1-0.1,0.2-0.1,0.3s0,0.4,0,0.7c0,0.3,0,0.7,0,1.2s0,1.2,0,1.9v0.3h7.5L228.1,94.2L228.1,94.2z"/>
<path class="st0" d="M232.8,98c0,0.5,0,0.9,0,1.3c0,0.4,0.1,0.7,0.1,0.9c0.2,0.1,0.7,0.1,1.4,0.1c0.9,0,1.6,0,2.2-0.1
	c0.6,0,0.9-0.1,1.1-0.2c0.1-0.1,0.2-0.2,0.3-0.4s0.1-0.4,0.1-0.8h0.1l0.2,0.1c0,0.3,0,0.7-0.1,1.1c-0.1,0.4-0.1,0.7-0.1,0.8
	c-0.1,0.1-0.3,0.1-0.5,0.1c-0.3,0-0.6,0-0.9,0c-0.3,0-0.6,0-0.9,0c-0.3,0-0.6,0-1,0c-0.3,0-0.7,0-1.1,0c-0.3,0-0.6,0-1,0
	c-0.4,0-0.8,0-1.3,0.1l-0.1-0.1c0.1-0.1,0.2-0.4,0.2-0.7c0.1-0.3,0.1-0.8,0.1-1.2c0-0.5,0.1-1,0.1-1.6c0-0.6,0-1.1,0-1.7v-1.4
	c0-1.2,0-2.1,0-2.7c0-0.7-0.1-1.1-0.2-1.5c-0.1-0.1-0.1-0.2-0.3-0.2c-0.1,0-0.4-0.1-0.6-0.1l-0.1,0v-0.2l0.1,0c0.2,0,0.5,0,0.8,0
	c0.3,0,0.6,0,0.9,0c0.2,0,0.5,0,0.8,0s0.8,0,1.2,0c0.4,0,0.9,0,1.4,0s0.9,0,1.4,0c0.1,0,0.2,0.1,0.2,0.2v0.8c0,0.1,0,0.2,0,0.3
	c0,0.1,0,0.3,0,0.6l-0.2,0.1l0,0c-0.1-0.3-0.1-0.5-0.2-0.7c-0.1-0.2-0.2-0.3-0.3-0.4s-0.3-0.2-0.6-0.2c-0.2,0-0.6,0-1,0
	c-0.5,0-0.9,0-1.3,0c-0.3,0-0.6,0-0.9,0.1c0,0.1,0,0.1-0.1,0.2c0,0.1,0,0.3,0,0.6s0,0.7,0,1.3c0,0.6,0,1.3,0,2.3c0.6,0,1.3,0,1.9,0
	c0.6,0,1.4,0,2.3-0.1v0.1c-0.1,0.2-0.3,0.4-0.3,0.6c-0.7,0-1.4,0-2,0s-1.2,0-1.8,0L232.8,98L232.8,98z"/>
<path class="st0" d="M241.4,95.3c0,1,0,1.8,0,2.4c0,0.6,0,1.2,0,1.5c0,0.4,0,0.7,0.1,0.9s0.1,0.3,0.1,0.4c0.1,0.1,0.1,0.2,0.3,0.2
	c0.1,0,0.4,0.1,0.6,0.1l0.1,0v0.2l-0.1,0c-0.2,0-0.5,0-0.8,0c-0.3,0-0.6,0-0.9,0c-0.2,0-0.4,0-0.7,0c-0.3,0-0.6,0-0.9,0l-0.1,0v-0.2
	l0.1,0c0.3,0,0.5-0.1,0.6-0.1c0.1,0,0.2-0.1,0.3-0.2c0-0.1,0.1-0.3,0.1-0.5c0-0.2,0-0.5,0.1-1c0-0.4,0-1,0-1.6c0-0.7,0-1.5,0-2.4
	v-0.8c0-0.8,0-1.4,0-1.9c0-0.5,0-0.9-0.1-1.2s-0.1-0.5-0.1-0.7s-0.1-0.2-0.1-0.3c-0.1-0.1-0.1-0.2-0.3-0.2s-0.3-0.1-0.6-0.1l-0.1,0
	v-0.2l0.1,0c0.2,0,0.5,0,0.8,0c0.3,0,0.6,0,0.9,0c0.2,0,0.5,0,0.7,0c0.3,0,0.6,0,0.9,0l0.1,0v0.2l-0.1,0c-0.3,0-0.5,0.1-0.6,0.1
	c-0.1,0-0.2,0.1-0.3,0.2c0,0.1-0.1,0.2-0.1,0.3c0,0.1,0,0.3,0,0.6c0,0.3,0,0.7,0,1.3c0,0.6,0,1.3,0,2.3L241.4,95.3L241.4,95.3z"/>
<path class="st0" d="M260.4,98c0,0.5,0,0.9,0,1.3c0,0.4,0,0.7,0.1,0.9c0.2,0.1,0.7,0.1,1.4,0.1c0.9,0,1.6,0,2.2-0.1
	c0.6,0,1-0.1,1.1-0.2c0.1-0.1,0.2-0.2,0.3-0.4s0.1-0.4,0.1-0.8h0.1l0.2,0.1c0,0.3,0,0.7-0.1,1.1c0,0.4-0.1,0.7-0.1,0.8
	c-0.1,0.1-0.3,0.1-0.5,0.1c-0.3,0-0.6,0-0.9,0c-0.3,0-0.6,0-0.9,0c-0.3,0-0.6,0-1,0c-0.3,0-0.7,0-1.1,0c-0.3,0-0.6,0-1,0
	c-0.4,0-0.8,0-1.3,0.1l-0.1-0.1c0.1-0.1,0.2-0.4,0.2-0.7c0-0.3,0.1-0.8,0.1-1.2s0-1,0-1.6c0-0.6,0-1.1,0-1.7v-1.4c0-1.2,0-2.1,0-2.7
	c0-0.7-0.1-1.1-0.2-1.5c0-0.1-0.1-0.2-0.3-0.2c-0.1,0-0.4-0.1-0.6-0.1l0,0v-0.2l0,0c0.2,0,0.5,0,0.8,0c0.3,0,0.6,0,0.9,0
	c0.2,0,0.5,0,0.8,0s0.8,0,1.2,0s0.9,0,1.4,0s0.9,0,1.4,0c0.1,0,0.2,0.1,0.2,0.2v0.8c0,0.1,0,0.2,0,0.3c0,0.1,0,0.3,0,0.6l-0.2,0.1
	l-0.1,0c0-0.3-0.1-0.5-0.2-0.7c-0.1-0.2-0.2-0.3-0.3-0.4c-0.1-0.1-0.3-0.2-0.6-0.2c-0.2,0-0.6,0-1,0c-0.5,0-0.9,0-1.3,0
	c-0.3,0-0.6,0-0.9,0.1c0,0.1,0,0.1-0.1,0.2c0,0.1,0,0.3,0,0.6s0,0.7,0,1.3c0,0.6,0,1.3,0,2.3c0.6,0,1.3,0,1.9,0c0.6,0,1.4,0,2.3-0.1
	v0.1c-0.1,0.2-0.3,0.4-0.3,0.6c-0.7,0-1.4,0-2,0s-1.2,0-1.8,0L260.4,98L260.4,98z"/>
<path class="st0" d="M106.2,108.4c-0.3,0-0.6,0-0.9,0s-0.4,0-0.6,0.1c0,0,0,0.1,0,0.1s0,0.2,0,0.4c0,0.2,0,0.5,0,0.8
	c0,0.4,0,0.9,0,1.6c0.4,0,0.9,0,1.3,0c0.4,0,0.9,0,1.5,0v0.1c-0.1,0.1-0.2,0.3-0.2,0.4c-0.5,0-1,0-1.4,0s-0.8,0-1.3,0v1.1
	c0,0.4,0,0.7,0,1s0,0.5,0,0.7s0,0.3,0,0.4c0,0.1,0,0.2,0.1,0.2c0,0.1,0.1,0.1,0.2,0.1c0.1,0,0.3,0,0.5,0.1l0,0v0.1l0,0
	c-0.2,0-0.3,0-0.6,0c-0.2,0-0.4,0-0.6,0c-0.1,0-0.3,0-0.5,0c-0.2,0-0.4,0-0.6,0l0,0v-0.1l0,0c0.2,0,0.3,0,0.4-0.1
	c0.1,0,0.2-0.1,0.2-0.2c0-0.1,0-0.2,0.1-0.3s0-0.3,0-0.5s0-0.6,0-0.9s0-0.9,0-1.5v-0.7c0-0.8,0-1.4,0-1.8c0-0.4-0.1-0.8-0.1-0.9
	c0-0.1-0.1-0.1-0.2-0.1c-0.1,0-0.3-0.1-0.4-0.1l0,0v-0.1l0,0c0.2,0,0.3,0,0.6,0c0.2,0,0.4,0,0.6,0c0.1,0,0.2,0,0.4,0s0.5,0,0.8,0
	c0.3,0,0.7,0,1,0c0.4,0,0.7,0,1,0c0.1,0,0.1,0,0.1,0.1v0.5c0,0.1,0,0.1,0,0.2c0,0.1,0,0.2,0,0.4l-0.2,0l-0.1,0
	c0-0.2-0.1-0.3-0.1-0.5c0-0.1-0.1-0.2-0.2-0.3c-0.1-0.1-0.2-0.1-0.4-0.1C106.6,108.5,106.4,108.4,106.2,108.4z"/>
<path class="st0" d="M120.2,111.7c0,0.6,0,1.2,0,1.6c0,0.4,0,0.8,0,1c0,0.3,0,0.4,0,0.6c0,0.1,0,0.2,0.1,0.3c0,0.1,0.1,0.1,0.2,0.1
	c0.1,0,0.3,0,0.4,0.1l0,0v0.1l0,0c-0.2,0-0.3,0-0.6,0c-0.2,0-0.4,0-0.6,0c-0.1,0-0.3,0-0.5,0c-0.2,0-0.4,0-0.6,0l0,0v-0.1l0,0
	c0.2,0,0.3,0,0.4-0.1c0.1,0,0.2-0.1,0.2-0.2c0-0.1,0-0.2,0.1-0.3s0-0.4,0-0.6c0-0.3,0-0.6,0-1.1c0-0.4,0-1,0-1.6V111
	c0-0.5,0-0.9,0-1.2c0-0.3,0-0.6,0-0.8c0-0.2,0-0.3-0.1-0.4s0-0.2-0.1-0.2c0-0.1-0.1-0.1-0.2-0.1c-0.1,0-0.2-0.1-0.4-0.1l0,0v-0.1
	l0,0c0.2,0,0.3,0,0.6,0c0.2,0,0.4,0,0.6,0c0.2,0,0.3,0,0.5,0c0.2,0,0.4,0,0.6,0l0,0v0.1l0,0c-0.2,0-0.3,0-0.4,0.1
	c-0.1,0-0.2,0.1-0.2,0.2c0,0,0,0.1-0.1,0.2c0,0.1,0,0.2,0,0.4c0,0.2,0,0.5,0,0.8c0,0.4,0,0.8,0,1.5L120.2,111.7L120.2,111.7z"/>
<path class="st0" d="M134.6,113.6c0,0.3,0,0.6,0,0.9c0,0.3,0,0.5,0.1,0.6c0.1,0,0.2,0,0.4,0c0.2,0,0.4,0,0.6,0c1.2,0,1.9-0.1,2-0.2
	c0.1,0,0.1-0.1,0.2-0.2c0-0.1,0.1-0.3,0.1-0.5h0l0.2,0.1c0,0.2,0,0.4-0.1,0.6c0,0.2-0.1,0.4-0.1,0.5c-0.1,0-0.2,0-0.4,0
	c-0.2,0-0.4,0-0.6,0s-0.4,0-0.6,0c-0.2,0-0.4,0-0.6,0s-0.5,0-0.7,0c-0.2,0-0.5,0-0.7,0c-0.2,0-0.5,0-0.7,0l-0.1-0.1
	c0.1-0.2,0.2-0.5,0.2-1.1c0-0.6,0-1.3,0-2.3v-1c0-0.5,0-0.9,0-1.2s0-0.6,0-0.8c0-0.2,0-0.3-0.1-0.4c0-0.1,0-0.2-0.1-0.2
	c0-0.1-0.1-0.1-0.2-0.1c-0.1,0-0.2-0.1-0.4-0.1l0,0v-0.1l0,0c0.1,0,0.3,0,0.5,0c0.2,0,0.4,0,0.6,0c0.1,0,0.3,0,0.5,0
	c0.2,0,0.4,0,0.6,0l0,0v0.1l0,0c-0.2,0-0.4,0-0.4,0.1c-0.1,0-0.2,0.1-0.2,0.2c0,0,0,0.1-0.1,0.2c0,0.1,0,0.2,0,0.4
	c0,0.2,0,0.5,0,0.8c0,0.4,0,0.8,0,1.5L134.6,113.6L134.6,113.6z"/>
<path class="st0" d="M148.7,108.1c0.2,0,0.3,0,0.5,0c0.1,0,0.3,0,0.4,0c0.2,0,0.4,0,0.4,0l0.1,0.1c0.3,0.5,0.5,1.1,0.8,1.6
	c0.3,0.6,0.6,1.1,0.9,1.7c0.3,0.5,0.6,1.1,0.9,1.6c0.3,0.5,0.6,1,0.8,1.5c0.2-0.3,0.4-0.8,0.7-1.3s0.6-1,0.9-1.6
	c0.3-0.6,0.6-1.2,0.9-1.8c0.3-0.6,0.6-1.2,0.8-1.7c0.1,0,0.2,0,0.3,0c0.1,0,0.1,0,0.2,0c0.2,0,0.4,0,0.6,0c0.2,0,0.4,0,0.5,0l0,0
	v0.1l0,0c-0.2,0-0.3,0-0.4,0.1s-0.2,0.1-0.3,0.2c0,0.1-0.1,0.1-0.1,0.2c0,0.1,0,0.1,0,0.2s0,0.2,0,0.4c0,0.2,0,0.4,0,0.7
	c0,0.3,0,0.6,0,0.9c0,0.3,0,0.7,0,1c0,0.3,0,0.7,0.1,1.1c0,0.3,0,0.7,0.1,0.9c0,0.3,0,0.5,0.1,0.7c0,0.2,0,0.4,0.1,0.4
	c0,0.1,0.1,0.2,0.2,0.2c0.1,0,0.3,0.1,0.5,0.1l0,0v0.1l0,0c-0.1,0-0.3,0-0.6,0c-0.2,0-0.4,0-0.6,0c-0.1,0-0.3,0-0.5,0
	c-0.2,0-0.4,0-0.5,0l0,0v-0.1l0,0c0.3,0,0.5-0.1,0.6-0.2c0-0.1,0.1-0.1,0.1-0.2c0-0.1,0-0.2,0-0.2c0-0.1,0-0.3,0-0.6
	c0-0.3,0-0.7,0-1.1c0-0.4,0-0.8,0-1.3c0-0.5,0-0.9,0-1.3s0-0.8,0-1.1s0-0.5,0-0.6h0c-0.3,0.6-0.6,1.1-0.9,1.7
	c-0.3,0.6-0.6,1.1-0.9,1.7c-0.3,0.6-0.6,1.1-0.9,1.7s-0.6,1.2-0.9,1.8h-0.1c-0.2-0.4-0.4-0.9-0.7-1.4c-0.3-0.5-0.6-1.1-0.9-1.6
	s-0.6-1.1-0.9-1.7c-0.3-0.6-0.7-1.2-1-1.8c0,0.3-0.1,0.6-0.1,1c0,0.4-0.1,0.8-0.1,1.1s-0.1,0.8-0.1,1.2c0,0.4-0.1,0.7-0.1,1.1
	s0,0.6-0.1,0.8c0,0.2,0,0.4,0,0.5c0,0.1,0,0.1,0,0.2c0,0.1,0.1,0.1,0.1,0.2c0.1,0.1,0.2,0.1,0.3,0.2c0.1,0,0.2,0,0.4,0.1l0,0v0.1
	l0,0c0,0-0.1,0-0.2,0s-0.2,0-0.3,0s-0.2,0-0.3,0c-0.1,0-0.2,0-0.3,0c-0.1,0-0.3,0-0.5,0c-0.2,0-0.3,0-0.5,0l0,0v-0.1l0,0
	c0.2,0,0.3,0,0.4-0.1c0.1,0,0.2-0.1,0.2-0.2c0.1-0.1,0.1-0.2,0.1-0.4s0.1-0.4,0.1-0.8c0-0.3,0.1-0.7,0.1-1c0-0.4,0.1-0.8,0.1-1.1
	s0.1-0.8,0.1-1.2s0.1-0.8,0.1-1.1c0-0.2,0-0.3,0-0.4c0-0.1,0-0.2,0-0.3c0-0.2,0-0.3-0.1-0.3c-0.1-0.1-0.1-0.1-0.2-0.2
	s-0.2-0.1-0.4-0.1l0,0L148.7,108.1L148.7,108.1z"/>
<path class="st0" d="M173.2,113.6c0-0.2,0-0.4-0.1-0.6c-0.1-0.2-0.2-0.3-0.4-0.4c-0.1-0.1-0.3-0.2-0.5-0.3s-0.4-0.2-0.7-0.2
	l-0.3-0.1c-0.2-0.1-0.4-0.1-0.7-0.2c-0.2-0.1-0.4-0.2-0.6-0.3s-0.3-0.3-0.4-0.5s-0.2-0.5-0.2-0.8c0-0.3,0.1-0.6,0.2-0.9
	c0.1-0.3,0.4-0.5,0.6-0.7c0.3-0.2,0.6-0.3,0.9-0.5s0.7-0.2,1-0.2c0.5,0,0.8,0.1,1,0.2s0.4,0.2,0.5,0.3c-0.1,0.1-0.1,0.3-0.2,0.5
	s-0.1,0.4-0.1,0.6l-0.2,0l-0.1,0c0-0.2,0-0.3,0-0.5c0-0.2-0.1-0.3-0.2-0.4s-0.3-0.2-0.5-0.3c-0.2-0.1-0.4-0.1-0.7-0.1
	c-0.2,0-0.4,0-0.6,0.1s-0.4,0.2-0.5,0.3c-0.2,0.1-0.3,0.3-0.4,0.5c-0.1,0.2-0.1,0.4-0.1,0.7c0,0.2,0.1,0.4,0.1,0.6
	c0.1,0.2,0.2,0.3,0.4,0.4c0.2,0.1,0.3,0.2,0.5,0.3c0.2,0.1,0.4,0.2,0.7,0.2l0.4,0.1c0.6,0.1,1.1,0.3,1.4,0.6
	c0.3,0.3,0.5,0.6,0.5,1.1c0,0.4-0.1,0.8-0.3,1.1s-0.4,0.6-0.7,0.8c-0.3,0.2-0.6,0.4-1,0.5c-0.4,0.1-0.8,0.2-1.2,0.2
	c-0.3,0-0.5,0-0.7-0.1s-0.4-0.1-0.5-0.2c-0.1-0.1-0.3-0.1-0.3-0.2c-0.1-0.1-0.1-0.1-0.1-0.1c0.1-0.1,0.1-0.2,0.2-0.5
	s0.1-0.5,0.1-0.8l0.2,0c0,0.2,0,0.4,0.1,0.6s0.1,0.3,0.2,0.4c0.1,0.1,0.3,0.2,0.4,0.3s0.4,0.1,0.8,0.1c0.3,0,0.5,0,0.7-0.1
	c0.3-0.1,0.5-0.1,0.7-0.3c0.2-0.1,0.4-0.3,0.5-0.5C173.1,114.2,173.2,113.9,173.2,113.6z"/>
<g>
	<path class="st0" d="M114.7,67.5c-3.2,0-6.4,0.2-9.6,0.2l-1.5,0c0-3,0-7.4,0-10.4c0-0.2,0-0.7,0-0.7l0-0.8c0.4,0,1.8-0.2,2.2-0.2
		c0.5-0.1,0.9-0.1,1.4-0.3c0.3-0.1,0.8-0.2,0.8-0.5c0-0.3-0.6-0.3-0.9-0.3c-0.8,0-2.7,0-3.5,0l0-0.9l0-1.1c0.3,0,1.6,0,1.9,0
		c1.9-0.1,3.8-0.2,5.6-0.3c0.3,0,0.6-0.1,0.9-0.2c0.1,0,0.2-0.1,0.2-0.2s-0.1-0.2-0.2-0.2c-0.4-0.1-0.7-0.1-1.1-0.1
		c-1.4-0.1-2.9-0.1-4.3-0.2c-0.6,0-2.4,0-3,0v-1.8c0,0,0.3-0.1,1.2-0.1c2.8,0,5.5,0,8.3,0.1c0.6,0,1.1,0.2,1.5,0.6
		c0.3,0.3,0.7,0.2,0.8-0.2c0.1-0.6,0.4-0.9,1-1c0.1,0,0.3-0.1,0.3-0.2c0-0.2-0.2-0.3-0.3-0.3c-0.2-0.1-0.5-0.2-0.8-0.3
		c-0.7-0.4-0.7-1.2-0.1-1.6c0.4-0.3,1-0.3,1.6-0.5c0.3-0.1,1-0.2,1-0.3c0-0.2-0.6-0.3-1-0.4c-0.4-0.1-0.9-0.2-1.3-0.3
		c-0.4-0.2-0.8-0.5-0.7-1c0.1-0.5,0.7-0.8,1.1-0.8c1.8,0,3.5,0,5.2,0c0.3,0,0.7,0.2,0.7,0.4c0.1,0.2-0.2,0.6-0.3,0.8
		c-0.2,0.2-0.5,0.3-0.8,0.5c-0.6,0.4-0.6,0.6-0.2,1.2c0.4,0.5,0.8,1.1,1,1.7c0.4,0.8,0.3,1-0.3,1.6c-1.2,1.1-1.8,2.5-2.1,4
		c0,0.2-0.1,0.4,0,0.6c0,0.1,0.2,0.1,0.3,0.2c0,0,0.1-0.1,0.1-0.2c0.8-0.9,1.5-1.7,2.3-2.6c0.4-0.4,0.8-0.8,1.2-1.3
		c0.7-0.8,0.9-1.7,0.6-2.8c-0.3-0.9-0.2-1.1,0.8-1.3c0.5-0.1,1.1-0.1,1.6,0c0.4,0.1,0.9,0.3,1.3,0.6c0.3,0.2,0.4,0.7,0.4,1.1
		c0,0.4-0.5,0.5-0.9,0.5c-0.1,0-0.3,0-0.4,0.1c-0.1,0-0.2,0.2-0.2,0.3c0,0,0.1,0.2,0.2,0.2c0.3,0.1,0.5,0.2,0.8,0.3
		c0.9,0.3,1.3,0.7,1.1,1.7c-0.2,0.8-0.5,1.5-0.9,2.3c-0.3,0.7-0.7,1.3-1,1.9c-0.1,0.2-0.2,0.5-0.2,0.8c0,0.3,0.2,0.4,0.4,0.2
		c1-1.2,2.1-2.3,3-3.6c0.5-0.6,0.6-1.3,0.5-2.1c-0.1-0.8,0.1-1,0.9-1c0.2,0,0.4,0,0.6,0c0.9,0,0.9,0.1,1.1,1
		c0.3,1.3,0.6,2.5,0.9,3.8c0.1,0.8,0.3,1.5,0.3,2.3c0,1-0.2,1.2-1.2,1.3c-1.5,0.2-3,0.3-4.5,0.4c-0.6,0.1-1.2,0.2-1.7,0.3
		c-0.3,0.1-0.7,0.2-0.7,0.5c0,0.3,0.4,0.3,0.6,0.5c0.1,0.1,1.3,0.3,1.4,0.5c0,0.3-0.9,0.3-1,0.4c-1.5,0.2-3.1,0.3-4.6,0.5
		c-0.3,0-0.7,0.1-0.9,0.2c-0.1,0.1-0.2,0.2-0.2,0.3c0,0.2,0.2,0.3,0.2,0.3c0.3,0.1,0.5,0.1,0.8,0.1c1.4,0.1,2.9,0.2,4.3,0.3
		c0.3,0,3.5,0.1,3.7,0.2c0.1,0,0.2,0.1,0.2,0.1c0,0.1-0.2,0.1-0.3,0.1c-0.3,0.1-3.1,0.2-4.2,0.2c-1.6,0.1-4.8,0.2-6.3,0.5
		c-0.4,0.1-1.1,0.2-1.6,0.4c-0.3,0.1-0.4,0.4-0.4,0.5s0.2,0.3,0.4,0.4c0.3,0.1,0.5,0,0.8,0.1c2.6,0.1,5.8,0.2,7.9,0.2
		c0.3,0,2.4,0.1,2.4,0.3c0,0.2-1.3,0.3-2.3,0.3c-1.7,0.1-4.5,0.2-6.7,0.4c-1,0.1-2.1,0.2-3.1,0.4c-0.2,0-0.5,0.2-0.5,0.4
		c0,0.2,0.4,0.3,0.6,0.3c0.7,0.1,1.5,0.2,2.2,0.2c1.2,0,2.3,0,3.5,0c0.7,0,1.3,0,1.9,0.1c0.3,0,1.6,0,1.6,0.3c0,0.3-1.3,0.3-1.6,0.3
		c-2.6,0.1-5.1,0.2-7.7,0.3C116.4,67.6,115.5,67.5,114.7,67.5C114.7,67.6,114.7,67.5,114.7,67.5z"/>
	<path class="st0" d="M153.2,14.8c-4-0.3-6.9-0.6-9.9-0.1c-0.4,0.1-0.9,0-1.3-0.1c-1.9-0.5-3.8-0.7-5.7-0.3
		c-1.8,0.3-3.6,0.6-5.5,0.8c-1.2,0.1-2.4,0.1-3.6,0c-2.1-0.3-4.2-0.2-6.3,0c-1.9,0.1-3.8,0.2-5.7,0.3c-0.5,0-1.2-0.1-1.6-0.2
		c-0.3-0.1-0.5-0.1-0.8-0.3c-0.6-0.4-0.6-1.1,0.1-1.3c0.7-0.2,1.5-0.4,2.3-0.4c1.7,0,3.4,0.1,5.1,0.3c1.3,0.1,2.6,0.3,3.9,0.3
		c1.4,0.1,2.9-0.1,4.2-0.5c0.5-0.2,1.1-0.2,1.7-0.2c2.4,0.2,4.7,0.4,7.1,0.6c0.3,0,0.6,0.1,0.8-0.1c2.1-0.8,4.4-0.7,6.6-0.5
		c2,0.2,4.2,0.3,6.3,0c1.2-0.2,2.3-0.1,3.4,0c2.7,0.1,5.2,0.1,7.9,0.1c0.3,0,0.7-0.1,1,0c0.2,0,0.6,0.1,0.7,0.3
		c0,0.3-0.3,0.5-0.5,0.5c-1.3,0.3-2.5,0.8-3.8,0.9C157.1,14.8,154.6,14.8,153.2,14.8z"/>
	<path class="st0" d="M128.4,26.7c-0.3,0-0.7,0-1,0c-1-0.1-1.1-0.9-0.7-1.3c0.1-0.1,0.4-0.4,0.5-0.5c1-0.8,1.6-1.4,2.7-2.4
		c1.3-0.9,2.8-0.8,4.4-0.6c0.9,0.1,1.9,0.2,2.9,0.2c3.9,0,7.7-0.3,11.6-0.4c2.2,0,4.5,0.2,6.7,0.3c0.4,0,1.1-0.1,1.1,0.4
		c0,0.7-0.7,0.4-1.2,0.4c-0.4,0-0.8,0-1.2,0c-1.2-0.2-2.3,0-3.4,0.4c-0.7,0.3-1.5,0.4-2.3,0.4c-3.1-0.1-6.2-0.3-9.3-0.5
		c-3-0.2-5.7-0.3-8.6,0.5c-0.3,0.1-0.7,0.2-0.7,0.5c0,0.3,0.4,0.4,0.7,0.5c2.4,0.6,4.6,0.5,7.1,0.4c2.5-0.2,5.6-0.6,7.5-0.6
		c0.8,0,1.9,0,2.7,0c0.3,0,1,0.5,0.6,1.3c-0.4,0.6-0.9,0.7-1.6,0.7c-3.1,0-6.8,0-9.3,0.2C135.1,26.7,131.4,26.7,128.4,26.7z"/>
	<path class="st0" d="M135.8,29.3c-3.2,0-6.4,0-9.6,0c-0.4,0-1.2,0-1.5-0.3c-0.4-0.5,1-0.8,1.3-0.9c1.1-0.1,2.9-0.4,4.4-0.3
		c1.7,0.1,3.3,0.3,5,0.3c1.1,0,2.2-0.2,3.2-0.3c0.8-0.1,1.6-0.3,2.3-0.3c1.3,0,2.6-0.1,3.9-0.1c0.5,0,1.1,0.1,1.6,0.2
		c0.3,0.1,0.9,0.3,0.9,0.5c0,0.3-0.2,0.8-0.4,1c-0.4,0.5-1,0.4-1.6,0.4C142.2,29.4,135.8,29.3,135.8,29.3z"/>
	<path class="st0" d="M164.7,47.6c-1.7,0.1-4.5,0.2-6.8,0.3c-1,0-1.6-0.5-1.8-1.5c-0.1-0.4,0.1-0.6,0.4-0.7c0.2,0,0.4-0.1,0.6-0.1
		c2.2,0,4.4,0.1,6.6,0.1c0.3,0,0.6,0,0.8,0.1c0.6,0.2,0.3,0.5,1.4-0.1c0.2-0.2,1-0.2,1.3-0.2c1.5,0,2.9,0,4.4,0c0.3,0,0.6,0,0.8,0
		c0.2,0,0.3,0,0.3,0v1.8c-0.8,0.1-2.5,0-3.3,0C168,47.4,165.9,47.5,164.7,47.6z"/>
	<path class="st0" d="M144.6,20.9c-4.4-0.1-8.4-0.4-11.8-0.5c-0.3,0-0.6,0-0.8-0.1c-0.2-0.1-0.5-0.5-0.4-0.7c0-0.2,0.3-0.5,0.5-0.6
		c0.3-0.1,0.6,0,0.9,0c2.3,0.2,4.6,0.5,6.9,0.7c0.6,0,1.3,0,1.8-0.1c1.9-0.6,3.9-0.9,5.9-0.7c2.6,0.2,6.3,0.5,8.9,0.8
		c0.1,0,0.2,0,0.3,0c0.1,0,0.3,0.1,0.3,0.2c0,0.1-0.1,0.1-0.2,0.2c-0.3,0.1-1.9,0.2-2.2,0.3C150.8,20.4,147.6,20.7,144.6,20.9z"/>
	<path class="st0" d="M143.8,57.1c-1.8,0.1-1.7-0.2-1.1-1.6c0.3-0.6,0.6-1.2,0.8-1.8c0.3-0.8,0.6-1.6,0.4-2.5
		c-0.2-0.8,0-1.6,0.4-2.4c0.6-1.2,1.2-2.3,1.8-3.4c0.1-0.2,0.4-0.5,0.6-0.4c0.2,0.1,0.5,0.3,0.6,0.6c0.1,0.4,0,0.8,0,1.2
		c0,0.8-0.1,1.6-0.1,2.4c0,1.1-0.3,2.1-0.8,3c-0.6,1.3-1.3,2.5-1.2,4.1c0,0.5-0.3,0.7-0.8,0.8C144.3,57.1,144.1,57.1,143.8,57.1z"/>
	<path class="st0" d="M136.5,52.5c-0.2-0.9-0.3-1.7-0.4-2.6c-0.1-0.4,0-0.8,0.4-1c0.5-0.2,1.2,0,1.3,0.7c0.1,0.8,0.3,1.6,0.6,2.4
		c0.1,0.3,0.5,0.8,0.7,0.7c0.5-0.1,0.2-0.6,0.2-1c0-0.6-0.1-1.2,0-1.7c0-0.3,0.2-0.7,0.4-0.9c0.3-0.4,0.6-0.7,1.1-0.5
		c0.4,0.2,0.4,0.6,0.4,1c0,0.8,0.1,1.5,0.1,2.2c0.1,1.1,0,2-0.8,2.9c-0.3,0.3-0.4,0.8-0.6,1.2c-0.3,0.8-0.9,1.2-1.7,1.3
		c-0.8,0.1-1.6,0.2-1.2-1.1c0.1-0.2,0-0.4,0-0.6C137,55.5,136.7,53.5,136.5,52.5z"/>
	<path class="st0" d="M160.9,44.7c-0.9,0-2.4,0-3.6,0c-1.1,0-1.6-0.8-1.2-1.8c0.2-0.5,0.6-0.6,1-0.6c0.8,0,1.6,0.1,2.4,0.1
		c2,0.1,4,0.2,6,0.3c0.3,0,0.7,0,0.8,0.3c0.1,0.2-0.2,0.5-0.3,0.7c-0.3,0.6-0.9,0.8-1.5,0.8C163.3,44.5,161.8,44.6,160.9,44.7z"/>
	<path class="st0" d="M122.8,20.1c-2.3,0-4.7-0.2-7,0.3c-0.8,0.2-1.7,0.3-2.5,0.3c-0.8,0-1.1-0.3-1.2-0.7c0-0.5,0.5-1,1.2-1
		c2.2,0,4.3,0,6.4,0.1c2.9,0.1,5.8,0.5,8.8,0.2c0.2,0,0.4,0,0.6,0.1c0.1,0,0.2,0.2,0.2,0.3c0,0.1-0.1,0.3-0.2,0.3
		c-0.3,0.1-0.7,0.2-1,0.2C126.3,20.1,124.6,20.1,122.8,20.1z"/>
	<path class="st0" d="M116.9,36.8c1.4,0.1,2.7,0.1,4.1,0.2c0.8,0,1.2,0.3,1.2,0.7c0,0.4-0.3,0.6-1.2,0.7c-2.6,0.1-5.2,0.3-7.8,0.4
		c-0.2,0-0.4,0-0.6,0c-0.8,0-1.1-0.3-1-1.1c0-0.8,0.3-1.1,1.1-1.1c1,0,2,0.1,3,0.1C116,36.8,116.4,36.8,116.9,36.8
		C116.9,36.8,116.9,36.8,116.9,36.8z"/>
	<path class="st0" d="M162.1,41.4c-0.9,0-2.5,0-3.7,0c-0.3,0-0.6,0-0.8,0c-0.4,0-0.7-0.2-0.7-0.6c0-0.5,0.2-0.8,0.7-0.8
		c0.1,0,0.2,0,0.3,0c2-0.1,3.9-0.3,5.9-0.4c0.7,0,1.4-0.1,2.1-0.1c0.2,0,0.5,0,0.7,0.1c0.5,0.1,0.8,0.7,0.8,1.2
		c-0.1,0.5-0.4,0.7-0.9,0.7C165.1,41.4,163.2,41.4,162.1,41.4z"/>
	<path class="st0" d="M115,35.7c-0.9,0-1.8-0.1-2.5-0.2c-0.7-0.1-1-0.6-0.9-1.2c0.1-0.5,0.4-0.8,1.1-0.8c2.3,0.1,4.5,0.3,6.8,0.4
		c0.3,0,1,0.1,1.3,0.3c0.2,0.1,0.7,0.3,0.6,0.5c0,0.3-0.4,0.3-0.7,0.4C118.9,35.4,116.8,35.7,115,35.7z"/>
	<path class="st0" d="M107.8,46.3c1.1,0,3-0.1,4.4-0.3c1-0.1,1.2,0.8,1.1,1.2c-0.1,0.3-0.4,0.7-1.2,0.7c-1.1,0-2.2-0.1-3.3-0.2
		c-1.5,0-4,0.1-5.4,0.1l0-1.7c0,0,0.3,0,1,0C105.6,46.2,107,46.3,107.8,46.3z"/>
	<path class="st0" d="M132.6,35.2c-0.6,0-1.6,0-2.4,0c-0.5,0-1.1-0.1-1.3-0.5c-0.2-0.4-0.4-0.8-0.4-1.2c0.1-0.5,0.9-0.4,1.3-0.4
		c1-0.1,2-0.2,3-0.2c0.7,0,1.4,0,2,0.2c0.5,0.1,0.9,0.4,1.4,0.7c0.2,0.2,0.4,0.5,0.4,0.7c-0.1,0.2-0.4,0.4-0.7,0.4
		c-0.4,0.1-0.9,0.1-1.3,0.1C133.9,35.1,133.1,35.2,132.6,35.2z"/>
	<path class="st0" d="M158.7,38.2c-0.2,0-0.4,0-0.5,0c-0.3-0.1-0.6-0.3-0.6-0.5c-0.1-0.4,0.3-0.6,0.6-0.6c1.8-0.3,3.6-0.5,5.5-0.8
		c0.9-0.1,1.8-0.1,2.5,0.5c0.2,0.2,0.4,0.3,0.5,0.5c0.1,0.2,0.3,0.5,0.2,0.7s-0.4,0.3-0.7,0.3c-1.3,0-3,0.1-4,0
		C161.4,38.3,159.9,38.2,158.7,38.2z"/>
	<path class="st0" d="M105,44.8c-0.3,0-1.3,0.1-1.5,0v-1.5c0,0,0.5,0,0.7,0c0.7,0,1.1,0,1.8-0.1c2,0,4,0,6-0.1c0.1,0,0.3,0,0.4,0
		c0.5,0.1,0.9,0.5,0.8,1c0,0.5-0.4,0.6-0.9,0.6c-1.3,0-2.8,0-3.8,0C107.7,44.7,106.2,44.8,105,44.8z"/>
	<path class="st0" d="M136.3,41.6c-0.4,0-1,0-1.5,0c-0.9,0-1.4-0.5-1.9-1.1c-0.3-0.3-0.1-0.7,0.4-0.7c0.1,0,0.1,0,0.2,0
		c3,0.7,6,0.1,8.9-0.2c0.4,0,0.8,0,1.1,0c0.1,0,0.3,0.2,0.3,0.2c0,0.1-0.1,0.3-0.2,0.3c-0.4,0.2-1.1,0.7-1.5,0.8
		C140.1,41.6,138.4,41.5,136.3,41.6z"/>
	<path class="st0" d="M116.9,41.8c-0.5-0.1-1.3-0.2-2.1-0.4c-0.5-0.1-0.9-0.5-1.3-0.8c-0.3-0.3-0.2-0.6,0.2-0.7
		c0.3-0.1,0.5-0.1,0.8,0c2.3,0.1,4.7,0.2,7.1,0.2c0.3,0,0.7,0,1,0.2c0.2,0.1,0.3,0.4,0.3,0.6c0,0.1-0.2,0.3-0.4,0.4
		c-0.1,0-0.2,0-0.3,0.1C120.6,41.5,118.9,41.6,116.9,41.8z"/>
	<path class="st0" d="M140.9,30.5c0.9,0,1.9,0,2.9,0c0.3,0,0.6,0,0.8,0.1c0.5,0.1,0.6,0.5,0.3,0.9c-0.2,0.2-0.6,0.5-0.9,0.5
		c-0.7,0.2-1.4,0.3-2.1,0.3c-1.3,0-2.5-0.1-3.8-0.2c-0.5,0-1.3-0.3-1.7-0.5c-0.2-0.1-0.5-0.4-0.4-0.6c0.1-0.2,0.4-0.3,0.6-0.4
		c0.6-0.1,1.5-0.1,2.1-0.1C139.4,30.5,140.2,30.5,140.9,30.5L140.9,30.5z"/>
	<path class="st0" d="M151.7,42.4c0.7,0,1.4,0,2,0c0.8,0,1.1,0.6,0.6,1.3c-0.5,0.8-1.2,1-2.1,1.1c-0.7,0-1.4,0-2.1-0.1
		c-0.8-0.1-1.5-0.9-1.4-1.7c0.1-0.5,0.4-0.5,0.7-0.5c0.1,0,0.1,0,0.2,0C150.3,42.4,151,42.4,151.7,42.4z"/>
	<path class="st0" d="M143.7,38.7c-0.4,0-0.9,0-1.4-0.1c-0.5-0.1-0.7-0.5-0.6-1c0.1-0.7,0.7-1.2,1.4-1.2c1.4,0,2.8,0,4.2,0
		c0.2,0,0.6,0.2,0.6,0.3s-0.1,0.5-0.3,0.7c-0.7,0.7-1.6,1.1-2.6,1.2C144.6,38.7,144.1,38.7,143.7,38.7z"/>
	<path class="st0" d="M154.3,39.5c0.3,0,0.7,0.2,0.8,0.5c0.2,0.4,0.1,0.8-0.3,1.1c-0.3,0.2-0.7,0.4-1,0.4c-0.5,0.1-1.1,0-1.6,0
		c-0.9,0-1.8,0-2.6-0.1c-0.3,0-0.8-0.2-0.8-0.3c0-0.3,0.1-0.7,0.3-0.9c0.4-0.3,1-0.7,1.5-0.8c0.7-0.2,1.4-0.1,2.1-0.1
		C152.7,39.3,153.8,39.4,154.3,39.5z"/>
	<path class="st0" d="M170.9,24.4c0.2,0,1,0,1.3,0.1c0.2,0,0.7,0.1,0.7,0.1l0,1.5c0,0-1.2,0-1.3,0c-2.1,0.2-3.8,0.1-5.9,0.2
		c-0.1,0-0.9,0-1-0.1c-0.2,0-0.7-0.2-0.8-0.4c-0.2-0.4,0.2-0.8,0.5-1c0.3-0.2,1.1-0.3,1.4-0.3c0.7,0,2.1,0,2.9,0
		C169.2,24.5,170,24.4,170.9,24.4z"/>
	<path class="st0" d="M105,41.7c-0.3,0-1.3,0.1-1.5,0l0-1.3c0,0,0.3,0,0.7-0.1c0.1,0,0.2,0,0.3,0c1.4,0,2.8-0.1,4.2,0
		c0.8,0,1.5,0.4,2.2,0.6c0.2,0.1,0.4,0.4,0.4,0.6c-0.1,0.2-0.4,0.3-0.6,0.3c-1,0-2.2,0-3,0C107,41.7,105.9,41.7,105,41.7z"/>
	<path class="st0" d="M158.4,34.8c-0.2,0-0.7,0.1-0.9,0c-0.3-0.2-0.4-0.7,0-0.8c0.1-0.1,0.6-0.1,0.8-0.1c1.4-0.2,2.9-0.4,4.3-0.6
		c0.4,0,0.8-0.1,1.1-0.1c0.5,0,1.1,0.8,0.9,1.3c-0.1,0.2-0.4,0.4-0.7,0.4c-0.9,0-2.2,0.1-2.9,0C160.4,34.8,159.3,34.8,158.4,34.8z"
		/>
	<path class="st0" d="M119.5,23c-0.8,0-1.9,0.2-2.6,0.1c-0.6-0.1-1.9,0-2.4-0.3c-0.2-0.1-0.6-0.3-0.6-0.5c0-0.3,0.7-0.3,0.8-0.4
		c0.3-0.1,1,0,1.3,0c1.1,0.1,2.9,0.4,4.4,0.6c1.4,0.2,2.7,0.2,4.1-0.2c0.4-0.1,0.9-0.2,1.3-0.2c0.4,0,1.1,0.2,1.1,0.3
		c0,0.5-0.5,0.5-0.9,0.6c-0.7,0.1-1.5,0.3-2,0.3C122.8,23.2,121,23,119.5,23z"/>
	<path class="st0" d="M107.5,26.7c-0.7,0-1.7,0-2.6,0c-0.2,0-1.3,0.1-1.5,0v-1.5c0,0,0.6,0,1,0c1.8,0,3.6,0,5.3,0c0.3,0,0.7,0,1,0.2
		c0.2,0.1,0.4,0.3,0.4,0.5c0,0.2-0.3,0.3-0.5,0.4c-0.2,0.1-0.3,0.1-0.6,0.1C109.2,26.6,108.1,26.7,107.5,26.7z"/>
	<path class="st0" d="M132.8,36.8c1.5,0.1,2.9,0.2,4.2,0.3c0.2,0,0.6,0.1,0.7,0.4c0,0.2-0.3,0.5-0.5,0.5c-1.3,0.3-2.6,0.5-3.9,0.7
		c-0.7,0.1-1.4-0.1-1.9-0.5c-0.2-0.2-0.4-0.5-0.4-0.7c0-0.2,0.4-0.4,0.7-0.5C132,36.8,132.5,36.8,132.8,36.8z"/>
	<path class="st0" d="M145.7,35.2c-0.6,0-1.1,0-1.6,0c-0.4,0-0.6-0.4-0.3-0.7c0.2-0.2,0.5-0.4,0.8-0.6c1.5-0.8,3.1-0.8,4.7-0.7
		c0.6,0,0.6,0.3,0.3,0.8c-0.5,0.7-1,1-1.9,1C147.1,35,146.4,35.1,145.7,35.2z"/>
	<path class="st0" d="M170.1,44.4c-0.9,0.2-1.5,0.1-2,0.1c-1.1-0.1-0.7-0.5-0.3-0.9c0.4-0.4,0.9-0.8,1.4-1c0.9-0.2,2.8-0.3,3.8-0.3
		c0,0,0,0.4,0,1c0,0.6,0,1,0,1C172.2,44.4,170.7,44.3,170.1,44.4z"/>
	<path class="st0" d="M149.8,32.3c-0.7,0-1.4-0.1-2.1-0.2c-0.6-0.1-0.7-0.5-0.3-0.9c0.4-0.3,0.9-0.7,1.4-0.7c1.4,0,2.7,0.1,4.1,0.3
		c0.6,0.1,0.7,0.6,0.2,0.9c-0.4,0.3-0.9,0.4-1.3,0.5C151.1,32.3,150.5,32.3,149.8,32.3C149.8,32.3,149.8,32.3,149.8,32.3z"/>
	<path class="st0" d="M171.4,27.6c0.2,0,0.6,0,0.8,0.1c0.1,0,0.8,0.1,0.8,0.1l0,1.1c0,0-1.1,0.1-1.3,0.1c-1.5,0.1-2.9,0.1-4.4,0.2
		c-0.5,0-1.2-0.1-1.5-0.6c-0.4-0.7-0.3-1.1,0.8-1c0.9,0.1,1.9,0,2.6,0C169.8,27.6,170.6,27.6,171.4,27.6z"/>
	<path class="st0" d="M168.4,23.1c-0.6,0-1.7,0.1-2.2,0.1c-0.4,0-0.9-0.1-0.9-0.6c-0.1-0.4,0.3-0.8,0.7-0.9c0.4-0.1,1.5-0.3,1.9-0.3
		c1.5,0.1,3.7,0.2,5.1,0.4v1c-0.4,0.1-0.9,0.1-1.2,0.1C170.8,22.9,169.2,23,168.4,23.1z"/>
	<path class="st0" d="M107.3,37c0.4,0,0.9,0,1.3,0.1c0.3,0.1,0.6,0.2,0.8,0.5c0.2,0.3-0.1,0.8-0.4,0.9c-0.3,0.2-0.8,0.3-1.2,0.3
		c-0.7,0-1.6-0.1-2.3-0.1c-0.5,0-1.6,0-2-0.1v-1.3c0,0,0.3,0,0.5,0c1-0.1,1.4-0.2,2.3-0.2C106.6,36.9,106.9,37,107.3,37z"/>
	<path class="st0" d="M168.2,34.9c-0.6,0-0.9-0.3-1-0.8c-0.2-0.6,0.1-0.9,0.7-1c0.6,0,1.1,0.1,1.7,0.1c0.7,0,1.5,0,2.2,0
		c0.4,0,1.1,0.1,1.1,0.1c0,0.5,0,1.6,0,1.6c-0.7,0.1-2.6,0.1-3.2,0.1C169.4,35,168.7,34.9,168.2,34.9z"/>
	<path class="st0" d="M169.1,32c-0.6,0-1.2,0-1.7,0c-0.3,0-0.6-0.1-0.9-0.3c-0.5-0.4-0.4-1,0.2-1.2c0.3-0.1,0.6-0.1,0.9-0.1
		c1.4,0.1,2.8,0,4.2,0.1c0.2,0,1.1,0.1,1.1,0.1l0,1.3C172,31.9,169.1,31.9,169.1,32z"/>
	<path class="st0" d="M107.2,29.6c-0.6,0-1.5,0.1-2.3,0.1c-0.2,0-1.1,0.1-1.4,0v-1.4c0,0,0.7,0.1,0.9,0.1c0.3,0,0.8,0,1.1,0
		c1.2,0,2.3,0,4.3-0.1c0.1,0,0.8-0.1,0.9-0.1c0.2,0,0.4,0.1,0.5,0.3c0.1,0.2,0,0.5-0.2,0.6c-0.3,0.2-0.8,0.4-1.2,0.4
		C109,29.6,107.8,29.6,107.2,29.6z"/>
	<path class="st0" d="M105.1,35.5c-0.2,0-0.7,0-1.7,0v-1.7c0,0,0.5,0,1.2,0c1.2,0,2.1,0,3.3,0c0.2,0,0.6,0.1,0.8,0.1
		c0.3,0.1,0.7,0.2,0.7,0.5c0.1,0.4-0.4,0.6-0.7,0.7C108.1,35.2,106.4,35.5,105.1,35.5z"/>
	<path class="st0" d="M170.6,36.2c0.4,0,1.9,0,2.3,0.1c0,0,0,1.4,0,2.1c0,0-0.6,0-1.1,0c-0.4,0-0.8,0-1.1,0c-0.9,0-1.8-0.9-1.9-1.7
		c-0.1-0.3,0.1-0.5,0.4-0.6C169.7,36.1,170.6,36.2,170.6,36.2z"/>
	<path class="st0" d="M112.8,32.4c-0.3,0-0.8-0.1-0.7-0.6c0-0.2,0.4-0.5,0.6-0.6c0.7-0.1,1.4-0.2,2.1-0.2c0.8,0,1.6,0,2.4,0
		c0.2,0,0.5,0,0.7,0.1s0.5,0.4,0.5,0.6c0,0.4-0.8,0.5-0.9,0.5C116.5,32.3,113.6,32.4,112.8,32.4z"/>
	<path class="st0" d="M167.3,20c-0.4,0-1.1,0-1.2-0.4c-0.1-0.5,0.5-0.8,0.9-0.9c0.4-0.1,1.1-0.1,1.5-0.1c1.1,0,2,0,2.6,0
		c0.3,0,0.8,0,1.1,0.1c0.2,0,0.4,0,0.7,0.1v1.1c-0.9,0.1-2.5,0.1-3.4,0.1C169,20,167.9,20,167.3,20z"/>
	<path class="st0" d="M153,38.5c-0.4,0-0.9,0-1.3,0c-0.5-0.1-0.6-0.4-0.4-0.8c0.5-0.9,2-1.6,3-1.3c0.6,0.1,0.9,0.5,0.8,1.2
		c0,0.6-0.2,0.8-0.9,0.8C153.9,38.5,153,38.5,153,38.5z"/>
	<path class="st0" d="M131.4,45.8c0.4,0,0.8,0,1.1,0.1c0.6,0.1,1.1,0.6,1,1.1c0,0.5-0.5,0.8-1.1,0.9c-0.5,0-1,0-1.4,0
		c-0.8-0.1-1.1-0.4-1.2-1.2c-0.1-0.5,0.1-0.8,0.6-0.8c0.2,0,0.3,0,0.5,0C131.1,45.8,131.3,45.8,131.4,45.8L131.4,45.8z"/>
	<path class="st0" d="M171,39.3c0.4,0,1.7,0,1.9,0c0,0,0,0.3,0,1c0,0.7,0,1,0,1c-0.4,0-1.9,0.1-2.3,0.1c-0.8,0-1.6-0.8-1.4-1.5
		c0.1-0.4,0.6-0.5,1-0.5C170.5,39.3,170.8,39.3,171,39.3z"/>
	<path class="st0" d="M108.8,31c0.2,0,0.8,0.1,0.8,0.4c0.1,0.3-0.1,0.4-0.3,0.5c-0.2,0.1-0.8,0.2-1,0.3c-1.3,0-3.6,0.2-4.9,0.1v-1.1
		c0,0,0.7,0,0.9,0C105.2,31,108.2,31,108.8,31z"/>
	<path class="st0" d="M140.8,45.9c0.3,0,0.6,0,0.9,0c0.7,0.1,1,0.6,0.6,1.2c-0.6,1-2.4,1.2-3.1,0.3c-0.2-0.3-0.3-0.7-0.3-1
		c0.1-0.4,0.5-0.5,0.9-0.5C140.2,45.8,140.5,45.9,140.8,45.9L140.8,45.9z"/>
	<path class="st0" d="M151.7,29.5c-0.8-0.1-1.3-0.1-1.8-0.2c-0.2,0-0.5-0.3-0.6-0.5c0-0.2,0.1-0.6,0.3-0.7c0.3-0.2,0.8-0.4,1.1-0.3
		c1,0.1,2.1,0.4,3.1,0.6c0.1,0,0.3,0.2,0.4,0.3c-0.1,0.1-0.2,0.4-0.4,0.4C153.1,29.2,152.3,29.4,151.7,29.5z"/>
	<path class="st0" d="M161.1,31.9c-0.7,0-2.1-0.2-2.9-0.3c-0.2,0-0.5-0.1-0.5-0.3c0-0.2,0.3-0.3,0.4-0.4c1.2-0.4,3.2-0.6,4.5-0.6
		c0.3,0,0.7,0.1,0.9,0.3c0.2,0.1,0.4,0.5,0.3,0.7c-0.1,0.2-0.4,0.4-0.6,0.4C162.6,31.9,161.6,32,161.1,31.9z"/>
	<path class="st0" d="M123,26.1c-0.6,0-1.3,0.1-2.2,0.2c-0.6,0-1.2,0.1-1.8,0c-0.4-0.1-1-0.3-1.1-0.5c-0.1-0.2-0.2-0.4-0.1-0.5
		s0.3-0.2,0.4-0.3c0.3-0.1,0.7,0.1,1.1,0.1c1.5,0,2.6,0,4,0.1c0.4,0,1.5-0.3,1.6,0.4c0,0.7-0.7,0.5-1.1,0.5
		C123.6,26.1,123.1,26.1,123,26.1z"/>
	<path class="st0" d="M130.3,44.5c-0.9,0-1.7-0.2-2.3-0.7c-0.2-0.2-0.3-0.6-0.3-0.9c0-0.2,0.5-0.3,0.7-0.4c0.9,0,1.8,0.2,2.6,0.7
		c0.3,0.2,0.6,0.5,0.6,0.8c-0.1,0.3-0.5,0.3-0.8,0.4C130.6,44.5,130.4,44.5,130.3,44.5z"/>
	<path class="st0" d="M172,16c0.2,0,0.5,0,0.9,0.1v1.1c-1.2,0.1-3.7,0-4.9,0.1c-0.3,0-1.1-0.1-1-0.6c0-0.3,0.6-0.6,0.9-0.7
		c0.7-0.1,2.5-0.1,2.5-0.1S171.4,15.9,172,16z"/>
	<path class="st0" d="M127.7,41.8c-0.6,0.1-1.2-0.4-1.8-0.7c-0.6-0.4-0.5-0.9,0.2-1.1c1.1-0.4,2.2-0.2,2.8,0.5
		c0.5,0.6,0.4,1-0.4,1.1C128.3,41.7,127.8,41.8,127.7,41.8z"/>
	<path class="st0" d="M161.3,16.7c-0.1-0.1-1-0.2-1.2-0.2c-1.9-0.3-3.7-0.6-5.6-0.8c-0.7-0.1-1.4,0-2.1,0.3
		c-1.3,0.4-2.5,0.6-3.8,0.3c-1.2-0.2-2.4-0.4-3.6-0.2c-4.4,0.5-8.7,0.6-13.1,0.3c-0.1,0-0.3,0-0.4,0c-0.6,0-0.9,0-1.2-0.1
		c-0.2-0.1-0.6-0.1-1-0.1c-0.1,0-0.2,0-0.3,0c-0.9,0.2-3,0.7-4.2,0.7c-2.4,0-5.7-0.5-8.1-0.8c-0.7-0.1-1.4-0.1-2,0
		c-0.6,0.1-1.2,0.1-1.8,0.3c-0.4,0.1-0.9,0.4-0.9,0.9c0.1,0.5,0.7,0.6,1.1,0.6c0.9,0,2.2,0,2.9,0c2,0,5.4-0.3,7.8-0.5
		c0.3,0,0.7-0.1,0.9-0.1c0.2,0,1.2,0.1,1.6,0.1c0.8,0,2.3,0.2,3.1,0.2c0.5,0,0.9-0.4,1.1-0.9c0.2,0.1,0.4,0.3,0.5,0.4
		c0.3,0.3,0.5,0.5,0.9,0.6c0.3,0.1,1.4-0.1,1.7-0.1c2-0.3,3.7-0.3,5.8-0.2c3.6,0.2,7.8,0.5,10.5,0.5c1.7,0,5-0.3,7.3-0.4
		c1.1-0.1,2.9-0.1,4.1-0.3c0.1,0,0.4-0.1,0.3-0.3C161.6,16.8,161.4,16.8,161.3,16.7z"/>
	<path class="st0" d="M168.9,14.3c-0.5-0.1-0.5-0.6-0.1-0.9c0.3-0.3,0.8-0.4,1.1-0.4c0.7-0.1,1.4-0.1,2,0c0.2,0,0.9,0.1,0.9,0.1v1.4
		c0,0-0.4,0-0.6,0c-0.5,0-1.1,0-1.5,0C170.3,14.4,169.4,14.4,168.9,14.3z"/>
	<path class="st0" d="M140.3,33.4c0.1,0,0.2,0,0.3,0c0.4,0,0.8-0.1,1.1,0.4c0.1,0.3-0.2,1.1-0.5,1.3c-0.4,0.3-0.9,0.3-1.3-0.1
		c-0.3-0.3-0.5-0.5-0.7-0.8c-0.3-0.5-0.2-0.7,0.4-0.8C139.7,33.4,140,33.4,140.3,33.4z"/>
	<path class="st0" d="M153.4,25c0.9,0,2.4,0.2,2.9,0.4c0.1,0,0.3,0.1,0.3,0.3c0,0.1-0.2,0.2-0.3,0.2c-0.9,0.3-3.3,0.2-4.6,0.2
		c-0.2,0-0.5-0.1-0.5-0.3c0-0.2,0.3-0.4,0.4-0.5C152,25.2,152.8,25,153.4,25z"/>
	<path class="st0" d="M138.8,44.5c-0.7,0-1.2-0.3-1.6-0.8c-0.3-0.5-0.2-0.8,0.4-0.8c0.6,0,1.3,0.1,1.9,0.1c0.4,0,0.8,0.2,0.7,0.6
		c-0.1,0.3-0.3,0.6-0.6,0.7C139.4,44.5,139.1,44.5,138.8,44.5z"/>
	<path class="st0" d="M125.9,38.5c-0.9,0.2-1.5-0.5-1.5-1.2c0-0.7,0.4-1,1.1-0.8c0.3,0.1,0.7,0.4,0.9,0.7c0.2,0.3,0.3,0.7,0.2,0.9
		C126.5,38.4,126.1,38.5,125.9,38.5z"/>
	<path class="st0" d="M114.8,29.3c-0.1,0-0.3,0-0.4,0c-0.3,0-0.7-0.1-0.8-0.5c-0.1-0.5,0.3-0.8,0.7-0.9c0.5-0.2,1.5,0.2,1.8,0.7
		c0.2,0.3,0.1,0.5-0.2,0.6C115.6,29.3,114.8,29.3,114.8,29.3z"/>
	<path class="st0" d="M105.2,22.5c0.4,0,1.3,0.1,1.7,0.3c0.1,0,0.4,0.1,0.4,0.3c0,0.2-0.4,0.3-0.5,0.4c-0.7,0.1-2.5,0.3-3.4,0.3
		v-0.5v-0.7C103.8,22.4,104.7,22.5,105.2,22.5z"/>
	<path class="st0" d="M136.1,46.7c0-0.3,0.1-0.7,0.6-0.7c0.5,0,1,0.5,1,1c0,0.4-0.4,0.7-0.8,0.7C136.4,47.8,136.1,47.4,136.1,46.7z"
		/>
	<path class="st0" d="M143.5,43.4c0,0.7-0.6,1.4-1.1,1.3c-0.4,0-0.6-0.2-0.6-0.7c0-0.5,0.7-1.1,1.2-1
		C143.2,43.1,143.4,43.3,143.5,43.4z"/>
	<path class="st0" d="M105.4,14.4c-0.2,0-1.5,0.1-1.9,0c0,0,0-0.6,0-0.7c0-0.1,0.9-0.1,1-0.1c0.7,0,1.1,0,1.8,0.1
		c0.7,0.1,1.1,0.3,0.9,0.5c-0.1,0.1-0.6,0.1-0.7,0.2C106.2,14.4,105.9,14.4,105.4,14.4z"/>
	<path class="st0" d="M171,11c-0.5,0-1.7,0.3-1.6-0.6c0-0.7,1.3-0.5,1.8-0.5c0.4,0,1.4,0.1,1.8,0.2c0,0,0,0.7,0,0.8
		c0,0-0.5,0.1-0.6,0.1C171.9,11.1,171.4,11.1,171,11z"/>
	<path class="st0" d="M125.5,44.2c-0.2,0.2-0.6,0.3-0.8,0.3c-0.3,0-0.6-0.1-0.6-0.5c0-0.4,0.3-0.7,0.7-0.6c0.3,0.1,0.7,0.2,0.8,0.5
		C125.6,44,125.6,44.1,125.5,44.2z"/>
	<path class="st0" d="M126.5,30.8c0.2,0.1,0.7,0.3,1.2,0.5c-0.5,0.2-1,0.4-1.5,0.5c-0.2,0.1-0.5,0-0.8,0c-0.3-0.1-0.5-0.3-0.7-0.4
		c0.2-0.1,0.5-0.3,0.7-0.4C125.6,30.8,125.9,30.8,126.5,30.8z"/>
	<path class="st0" d="M140.2,37.2c0,0.3-0.3,0.7-0.5,0.7c-0.2,0-0.4-0.4-0.4-0.6c0-0.2,0.1-0.6,0.3-0.6
		C139.9,36.6,140.2,36.9,140.2,37.2z"/>
	<path class="st0" d="M124.9,34.8c0,0.3-0.3,0.7-0.5,0.7c-0.2,0-0.5-0.4-0.5-0.6c0-0.2,0.3-0.5,0.5-0.6
		C124.7,34.3,124.9,34.5,124.9,34.8z"/>
	<path class="st0" d="M120.1,27.8c0.3,0,0.7,0.3,0.7,0.5c0,0.2-0.4,0.4-0.6,0.4c-0.2,0-0.6-0.1-0.6-0.3
		C119.4,28.1,119.7,27.8,120.1,27.8z"/>
	<path class="st0" d="M104.3,20c0.3,0,0.7,0.3,0.7,0.5c0,0.2-0.4,0.4-0.6,0.4c-0.2,0-0.6-0.1-0.6-0.3C103.7,20.3,104,20,104.3,20z"
		/>
	<path class="st0" d="M107.5,19.8c0.3,0,0.7,0.2,0.7,0.4c0,0.2-0.4,0.3-0.6,0.3c-0.2,0-0.6-0.1-0.6-0.3
		C106.9,20,107.1,19.8,107.5,19.8z"/>
	<path class="st0" d="M106.6,17.6c-0.3,0-0.6,0-1-0.1c-0.1,0-0.3-0.2-0.3-0.3c0-0.1,0.2-0.3,0.4-0.3c0.6-0.1,1.2-0.1,1.8-0.1
		c0.3,0,0.7,0.1,0.7,0.3c0,0.3-0.4,0.4-0.8,0.5C107.2,17.6,107,17.6,106.6,17.6z"/>
	<path class="st0" d="M161.3,22.7c0,0.3-0.8,0.5-1,0.4c-0.1-0.1-0.4-0.3-0.3-0.6c0-0.1,0.4-0.4,0.5-0.4
		C160.6,22.1,161.3,22.4,161.3,22.7z"/>
	<path class="st0" d="M159.7,25.5c0,0.3-0.8,0.5-1,0.4c-0.1-0.1-0.4-0.3-0.3-0.6c0-0.1,0.4-0.4,0.5-0.4
		C159,24.9,159.7,25.2,159.7,25.5z"/>
	<path class="st0" d="M162.7,19.8c0,0.3-0.3,0.5-0.5,0.5c-0.1,0-0.4-0.2-0.4-0.4c0-0.2,0.2-0.4,0.4-0.5
		C162.4,19.4,162.7,19.5,162.7,19.8z"/>
	<path class="st0" d="M172.9,8c0,0.3-0.6,0.5-0.8,0.5c-0.2,0-0.6-0.2-0.6-0.4c0-0.2,0.4-0.4,0.6-0.4C172.4,7.6,172.9,7.7,172.9,8z"
		/>
	<path class="st0" d="M162.3,28.7c0.3,0,0.5,0.2,0.5,0.3c0,0.1-0.2,0.2-0.4,0.2c-0.2,0-0.4-0.2-0.4-0.3
		C161.9,28.9,162,28.7,162.3,28.7z"/>
	<path class="st0" d="M103.8,10.9c0.3,0,0.5,0.2,0.5,0.3c0,0.1-0.2,0.2-0.4,0.2c-0.2,0-0.4-0.2-0.4-0.3
		C103.4,11.1,103.5,10.9,103.8,10.9z"/>
	<path class="st0" d="M152.3,69.8c-0.3,0-0.5,0.1-0.8,0.1c-0.1,0-0.2,0-0.2,0.1c0,0.1,0.1,0.2,0.2,0.2c0.5,0.1,1.1,0.1,1.6,0.2
		c1.2,0.2,3.8,0.4,5,0.6c0.2,0,0.5,0.2,0.5,0.4c0,0.2-0.3,0.3-0.5,0.3c-0.8,0.2-1.7,0.2-2.5,0.3c-2.3,0.2-7.4,0.3-9.6,0.5
		c-0.4,0-1.1,0-1.1,0.3c0,0.2,0.7,0.2,1.1,0.3c1.1,0.2,4.7,0.3,5.9,0.5c0.4,0.1,1.3,0.2,1.3,0.5c0,0.2-1,0.4-1.4,0.4
		c-2.3,0.3-6.2,0.4-9.4,0.5c-5.3,0.2-9.6,0.2-15.2-0.2c-0.6,0-1.3-0.2-1.9-0.3c-0.2,0-0.4-0.2-0.4-0.4c0-0.2,0.2-0.3,0.4-0.4
		c0.6-0.2,1.1-0.3,1.7-0.4c0.1,0,0.3-0.2,0.3-0.3c0-0.2-0.3-0.2-0.4-0.2c-0.8-0.1-1.9-0.2-2.5-0.3c-1-0.1-2.7-0.4-4-0.7
		c-0.2,0-0.6-0.2-0.5-0.5c0-0.3,0.4-0.4,0.6-0.4c0.7-0.1,1.8-0.2,2.3-0.2c1.7,0,5.2,0,6.6-0.2c0.1,0,0.4-0.1,0.4-0.2
		c0-0.2-0.4-0.2-0.5-0.2c-1-0.2-3.2-0.2-4-0.2c-6.8,0-21.7,0.1-21.7,0.1v5.9H173v-6.2C172.9,69.6,158.3,69.7,152.3,69.8z"/>
	<path class="st0" d="M163.4,50.5c2.5-0.1,5.1-0.1,7.6-0.2c0.3,0,1.6,0,1.9-0.1l0-1.8c0,0-0.3,0-0.8,0c-0.2,0-0.5,0-0.7,0
		c-3.1,0-6.3,0-9.4,0c-1.3,0-2.7,0-4,0.1c-0.8,0-1,0.2-1.2,1c-0.2,1-0.4,1.9-0.7,2.9c-0.3,1.1-0.1,2.1,0.5,3
		c0.3,0.5,0.6,1.2,0.8,1.8c0.1,0.1,0.1,0.4,0,0.5c-0.2,0.1-0.4-0.1-0.5-0.3c-0.5-0.7-0.9-1.5-1.4-2.3c-0.4-0.7-0.6-1.4-0.6-2.1
		c0.1-1,0.2-2.1,0.3-3.2c0-0.7,0-1.5-0.1-2.2c-0.3-1.5-1.1-2.1-2.6-2.1c-0.3,0-0.5,0-0.8,0c-1.9,0-2-0.3-2.3,2
		c-0.3,2.1-0.5,4.2-1.6,6.1c-0.3,0.5-0.7,1.3-0.9,1.8c-0.8,1.7-0.3,1.9,1.6,2.2c0.4,0.1,0.7,0.1,1.1,0.2c0.2,0.1,0.7,0.1,0.7,0.4
		c0,0.3-0.4,0.4-0.7,0.4c-0.4,0.1-1.4,0.3-1.7,0.3c-0.1,0-0.3,0.1-0.3,0.3c0,0.1,0.2,0.1,0.3,0.2c0.5,0.1,2.1,0.2,2.7,0.2
		c1.4,0.1,2.4,0.2,3.7,0.3c0.3,0,0.6,0.1,0.8,0.2c0.1,0.1,0.4,0.2,0.4,0.4c0,0.2-0.3,0.3-0.4,0.4c-0.4,0.1-0.7,0.2-1.1,0.2
		c-0.8,0.1-2.5,0.1-3.5,0.2c-0.3,0-5.3,0.1-5.3,0.5c0,0.3,4.3,0.5,4.6,0.5c2.6,0.1,6.6,0.2,9,0.5c0.3,0,1,0,1,0.4s-0.6,0.4-0.9,0.4
		c-1.5,0.1-3.1,0.3-4.6,0.3c-2,0.1-3,0.1-4.5,0.1c-0.6,0-2.5,0-2.5,0.4c0,0.3,1.8,0.4,2.2,0.4c1.7,0.1,2.9,0.1,5.4,0.2
		c2.1,0.1,4.4,0.4,6.5,0.7c0.2,0,0.6,0.2,0.6,0.4c0,0.2-0.4,0.3-0.6,0.4c-0.3,0.1-0.5,0.1-0.8,0.2c-0.6,0.1-4.1,0.3-4.7,0.4
		c-0.1,0-1,0.1-1,0.2c0,0.2,1,0.2,1.1,0.2c0.5,0.1,3.9,0,4.4,0c1.8,0,4,0,5.3,0c1.3,0,7.5,0,7.5,0l0-12.1c-0.6-0.1-2.6-0.2-3.2-0.3
		c-0.4,0-1-0.2-1-0.5c0-0.3,0.6-0.3,1-0.3c0.8-0.1,2.5-0.1,3.2-0.1v-2.5c0,0-0.3,0-1.3,0c-1.5-0.1-3.1-0.1-4.6-0.1
		c-1.2,0-2.5-0.1-3.7-0.2c-0.4,0-1.6,0-1.6-0.3C161.8,50.5,163,50.5,163.4,50.5z"/>
	<g>
		<path class="st0" d="M130.3,6.3c-0.7,0-1.5,0.1-2.3,0.2c-0.4,0.1-0.9,0.2-1.3,0.3c-0.1,0-0.2,0.2-0.2,0.3s0.1,0.2,0.2,0.3
			c0.1,0.1,0.3,0.1,0.4,0.1c2,0.4,3.9,0,5.9-0.4c0.1,0,0.3-0.1,0.3-0.2c0-0.2-0.2-0.3-0.4-0.3C132.1,6.4,131.2,6.3,130.3,6.3z"/>
		<path class="st0" d="M148.9,6.2c-2.4-0.1-4.8-0.2-7.2-0.2c-1.4,0-2.7,0.3-4.1,0.5c-0.3,0-0.8,0.2-0.8,0.5c0,0.3,0.6,0.4,0.9,0.4
			c1.3,0.1,2.6,0.2,3.7,0.2c1.4-0.1,2.6-0.1,3.8-0.3c1.5-0.2,2.9-0.4,4.4-0.6c0.1,0,0.4-0.1,0.4-0.2c0-0.2-0.3-0.2-0.5-0.3
			C149.4,6.2,149.1,6.2,148.9,6.2z"/>
		<path class="st0" d="M154.9,9.2c-0.4-0.1-0.8-0.1-1.2-0.1c-1.3,0-2.5,0-3.8,0c-4.3,0-8.5,0.1-12.8-0.5c-0.3-0.1-0.7,0-1,0.1
			c-1.6,0.3-3.2,0.7-4.8,0.9c-0.7,0.1-1.4,0-2.1-0.2c-1-0.3-2-0.5-3-0.3c-0.6,0.1-1.3,0.2-1.9,0.3c-0.4,0.1-1,0-1.2,0.5
			c0.4,0.1,0.8,0.2,1.3,0.2c3.2,0.1,6.3-0.3,9.5,0c4.1,0.3,8.3-0.2,12.4-0.5c1.1-0.1,2.1,0,3.2,0c1.2,0.1,2.4,0.4,3.7,0.4
			c0.6,0,1.3-0.1,1.9-0.2c0.2,0,0.5-0.2,0.5-0.4C155.4,9.3,155.1,9.3,154.9,9.2z"/>
		<path class="st0" d="M168.2,4.3L168.2,4.3l-63.7,0c0.1,0.2,0.3,0.5,0.5,0.8c0.2,0.2,0.3,0.4,0.4,0.5c0.3,0.2,0.6,0.2,1,0.2
			c0.7,0,1.4-0.1,2-0.1c1.9-0.1,3.7-0.1,5.6,0c0.9,0,1.8,0.2,2.7,0.5c0.3,0.1,0.7,0.3,0.7,0.6c0,0.3-0.4,0.4-0.7,0.5
			c-0.4,0.2-0.9,0.3-1.4,0.4c-2.1,0.3-4,0.4-6.2,0.4c-0.4,0-1.8-0.2-1.6,0.3c0.1,0.4,1.3,0.4,1.6,0.4c1.6,0.4,4.3,0.4,6.4,0.6
			c0.4,0.1,0.9,0.1,1.3,0.2c0.1,0,0.3,0.1,0.3,0.3c0,0.1-0.1,0.2-0.2,0.2c-0.2,0.1-0.5,0.1-0.7,0.1c-1.3,0.2-2.6,0.3-3.9,0.5
			c-0.3,0.1-1.4,0.2-1.4,0.5c0,0.3,1,0.6,1.3,0.6c2.1,0.1,4.3,0.1,6.4-0.1c2.8-0.3,5.5-0.4,8.3-0.1c2,0.2,4.1,0.4,6.1,0.1
			c0.7-0.1,1.4-0.2,2.1-0.2c5.2,0.1,10.4,0.1,15.6,0.2c0.6,0,1.2,0,1.8,0c3.6-0.4,7.3-0.5,10.9-0.3c0.2,0,0.4,0,0.6,0
			c0.4,0,0.8-0.1,0.8-0.6c0.1-0.5-0.3-0.6-0.7-0.8c-0.4-0.1-0.7-0.2-1.1-0.4c-0.3-0.1-0.3-0.4,0-0.5c0.2-0.1,0.4-0.1,0.7-0.2
			c0.4-0.1,0.8-0.2,1.1-0.4c0.3-0.2,0.5-0.5,0.5-0.8c0-0.3-0.4-0.5-0.6-0.7c-0.1-0.1-0.4-0.1-0.6-0.2c-0.1-0.1-0.3-0.2-0.3-0.3
			c0-0.2,0.3-0.3,0.4-0.3c0.9-0.2,1.8-0.3,2.7-0.5c0.7-0.2,2-0.4,2.5-0.7c0.1-0.1,0.2-0.2,0.2-0.3c0-0.2,0-0.3,0-0.3
			S168.7,4.3,168.2,4.3z M150,6.6c0,0.2-0.3,0.2-0.4,0.2c-1.4,0.2-2.9,0.4-4.4,0.6c-1.2,0.1-2.4,0.2-3.8,0.3
			c-1.1-0.1-2.4-0.1-3.7-0.2c-0.3,0-0.9-0.1-0.9-0.4c0-0.3,0.5-0.4,0.8-0.5c1.4-0.2,2.7-0.4,4.1-0.5c2.4,0,4.8,0.1,7.2,0.2
			c0.2,0,0.5,0,0.7,0.1C149.8,6.3,150,6.4,150,6.6z M133.2,6.8c0,0.1-0.2,0.2-0.3,0.2C131,7.4,129,7.8,127,7.4
			c-0.1,0-0.3-0.1-0.4-0.1c-0.1-0.1-0.2-0.2-0.2-0.3c0-0.1,0.1-0.3,0.2-0.3c0.4-0.1,0.9-0.2,1.3-0.3c0.8-0.1,1.6-0.2,2.3-0.2
			c1,0,1.8,0.1,2.6,0.2C133,6.5,133.2,6.6,133.2,6.8z M155,9.9c-0.6,0.1-1.3,0.2-1.9,0.2c-1.3,0-2.5-0.3-3.7-0.4
			c-1.1-0.1-2.1-0.1-3.2,0c-4.1,0.3-8.3,0.8-12.4,0.5c-3.2-0.2-6.3,0.2-9.5,0c-0.4,0-0.8-0.1-1.3-0.2c0.2-0.6,0.8-0.4,1.2-0.5
			c0.6-0.2,1.3-0.2,1.9-0.3c1-0.2,2,0,3,0.3c0.7,0.2,1.4,0.3,2.1,0.2c1.6-0.2,3.2-0.6,4.8-0.9c0.3-0.1,0.7-0.1,1-0.1
			c4.3,0.6,8.5,0.5,12.8,0.5c1.3,0,2.5,0,3.8,0c0.4,0,0.8,0,1.2,0.1c0.2,0,0.5,0,0.5,0.2C155.5,9.7,155.1,9.8,155,9.9z"/>
	</g>
</g>
<g>
	<path class="st0" d="M175.7,72.3v-0.5h3.1v0.5h-1.3v3.5H177v-3.5H175.7z"/>
	<path class="st0" d="M181.3,75.2l1.1-3.4h0.8l0.1,4h-0.5c0,0-0.1-3.2-0.1-3.4h0l-1.1,3.4h-0.5"/>
	<path class="st0" d="M181.6,75.8h-0.5l-1.1-3.4h0c0,0.1-0.1,3.4-0.1,3.4h-0.5l0.1-4h0.8l1.1,3.4"/>
</g>
</svg>
