<?xml version="1.0" encoding="utf-8"?>
<!-- Generator: Adobe Illustrator 27.2.0, SVG Export Plug-In . SVG Version: 6.00 Build 0)  -->
<svg version="1.1" id="Capa_1" xmlns="http://www.w3.org/2000/svg" xmlns:xlink="http://www.w3.org/1999/xlink" x="0px" y="0px"
	 viewBox="0 0 100.88 30.6" style="enable-background:new 0 0 100.88 30.6;" xml:space="preserve">
<style type="text/css">
	.st0{fill:#FFFFFF;}
</style>
<path class="st0" d="M72.81,7.32l2.35,7.9h2.96V3.15H94.5l0,0h6.38l-3.36-3.14H81.55l0,0h-6.5v7.22l-2.22-7.22h-3.11v15.22h3.1V7.32
	H72.81z M39,16.19c-0.45,2.8-0.9,5.59-1.35,8.39h1.87c0.05-0.4,0.1-0.79,0.15-1.19h1.28c0.06,0.4,0.11,0.79,0.17,1.19h2.05
	c-0.45-2.81-0.9-5.61-1.35-8.4H39V16.19z M39.87,21.88c0.14-1.12,0.28-2.23,0.41-3.35c0.02,0,0.04,0,0.07,0
	c0.14,1.11,0.28,2.22,0.43,3.35H39.87z M25.34,8.01H6.24l4.14,3.14h14.96V8.01z M25.34,3.95H0.88l4.14,3.14h20.32V3.95z
	 M46.73,24.59c0.46-2.8,0.92-5.59,1.38-8.4h-1.92c-0.23,1.89-0.47,3.77-0.7,5.65c-0.02,0-0.04,0-0.06-0.01
	c-0.23-1.88-0.47-3.76-0.7-5.63h-2.1c0.46,2.81,0.92,5.6,1.38,8.39H46.73z M58.57,24.59h2.04V16.2h-2.04V24.59z M44.42,10.06h2.59
	l2.67-2.29V1.92L47.18,0H41.1v15.23h3.32V10.06z M44.55,2.92h1.79v4.19h-1.79V2.92z M57.46,15.23L60,12.91V7.14h-4.48v2.91h1.21
	v2.15H54.7V2.94h2.07V5.6h3.18V1.94l-2.03-1.91h-4.43l-2.05,1.91v10.98l2.51,2.32L57.46,15.23L57.46,15.23z M57.11,20.63
	c0.79-0.25,0.85-0.34,0.85-1.1c0-0.53,0-1.06,0-1.59c0-0.35,0-0.69-0.04-1.04c-0.04-0.41-0.21-0.58-0.61-0.67
	c-0.11-0.02-0.22-0.04-0.33-0.04c-1.3-0.01-2.6-0.01-3.9-0.01c-0.03,0-0.06,0.02-0.09,0.02v8.38h2.05v-3.17c0.15,0,0.27,0,0.39,0
	c0.42,0,0.48,0.06,0.48,0.48c0,0.67,0,1.34,0,2v0.71h2.07c0-0.12,0-0.21,0-0.29c0-0.81-0.01-1.61,0-2.42
	C57.99,21.28,57.84,20.8,57.11,20.63z M55.89,19.61c0.01,0.24-0.1,0.36-0.33,0.36c-0.16,0.01-0.33,0-0.51,0V17.7
	c0.03-0.02,0.04-0.03,0.05-0.03c0.9-0.04,0.79,0.04,0.79,0.73C55.89,18.8,55.89,19.21,55.89,19.61z M52.29,17.69
	c0.04-0.52,0.08-1,0.11-1.49h-3.86v8.39h3.87v-1.51H50.6v-2.25h1.62c0.04-0.51,0.08-1,0.12-1.52H50.6v-1.62
	C50.6,17.69,52.29,17.69,52.29,17.69z M38.12,15.23l2.43-2.31V1.93l-2.47-1.91h-3.67l-2.45,1.91v10.99l2.37,2.31H38.12z M35.34,2.93
	h1.93v9.28h-1.93V2.93z M71.94,19.04h8.04l3.78-2.87H72.93L71.94,19.04z M70.82,20.16c-0.03-0.12-0.03-0.26,0.01-0.37
	c0.19-0.57,0.4-1.14,0.61-1.71c0.22-0.62,0.44-1.24,0.67-1.88h-2.14c-0.35,1.06-0.7,2.12-1.05,3.18l-0.08-0.02v-3.17h-2.06v8.39
	h2.07v-3.42c0.02,0,0.05,0,0.07-0.01c0.31,1.14,0.63,2.28,0.94,3.43h2.17c-0.02-0.08-0.03-0.14-0.04-0.2
	C71.6,22.98,71.21,21.57,70.82,20.16z M69.14,0.01h-3.25v12.21h-1.93V0.01h-3.4v12.93l2.27,2.29h3.93l2.38-2.29
	C69.14,12.94,69.14,0.01,69.14,0.01z M64.27,20.8c0,0.7,0,1.39,0,2.07c0,0.23-0.11,0.34-0.32,0.35c-0.12,0.01-0.24,0.01-0.36,0
	c-0.21-0.02-0.31-0.13-0.3-0.34c0-1.67,0-3.33,0-5c0-0.22,0.11-0.32,0.32-0.32c0.1,0,0.19,0,0.29,0c0.27,0.01,0.35,0.09,0.36,0.37
	c0.01,0.44,0,0.88,0,1.33c0,0.11,0,0.22,0,0.33h2c0-0.87,0.02-1.73-0.01-2.58c-0.02-0.43-0.25-0.64-0.68-0.75
	c-0.13-0.03-0.26-0.05-0.38-0.06c-0.83-0.01-1.67-0.01-2.5-0.01c-0.22,0-0.43,0.03-0.64,0.08c-0.48,0.11-0.73,0.39-0.79,0.87
	c-0.02,0.14-0.03,0.28-0.03,0.41c0,1.86,0,3.71,0,5.57c0,0.2,0.02,0.4,0.04,0.6c0.07,0.53,0.34,0.82,0.87,0.87
	c0.32,0.03,0.64,0.02,0.96,0.02c0.7,0,1.41,0.03,2.11,0c0.74-0.03,1.07-0.35,1.09-1.09c0.03-0.9,0.01-1.8,0.01-2.72
	C66.31,20.8,64.27,20.8,64.27,20.8z M25.34,12.09H11.6l4.14,3.14h9.6V12.09z M51.14,27.35h2.42l0,0h6.55l3.1-2.05H50.47L51.14,27.35
	z M79.14,11.16h11.23l4.14-3.14H79.14V11.16z M79.14,15.23H85l4.14-3.14h-10V15.23z M79.14,7.09h16.58l4.14-3.14H79.14V7.09z
	 M31.59,0.01H3.77L0,3.15h26.27v12.08h3.47V3.15h1.85V0.01z M20.77,19.04h8.48v-2.87H16.98L20.77,19.04z M33.71,21.03
	c-0.02,0-0.03,0-0.05,0c-0.19-1.61-0.38-3.22-0.57-4.83h-2.97v8.39h1.65v-5.06c0.02,0,0.04,0,0.06,0c0.24,1.69,0.47,3.37,0.71,5.07
	h1.95c0.24-1.69,0.48-3.37,0.71-5.05c0.02,0,0.04,0,0.06,0v5.04h2.01V16.2H34.3C34.1,17.82,33.91,19.43,33.71,21.03z M47.22,27.35
	h2.42l0.67-2.05h-12.7l2.9,2.05H47.22L47.22,27.35z M52.99,27.54H51l-0.61-1.89l-0.61,1.89h-1.99l1.61,1.17l-0.62,1.89l1.61-1.17
	L52,30.6l-0.61-1.89L52.99,27.54z M51.6,28.78l0.05,0.15h2.71l1.89-1.39H53.3L51.6,28.78z M49.18,28.78l-1.5-1.09l-0.2-0.15H44.4
	l1.61,1.39h3.11L49.18,28.78z"/>
</svg>
